<svg xmlns="http://www.w3.org/2000/svg" width="386" height="372" viewBox="0 0 386 372">
<style>
text{font-family:Arial,Helvetica,sans-serif;fill:#172033;font-size:14px}
.title{font-size:18px;font-weight:700}
.head{font-weight:700}
.cellText{font-size:22px;font-weight:700}
.cell{stroke:#60708a;stroke-width:1.2}
</style>
<text x="116" y="32" class="title">Task 2 Karnaugh map with don't-cares</text>
<text x="232" y="68" text-anchor="middle" class="head">x3x4</text>
<text x="30" y="216" transform="rotate(-90 30 216)" text-anchor="middle" class="head">x1x2</text>
<text x="145.0" y="86" text-anchor="middle" class="head">00</text>
<text x="203.0" y="86" text-anchor="middle" class="head">01</text>
<text x="261.0" y="86" text-anchor="middle" class="head">11</text>
<text x="319.0" y="86" text-anchor="middle" class="head">10</text>
<text x="94" y="134.0" text-anchor="end" class="head">00</text>
<text x="94" y="192.0" text-anchor="end" class="head">01</text>
<text x="94" y="250.0" text-anchor="end" class="head">11</text>
<text x="94" y="308.0" text-anchor="end" class="head">10</text>
<rect x="116" y="100" width="58" height="58" fill="#dff4e7" class="cell"/>
<text x="145.0" y="137.0" text-anchor="middle" class="cellText">1</text>
<rect x="174" y="100" width="58" height="58" fill="#fff2cc" class="cell"/>
<text x="203.0" y="137.0" text-anchor="middle" class="cellText">X</text>
<rect x="232" y="100" width="58" height="58" fill="#fff2cc" class="cell"/>
<text x="261.0" y="137.0" text-anchor="middle" class="cellText">X</text>
<rect x="290" y="100" width="58" height="58" fill="#f4f6fb" class="cell"/>
<text x="319.0" y="137.0" text-anchor="middle" class="cellText">0</text>
<rect x="116" y="158" width="58" height="58" fill="#dff4e7" class="cell"/>
<text x="145.0" y="195.0" text-anchor="middle" class="cellText">1</text>
<rect x="174" y="158" width="58" height="58" fill="#dff4e7" class="cell"/>
<text x="203.0" y="195.0" text-anchor="middle" class="cellText">1</text>
<rect x="232" y="158" width="58" height="58" fill="#fff2cc" class="cell"/>
<text x="261.0" y="195.0" text-anchor="middle" class="cellText">X</text>
<rect x="290" y="158" width="58" height="58" fill="#f4f6fb" class="cell"/>
<text x="319.0" y="195.0" text-anchor="middle" class="cellText">0</text>
<rect x="116" y="216" width="58" height="58" fill="#dff4e7" class="cell"/>
<text x="145.0" y="253.0" text-anchor="middle" class="cellText">1</text>
<rect x="174" y="216" width="58" height="58" fill="#dff4e7" class="cell"/>
<text x="203.0" y="253.0" text-anchor="middle" class="cellText">1</text>
<rect x="232" y="216" width="58" height="58" fill="#f4f6fb" class="cell"/>
<text x="261.0" y="253.0" text-anchor="middle" class="cellText">0</text>
<rect x="290" y="216" width="58" height="58" fill="#dff4e7" class="cell"/>
<text x="319.0" y="253.0" text-anchor="middle" class="cellText">1</text>
<rect x="116" y="274" width="58" height="58" fill="#dff4e7" class="cell"/>
<text x="145.0" y="311.0" text-anchor="middle" class="cellText">1</text>
<rect x="174" y="274" width="58" height="58" fill="#dff4e7" class="cell"/>
<text x="203.0" y="311.0" text-anchor="middle" class="cellText">1</text>
<rect x="232" y="274" width="58" height="58" fill="#f4f6fb" class="cell"/>
<text x="261.0" y="311.0" text-anchor="middle" class="cellText">0</text>
<rect x="290" y="274" width="58" height="58" fill="#dff4e7" class="cell"/>
<text x="319.0" y="311.0" text-anchor="middle" class="cellText">1</text>
</svg>