<svg xmlns="http://www.w3.org/2000/svg" width="1040" height="610" viewBox="0 0 1040 610">
<style>
text{font-family:Arial,Helvetica,sans-serif;fill:#172033}
.node{fill:#ffffff;stroke:#172033;stroke-width:2}
.edge{stroke:#5a6578;stroke-width:2.2}
.path{stroke:#d92727;stroke-width:4}
.label{font-size:13px;font-weight:700;paint-order:stroke;stroke:#fff;stroke-width:4px;stroke-linejoin:round}
.nodeText{font-size:15px;font-weight:700}
</style>
<text x="28" y="28" class="nodeText">Варіант 18: найкоротший шлях x1 → x14</text>
<line x1="70" y1="285" x2="170" y2="80" class="edge"/>
<text x="120.0" y="177.5" text-anchor="middle" class="label">3</text>
<line x1="70" y1="285" x2="205" y2="170" class="edge"/>
<text x="137.5" y="222.5" text-anchor="middle" class="label">2</text>
<line x1="70" y1="285" x2="215" y2="270" class="edge"/>
<text x="142.5" y="272.5" text-anchor="middle" class="label">2</text>
<line x1="70" y1="285" x2="245" y2="355" class="path"/>
<text x="157.5" y="315.0" text-anchor="middle" class="label">3</text>
<line x1="70" y1="285" x2="290" y2="520" class="edge"/>
<text x="180.0" y="397.5" text-anchor="middle" class="label">4</text>
<line x1="170" y1="80" x2="610" y2="70" class="edge"/>
<text x="390.0" y="70.0" text-anchor="middle" class="label">2</text>
<line x1="170" y1="80" x2="455" y2="210" class="edge"/>
<text x="312.5" y="140.0" text-anchor="middle" class="label">1</text>
<line x1="205" y1="170" x2="455" y2="210" class="edge"/>
<text x="330.0" y="185.0" text-anchor="middle" class="label">1</text>
<line x1="215" y1="270" x2="610" y2="70" class="edge"/>
<text x="412.5" y="165.0" text-anchor="middle" class="label">2</text>
<line x1="215" y1="270" x2="455" y2="330" class="edge"/>
<text x="335.0" y="295.0" text-anchor="middle" class="label">3</text>
<line x1="245" y1="355" x2="640" y2="520" class="edge"/>
<text x="442.5" y="432.5" text-anchor="middle" class="label">1</text>
<line x1="245" y1="355" x2="820" y2="195" class="path"/>
<text x="532.5" y="270.0" text-anchor="middle" class="label">2</text>
<line x1="290" y1="520" x2="455" y2="330" class="edge"/>
<text x="372.5" y="420.0" text-anchor="middle" class="label">1</text>
<line x1="290" y1="520" x2="640" y2="520" class="edge"/>
<text x="465.0" y="515.0" text-anchor="middle" class="label">2</text>
<line x1="610" y1="70" x2="820" y2="195" class="edge"/>
<text x="715.0" y="127.5" text-anchor="middle" class="label">2</text>
<line x1="610" y1="70" x2="760" y2="290" class="edge"/>
<text x="685.0" y="175.0" text-anchor="middle" class="label">2</text>
<line x1="455" y1="210" x2="810" y2="450" class="edge"/>
<text x="632.5" y="325.0" text-anchor="middle" class="label">3</text>
<line x1="455" y1="330" x2="820" y2="195" class="edge"/>
<text x="637.5" y="257.5" text-anchor="middle" class="label">1</text>
<line x1="455" y1="330" x2="760" y2="290" class="edge"/>
<text x="607.5" y="305.0" text-anchor="middle" class="label">1</text>
<line x1="455" y1="330" x2="810" y2="450" class="edge"/>
<text x="632.5" y="385.0" text-anchor="middle" class="label">1</text>
<line x1="640" y1="520" x2="760" y2="290" class="edge"/>
<text x="700.0" y="400.0" text-anchor="middle" class="label">3</text>
<line x1="640" y1="520" x2="810" y2="450" class="edge"/>
<text x="725.0" y="480.0" text-anchor="middle" class="label">4</text>
<line x1="820" y1="195" x2="940" y2="290" class="path"/>
<text x="880.0" y="237.5" text-anchor="middle" class="label">3</text>
<line x1="760" y1="290" x2="940" y2="290" class="edge"/>
<text x="850.0" y="285.0" text-anchor="middle" class="label">6</text>
<line x1="810" y1="450" x2="940" y2="290" class="edge"/>
<text x="875.0" y="365.0" text-anchor="middle" class="label">3</text>
<circle cx="70" cy="285" r="15" class="node"/>
<text x="70" y="290" text-anchor="middle" class="nodeText">x1</text>
<circle cx="170" cy="80" r="15" class="node"/>
<text x="170" y="85" text-anchor="middle" class="nodeText">x2</text>
<circle cx="205" cy="170" r="15" class="node"/>
<text x="205" y="175" text-anchor="middle" class="nodeText">x3</text>
<circle cx="215" cy="270" r="15" class="node"/>
<text x="215" y="275" text-anchor="middle" class="nodeText">x4</text>
<circle cx="245" cy="355" r="15" class="node"/>
<text x="245" y="360" text-anchor="middle" class="nodeText">x5</text>
<circle cx="290" cy="520" r="15" class="node"/>
<text x="290" y="525" text-anchor="middle" class="nodeText">x6</text>
<circle cx="610" cy="70" r="15" class="node"/>
<text x="610" y="75" text-anchor="middle" class="nodeText">x7</text>
<circle cx="455" cy="210" r="15" class="node"/>
<text x="455" y="215" text-anchor="middle" class="nodeText">x8</text>
<circle cx="455" cy="330" r="15" class="node"/>
<text x="455" y="335" text-anchor="middle" class="nodeText">x9</text>
<circle cx="640" cy="520" r="15" class="node"/>
<text x="640" y="525" text-anchor="middle" class="nodeText">x10</text>
<circle cx="820" cy="195" r="15" class="node"/>
<text x="820" y="200" text-anchor="middle" class="nodeText">x11</text>
<circle cx="760" cy="290" r="15" class="node"/>
<text x="760" y="295" text-anchor="middle" class="nodeText">x12</text>
<circle cx="810" cy="450" r="15" class="node"/>
<text x="810" y="455" text-anchor="middle" class="nodeText">x13</text>
<circle cx="940" cy="290" r="15" class="node"/>
<text x="940" y="295" text-anchor="middle" class="nodeText">x14</text>
</svg>