<svg xmlns="http://www.w3.org/2000/svg" width="690" height="458" viewBox="0 0 690 458">
<style>
text{font-family:Arial,Helvetica,sans-serif;font-size:13px;fill:#172033}
.title{font-size:18px;font-weight:700}
.label{font-weight:700}
.grid{stroke:#d9dee8;stroke-width:1}
.axis{stroke:#aeb7c7;stroke-width:1}
.wave{fill:none;stroke:#1c5aa6;stroke-width:3;stroke-linejoin:round;stroke-linecap:round}
.zeroone{font-size:11px;fill:#657086}
</style>
<text x="190" y="30" class="title">Task 1: f = (x1 XOR NOT x3) AND (x1 EQUIV NOT x2)</text>
<text x="219.0" y="50" text-anchor="middle" class="zeroone">000</text>
<line x1="190" y1="40" x2="190" y2="408" class="grid"/>
<text x="277.0" y="50" text-anchor="middle" class="zeroone">001</text>
<line x1="248" y1="40" x2="248" y2="408" class="grid"/>
<text x="335.0" y="50" text-anchor="middle" class="zeroone">010</text>
<line x1="306" y1="40" x2="306" y2="408" class="grid"/>
<text x="393.0" y="50" text-anchor="middle" class="zeroone">011</text>
<line x1="364" y1="40" x2="364" y2="408" class="grid"/>
<text x="451.0" y="50" text-anchor="middle" class="zeroone">100</text>
<line x1="422" y1="40" x2="422" y2="408" class="grid"/>
<text x="509.0" y="50" text-anchor="middle" class="zeroone">101</text>
<line x1="480" y1="40" x2="480" y2="408" class="grid"/>
<text x="567.0" y="50" text-anchor="middle" class="zeroone">110</text>
<line x1="538" y1="40" x2="538" y2="408" class="grid"/>
<text x="625.0" y="50" text-anchor="middle" class="zeroone">111</text>
<line x1="596" y1="40" x2="596" y2="408" class="grid"/>
<line x1="654" y1="40" x2="654" y2="408" class="grid"/>
<text x="18" y="93" class="label">x1</text>
<text x="162" y="79" text-anchor="end" class="zeroone">1</text>
<text x="162" y="105" text-anchor="end" class="zeroone">0</text>
<line x1="172" y1="75" x2="654" y2="75" class="axis"/>
<line x1="172" y1="101" x2="654" y2="101" class="axis"/>
<path d="M 190 101 H 248 H 306 H 364 H 422 V 75 H 480 H 538 H 596 H 654" class="wave"/>
<text x="18" y="137" class="label">x2</text>
<text x="162" y="123" text-anchor="end" class="zeroone">1</text>
<text x="162" y="149" text-anchor="end" class="zeroone">0</text>
<line x1="172" y1="119" x2="654" y2="119" class="axis"/>
<line x1="172" y1="145" x2="654" y2="145" class="axis"/>
<path d="M 190 145 H 248 H 306 V 119 H 364 H 422 V 145 H 480 H 538 V 119 H 596 H 654" class="wave"/>
<text x="18" y="181" class="label">x3</text>
<text x="162" y="167" text-anchor="end" class="zeroone">1</text>
<text x="162" y="193" text-anchor="end" class="zeroone">0</text>
<line x1="172" y1="163" x2="654" y2="163" class="axis"/>
<line x1="172" y1="189" x2="654" y2="189" class="axis"/>
<path d="M 190 189 H 248 V 163 H 306 V 189 H 364 V 163 H 422 V 189 H 480 V 163 H 538 V 189 H 596 V 163 H 654" class="wave"/>
<text x="18" y="225" class="label">NOT x3</text>
<text x="162" y="211" text-anchor="end" class="zeroone">1</text>
<text x="162" y="237" text-anchor="end" class="zeroone">0</text>
<line x1="172" y1="207" x2="654" y2="207" class="axis"/>
<line x1="172" y1="233" x2="654" y2="233" class="axis"/>
<path d="M 190 207 H 248 V 233 H 306 V 207 H 364 V 233 H 422 V 207 H 480 V 233 H 538 V 207 H 596 V 233 H 654" class="wave"/>
<text x="18" y="269" class="label">x1 XOR NOT x3</text>
<text x="162" y="255" text-anchor="end" class="zeroone">1</text>
<text x="162" y="281" text-anchor="end" class="zeroone">0</text>
<line x1="172" y1="251" x2="654" y2="251" class="axis"/>
<line x1="172" y1="277" x2="654" y2="277" class="axis"/>
<path d="M 190 251 H 248 V 277 H 306 V 251 H 364 V 277 H 422 H 480 V 251 H 538 V 277 H 596 V 251 H 654" class="wave"/>
<text x="18" y="313" class="label">NOT x2</text>
<text x="162" y="299" text-anchor="end" class="zeroone">1</text>
<text x="162" y="325" text-anchor="end" class="zeroone">0</text>
<line x1="172" y1="295" x2="654" y2="295" class="axis"/>
<line x1="172" y1="321" x2="654" y2="321" class="axis"/>
<path d="M 190 295 H 248 H 306 V 321 H 364 H 422 V 295 H 480 H 538 V 321 H 596 H 654" class="wave"/>
<text x="18" y="357" class="label">x1 EQUIV NOT x2</text>
<text x="162" y="343" text-anchor="end" class="zeroone">1</text>
<text x="162" y="369" text-anchor="end" class="zeroone">0</text>
<line x1="172" y1="339" x2="654" y2="339" class="axis"/>
<line x1="172" y1="365" x2="654" y2="365" class="axis"/>
<path d="M 190 365 H 248 H 306 V 339 H 364 H 422 H 480 H 538 V 365 H 596 H 654" class="wave"/>
<text x="18" y="401" class="label">f</text>
<text x="162" y="387" text-anchor="end" class="zeroone">1</text>
<text x="162" y="413" text-anchor="end" class="zeroone">0</text>
<line x1="172" y1="383" x2="654" y2="383" class="axis"/>
<line x1="172" y1="409" x2="654" y2="409" class="axis"/>
<path d="M 190 409 H 248 H 306 V 383 H 364 V 409 H 422 H 480 V 383 H 538 V 409 H 596 H 654" class="wave"/>
</svg>