<svg xmlns="http://www.w3.org/2000/svg" width="1154" height="458" viewBox="0 0 1154 458">
<style>
text{font-family:Arial,Helvetica,sans-serif;font-size:13px;fill:#172033}
.title{font-size:18px;font-weight:700}
.label{font-weight:700}
.grid{stroke:#d9dee8;stroke-width:1}
.axis{stroke:#aeb7c7;stroke-width:1}
.wave{fill:none;stroke:#1c5aa6;stroke-width:3;stroke-linejoin:round;stroke-linecap:round}
.zeroone{font-size:11px;fill:#657086}
</style>
<text x="190" y="30" class="title">Task 2: f = (((A IMPL B) AND C) EQUIV (A NAND D))</text>
<text x="219.0" y="50" text-anchor="middle" class="zeroone">0000</text>
<line x1="190" y1="40" x2="190" y2="408" class="grid"/>
<text x="277.0" y="50" text-anchor="middle" class="zeroone">0001</text>
<line x1="248" y1="40" x2="248" y2="408" class="grid"/>
<text x="335.0" y="50" text-anchor="middle" class="zeroone">0010</text>
<line x1="306" y1="40" x2="306" y2="408" class="grid"/>
<text x="393.0" y="50" text-anchor="middle" class="zeroone">0011</text>
<line x1="364" y1="40" x2="364" y2="408" class="grid"/>
<text x="451.0" y="50" text-anchor="middle" class="zeroone">0100</text>
<line x1="422" y1="40" x2="422" y2="408" class="grid"/>
<text x="509.0" y="50" text-anchor="middle" class="zeroone">0101</text>
<line x1="480" y1="40" x2="480" y2="408" class="grid"/>
<text x="567.0" y="50" text-anchor="middle" class="zeroone">0110</text>
<line x1="538" y1="40" x2="538" y2="408" class="grid"/>
<text x="625.0" y="50" text-anchor="middle" class="zeroone">0111</text>
<line x1="596" y1="40" x2="596" y2="408" class="grid"/>
<text x="683.0" y="50" text-anchor="middle" class="zeroone">1000</text>
<line x1="654" y1="40" x2="654" y2="408" class="grid"/>
<text x="741.0" y="50" text-anchor="middle" class="zeroone">1001</text>
<line x1="712" y1="40" x2="712" y2="408" class="grid"/>
<text x="799.0" y="50" text-anchor="middle" class="zeroone">1010</text>
<line x1="770" y1="40" x2="770" y2="408" class="grid"/>
<text x="857.0" y="50" text-anchor="middle" class="zeroone">1011</text>
<line x1="828" y1="40" x2="828" y2="408" class="grid"/>
<text x="915.0" y="50" text-anchor="middle" class="zeroone">1100</text>
<line x1="886" y1="40" x2="886" y2="408" class="grid"/>
<text x="973.0" y="50" text-anchor="middle" class="zeroone">1101</text>
<line x1="944" y1="40" x2="944" y2="408" class="grid"/>
<text x="1031.0" y="50" text-anchor="middle" class="zeroone">1110</text>
<line x1="1002" y1="40" x2="1002" y2="408" class="grid"/>
<text x="1089.0" y="50" text-anchor="middle" class="zeroone">1111</text>
<line x1="1060" y1="40" x2="1060" y2="408" class="grid"/>
<line x1="1118" y1="40" x2="1118" y2="408" class="grid"/>
<text x="18" y="93" class="label">A</text>
<text x="162" y="79" text-anchor="end" class="zeroone">1</text>
<text x="162" y="105" text-anchor="end" class="zeroone">0</text>
<line x1="172" y1="75" x2="1118" y2="75" class="axis"/>
<line x1="172" y1="101" x2="1118" y2="101" class="axis"/>
<path d="M 190 101 H 248 H 306 H 364 H 422 H 480 H 538 H 596 H 654 V 75 H 712 H 770 H 828 H 886 H 944 H 1002 H 1060 H 1118" class="wave"/>
<text x="18" y="137" class="label">B</text>
<text x="162" y="123" text-anchor="end" class="zeroone">1</text>
<text x="162" y="149" text-anchor="end" class="zeroone">0</text>
<line x1="172" y1="119" x2="1118" y2="119" class="axis"/>
<line x1="172" y1="145" x2="1118" y2="145" class="axis"/>
<path d="M 190 145 H 248 H 306 H 364 H 422 V 119 H 480 H 538 H 596 H 654 V 145 H 712 H 770 H 828 H 886 V 119 H 944 H 1002 H 1060 H 1118" class="wave"/>
<text x="18" y="181" class="label">C</text>
<text x="162" y="167" text-anchor="end" class="zeroone">1</text>
<text x="162" y="193" text-anchor="end" class="zeroone">0</text>
<line x1="172" y1="163" x2="1118" y2="163" class="axis"/>
<line x1="172" y1="189" x2="1118" y2="189" class="axis"/>
<path d="M 190 189 H 248 H 306 V 163 H 364 H 422 V 189 H 480 H 538 V 163 H 596 H 654 V 189 H 712 H 770 V 163 H 828 H 886 V 189 H 944 H 1002 V 163 H 1060 H 1118" class="wave"/>
<text x="18" y="225" class="label">D</text>
<text x="162" y="211" text-anchor="end" class="zeroone">1</text>
<text x="162" y="237" text-anchor="end" class="zeroone">0</text>
<line x1="172" y1="207" x2="1118" y2="207" class="axis"/>
<line x1="172" y1="233" x2="1118" y2="233" class="axis"/>
<path d="M 190 233 H 248 V 207 H 306 V 233 H 364 V 207 H 422 V 233 H 480 V 207 H 538 V 233 H 596 V 207 H 654 V 233 H 712 V 207 H 770 V 233 H 828 V 207 H 886 V 233 H 944 V 207 H 1002 V 233 H 1060 V 207 H 1118" class="wave"/>
<text x="18" y="269" class="label">A IMPL B</text>
<text x="162" y="255" text-anchor="end" class="zeroone">1</text>
<text x="162" y="281" text-anchor="end" class="zeroone">0</text>
<line x1="172" y1="251" x2="1118" y2="251" class="axis"/>
<line x1="172" y1="277" x2="1118" y2="277" class="axis"/>
<path d="M 190 251 H 248 H 306 H 364 H 422 H 480 H 538 H 596 H 654 V 277 H 712 H 770 H 828 H 886 V 251 H 944 H 1002 H 1060 H 1118" class="wave"/>
<text x="18" y="313" class="label">(A IMPL B) AND C</text>
<text x="162" y="299" text-anchor="end" class="zeroone">1</text>
<text x="162" y="325" text-anchor="end" class="zeroone">0</text>
<line x1="172" y1="295" x2="1118" y2="295" class="axis"/>
<line x1="172" y1="321" x2="1118" y2="321" class="axis"/>
<path d="M 190 321 H 248 H 306 V 295 H 364 H 422 V 321 H 480 H 538 V 295 H 596 H 654 V 321 H 712 H 770 H 828 H 886 H 944 H 1002 V 295 H 1060 H 1118" class="wave"/>
<text x="18" y="357" class="label">A NAND D</text>
<text x="162" y="343" text-anchor="end" class="zeroone">1</text>
<text x="162" y="369" text-anchor="end" class="zeroone">0</text>
<line x1="172" y1="339" x2="1118" y2="339" class="axis"/>
<line x1="172" y1="365" x2="1118" y2="365" class="axis"/>
<path d="M 190 339 H 248 H 306 H 364 H 422 H 480 H 538 H 596 H 654 H 712 V 365 H 770 V 339 H 828 V 365 H 886 V 339 H 944 V 365 H 1002 V 339 H 1060 V 365 H 1118" class="wave"/>
<text x="18" y="401" class="label">f</text>
<text x="162" y="387" text-anchor="end" class="zeroone">1</text>
<text x="162" y="413" text-anchor="end" class="zeroone">0</text>
<line x1="172" y1="383" x2="1118" y2="383" class="axis"/>
<line x1="172" y1="409" x2="1118" y2="409" class="axis"/>
<path d="M 190 409 H 248 H 306 V 383 H 364 H 422 V 409 H 480 H 538 V 383 H 596 H 654 V 409 H 712 V 383 H 770 V 409 H 828 V 383 H 886 V 409 H 944 V 383 H 1002 H 1060 V 409 H 1118" class="wave"/>
</svg>