<svg xmlns="http://www.w3.org/2000/svg" width="1040" height="610" viewBox="0 0 1040 610">
<style>
text{font-family:Arial,Helvetica,sans-serif;fill:#172033}
.node{fill:#ffffff;stroke:#172033;stroke-width:2}
.edge{stroke:#9aa5b5;stroke-width:1.8}
.tree{stroke:#1f7a3f;stroke-width:4}
.label{font-size:13px;font-weight:700;paint-order:stroke;stroke:#fff;stroke-width:4px;stroke-linejoin:round}
.nodeText{font-size:15px;font-weight:700}
</style>
<text x="28" y="28" class="nodeText">Variant 6: minimum spanning tree</text>
<line x1="70" y1="285" x2="170" y2="80" class="tree"/>
<text x="120.0" y="177.5" text-anchor="middle" class="label">3</text>
<line x1="70" y1="285" x2="205" y2="170" class="edge"/>
<text x="137.5" y="222.5" text-anchor="middle" class="label">3</text>
<line x1="70" y1="285" x2="215" y2="270" class="edge"/>
<text x="142.5" y="272.5" text-anchor="middle" class="label">3</text>
<line x1="70" y1="285" x2="245" y2="355" class="edge"/>
<text x="157.5" y="315.0" text-anchor="middle" class="label">3</text>
<line x1="170" y1="80" x2="455" y2="70" class="tree"/>
<text x="312.5" y="70.0" text-anchor="middle" class="label">2</text>
<line x1="170" y1="80" x2="660" y2="430" class="tree"/>
<text x="415.0" y="250.0" text-anchor="middle" class="label">2</text>
<line x1="205" y1="170" x2="455" y2="70" class="tree"/>
<text x="330.0" y="115.0" text-anchor="middle" class="label">1</text>
<line x1="205" y1="170" x2="580" y2="245" class="tree"/>
<text x="392.5" y="202.5" text-anchor="middle" class="label">2</text>
<line x1="215" y1="270" x2="455" y2="70" class="tree"/>
<text x="335.0" y="165.0" text-anchor="middle" class="label">1</text>
<line x1="215" y1="270" x2="580" y2="245" class="edge"/>
<text x="397.5" y="252.5" text-anchor="middle" class="label">2</text>
<line x1="245" y1="355" x2="580" y2="245" class="tree"/>
<text x="412.5" y="295.0" text-anchor="middle" class="label">1</text>
<line x1="245" y1="355" x2="660" y2="430" class="edge"/>
<text x="452.5" y="387.5" text-anchor="middle" class="label">3</text>
<line x1="455" y1="70" x2="805" y2="90" class="edge"/>
<text x="630.0" y="75.0" text-anchor="middle" class="label">3</text>
<line x1="455" y1="70" x2="815" y2="170" class="tree"/>
<text x="635.0" y="115.0" text-anchor="middle" class="label">2</text>
<line x1="580" y1="245" x2="805" y2="90" class="tree"/>
<text x="692.5" y="162.5" text-anchor="middle" class="label">1</text>
<line x1="580" y1="245" x2="830" y2="320" class="edge"/>
<text x="705.0" y="277.5" text-anchor="middle" class="label">2</text>
<line x1="580" y1="245" x2="895" y2="440" class="tree"/>
<text x="737.5" y="337.5" text-anchor="middle" class="label">1</text>
<line x1="660" y1="430" x2="815" y2="170" class="edge"/>
<text x="737.5" y="295.0" text-anchor="middle" class="label">2</text>
<line x1="660" y1="430" x2="830" y2="320" class="tree"/>
<text x="745.0" y="370.0" text-anchor="middle" class="label">1</text>
<line x1="660" y1="430" x2="895" y2="440" class="edge"/>
<text x="777.5" y="430.0" text-anchor="middle" class="label">3</text>
<line x1="805" y1="90" x2="995" y2="245" class="edge"/>
<text x="900.0" y="162.5" text-anchor="middle" class="label">4</text>
<line x1="815" y1="170" x2="995" y2="245" class="tree"/>
<text x="905.0" y="202.5" text-anchor="middle" class="label">3</text>
<line x1="830" y1="320" x2="995" y2="245" class="edge"/>
<text x="912.5" y="277.5" text-anchor="middle" class="label">4</text>
<line x1="895" y1="440" x2="995" y2="245" class="edge"/>
<text x="945.0" y="337.5" text-anchor="middle" class="label">3</text>
<circle cx="70" cy="285" r="15" class="node"/>
<text x="70" y="290" text-anchor="middle" class="nodeText">x1</text>
<circle cx="170" cy="80" r="15" class="node"/>
<text x="170" y="85" text-anchor="middle" class="nodeText">x2</text>
<circle cx="205" cy="170" r="15" class="node"/>
<text x="205" y="175" text-anchor="middle" class="nodeText">x3</text>
<circle cx="215" cy="270" r="15" class="node"/>
<text x="215" y="275" text-anchor="middle" class="nodeText">x4</text>
<circle cx="245" cy="355" r="15" class="node"/>
<text x="245" y="360" text-anchor="middle" class="nodeText">x5</text>
<circle cx="455" cy="70" r="15" class="node"/>
<text x="455" y="75" text-anchor="middle" class="nodeText">x6</text>
<circle cx="580" cy="245" r="15" class="node"/>
<text x="580" y="250" text-anchor="middle" class="nodeText">x7</text>
<circle cx="660" cy="430" r="15" class="node"/>
<text x="660" y="435" text-anchor="middle" class="nodeText">x8</text>
<circle cx="805" cy="90" r="15" class="node"/>
<text x="805" y="95" text-anchor="middle" class="nodeText">x9</text>
<circle cx="815" cy="170" r="15" class="node"/>
<text x="815" y="175" text-anchor="middle" class="nodeText">x10</text>
<circle cx="830" cy="320" r="15" class="node"/>
<text x="830" y="325" text-anchor="middle" class="nodeText">x11</text>
<circle cx="895" cy="440" r="15" class="node"/>
<text x="895" y="445" text-anchor="middle" class="nodeText">x12</text>
<circle cx="995" cy="245" r="15" class="node"/>
<text x="995" y="250" text-anchor="middle" class="nodeText">x13</text>
</svg>