<svg xmlns="http://www.w3.org/2000/svg" width="1000" height="620" viewBox="0 0 1000 620">
<defs><marker id="arrow" markerWidth="10" markerHeight="8" refX="9" refY="4" orient="auto" markerUnits="strokeWidth"><path d="M0,0 L10,4 L0,8 z" fill="#40556f"/></marker><marker id="arrowRed" markerWidth="10" markerHeight="8" refX="9" refY="4" orient="auto" markerUnits="strokeWidth"><path d="M0,0 L10,4 L0,8 z" fill="#c23030"/></marker></defs>
<rect width="1000" height="620" fill="#ffffff"/>
<style>text{font-family:Arial,sans-serif}.node{font-size:16px;font-weight:700;fill:#111827}.edge{font-size:13px;fill:#111827}.title{font-size:18px;font-weight:700;fill:#111827}.small{font-size:13px;fill:#334155}</style>
<text x="35" y="34" class="title">Варіант 5: максимальний потік d* = 9</text>
<line x1="70" y1="315" x2="205" y2="105" stroke="#c23030" stroke-width="3.2" opacity="0.82" stroke-dasharray="7 5" marker-end="url(#arrowRed)"/>
<line x1="70" y1="315" x2="210" y2="300" stroke="#c23030" stroke-width="3.2" opacity="0.82" stroke-dasharray="7 5" marker-end="url(#arrowRed)"/>
<line x1="70" y1="315" x2="250" y2="530" stroke="#c23030" stroke-width="3.2" opacity="0.82" stroke-dasharray="7 5" marker-end="url(#arrowRed)"/>
<line x1="205" y1="105" x2="390" y2="105" stroke="#40556f" stroke-width="3.2" opacity="0.82" marker-end="url(#arrow)"/>
<line x1="205" y1="105" x2="625" y2="295" stroke="#40556f" stroke-width="3.2" opacity="0.82" marker-end="url(#arrow)"/>
<line x1="210" y1="300" x2="390" y2="105" stroke="#40556f" stroke-width="3.2" opacity="0.82" marker-end="url(#arrow)"/>
<line x1="210" y1="300" x2="425" y2="300" stroke="#40556f" stroke-width="3.2" opacity="0.82" marker-end="url(#arrow)"/>
<line x1="210" y1="300" x2="430" y2="530" stroke="#40556f" stroke-width="1.7" opacity="0.82" marker-end="url(#arrow)"/>
<line x1="250" y1="530" x2="425" y2="300" stroke="#40556f" stroke-width="3.2" opacity="0.82" marker-end="url(#arrow)"/>
<line x1="250" y1="530" x2="430" y2="530" stroke="#40556f" stroke-width="3.2" opacity="0.82" marker-end="url(#arrow)"/>
<line x1="390" y1="105" x2="590" y2="105" stroke="#40556f" stroke-width="3.2" opacity="0.82" marker-end="url(#arrow)"/>
<line x1="425" y1="300" x2="590" y2="105" stroke="#40556f" stroke-width="3.2" opacity="0.82" marker-end="url(#arrow)"/>
<line x1="425" y1="300" x2="625" y2="295" stroke="#40556f" stroke-width="3.2" opacity="0.82" marker-end="url(#arrow)"/>
<line x1="425" y1="300" x2="650" y2="530" stroke="#40556f" stroke-width="3.2" opacity="0.82" marker-end="url(#arrow)"/>
<line x1="430" y1="530" x2="650" y2="530" stroke="#40556f" stroke-width="3.2" opacity="0.82" marker-end="url(#arrow)"/>
<line x1="590" y1="105" x2="790" y2="190" stroke="#40556f" stroke-width="3.2" opacity="0.82" marker-end="url(#arrow)"/>
<line x1="590" y1="105" x2="930" y2="315" stroke="#40556f" stroke-width="3.2" opacity="0.82" marker-end="url(#arrow)"/>
<line x1="625" y1="295" x2="790" y2="190" stroke="#40556f" stroke-width="3.2" opacity="0.82" marker-end="url(#arrow)"/>
<line x1="625" y1="295" x2="790" y2="370" stroke="#40556f" stroke-width="3.2" opacity="0.82" marker-end="url(#arrow)"/>
<line x1="650" y1="530" x2="790" y2="370" stroke="#40556f" stroke-width="3.2" opacity="0.82" marker-end="url(#arrow)"/>
<line x1="650" y1="530" x2="805" y2="530" stroke="#40556f" stroke-width="3.2" opacity="0.82" marker-end="url(#arrow)"/>
<line x1="790" y1="190" x2="930" y2="315" stroke="#40556f" stroke-width="3.2" opacity="0.82" marker-end="url(#arrow)"/>
<line x1="790" y1="370" x2="930" y2="315" stroke="#40556f" stroke-width="3.2" opacity="0.82" marker-end="url(#arrow)"/>
<line x1="805" y1="530" x2="930" y2="315" stroke="#40556f" stroke-width="3.2" opacity="0.82" marker-end="url(#arrow)"/>
<rect x="98.5" y="190.0" width="38" height="18" rx="3" fill="#ffffff" opacity="0.82"/>
<text x="117.5" y="204.0" text-anchor="middle" class="edge">3/3</text>
<rect x="103.0" y="281.5" width="38" height="18" rx="3" fill="#ffffff" opacity="0.82"/>
<text x="122.0" y="295.5" text-anchor="middle" class="edge">3/3</text>
<rect x="121.0" y="416.5" width="38" height="18" rx="3" fill="#ffffff" opacity="0.82"/>
<text x="140.0" y="430.5" text-anchor="middle" class="edge">3/3</text>
<rect x="278.5" y="83.0" width="38" height="18" rx="3" fill="#ffffff" opacity="0.82"/>
<text x="297.5" y="97.0" text-anchor="middle" class="edge">2/2</text>
<rect x="396.0" y="162.0" width="38" height="18" rx="3" fill="#ffffff" opacity="0.82"/>
<text x="415.0" y="176.0" text-anchor="middle" class="edge">1/1</text>
<rect x="281.0" y="180.5" width="38" height="18" rx="3" fill="#ffffff" opacity="0.82"/>
<text x="300.0" y="194.5" text-anchor="middle" class="edge">2/2</text>
<rect x="298.5" y="278.0" width="38" height="18" rx="3" fill="#ffffff" opacity="0.82"/>
<text x="317.5" y="292.0" text-anchor="middle" class="edge">1/1</text>
<rect x="301.0" y="393.0" width="38" height="18" rx="3" fill="#ffffff" opacity="0.82"/>
<text x="320.0" y="407.0" text-anchor="middle" class="edge">0/7</text>
<rect x="318.5" y="393.0" width="38" height="18" rx="3" fill="#ffffff" opacity="0.82"/>
<text x="337.5" y="407.0" text-anchor="middle" class="edge">2/3</text>
<rect x="321.0" y="508.0" width="38" height="18" rx="3" fill="#ffffff" opacity="0.82"/>
<text x="340.0" y="522.0" text-anchor="middle" class="edge">1/2</text>
<rect x="471.0" y="83.0" width="38" height="18" rx="3" fill="#ffffff" opacity="0.82"/>
<text x="490.0" y="97.0" text-anchor="middle" class="edge">4/4</text>
<rect x="488.5" y="180.5" width="38" height="18" rx="3" fill="#ffffff" opacity="0.82"/>
<text x="507.5" y="194.5" text-anchor="middle" class="edge">1/2</text>
<rect x="506.0" y="275.5" width="38" height="18" rx="3" fill="#ffffff" opacity="0.82"/>
<text x="525.0" y="289.5" text-anchor="middle" class="edge">1/1</text>
<rect x="518.5" y="393.0" width="38" height="18" rx="3" fill="#ffffff" opacity="0.82"/>
<text x="537.5" y="407.0" text-anchor="middle" class="edge">1/1</text>
<rect x="521.0" y="508.0" width="38" height="18" rx="3" fill="#ffffff" opacity="0.82"/>
<text x="540.0" y="522.0" text-anchor="middle" class="edge">1/3</text>
<rect x="671.0" y="125.5" width="38" height="18" rx="3" fill="#ffffff" opacity="0.82"/>
<text x="690.0" y="139.5" text-anchor="middle" class="edge">3/4</text>
<rect x="741.0" y="178.0" width="38" height="18" rx="3" fill="#ffffff" opacity="0.82"/>
<text x="760.0" y="192.0" text-anchor="middle" class="edge">2/2</text>
<rect x="688.5" y="220.5" width="38" height="18" rx="3" fill="#ffffff" opacity="0.82"/>
<text x="707.5" y="234.5" text-anchor="middle" class="edge">1/2</text>
<rect x="688.5" y="310.5" width="38" height="18" rx="3" fill="#ffffff" opacity="0.82"/>
<text x="707.5" y="324.5" text-anchor="middle" class="edge">1/2</text>
<rect x="701.0" y="428.0" width="38" height="18" rx="3" fill="#ffffff" opacity="0.82"/>
<text x="720.0" y="442.0" text-anchor="middle" class="edge">1/2</text>
<rect x="708.5" y="508.0" width="38" height="18" rx="3" fill="#ffffff" opacity="0.82"/>
<text x="727.5" y="522.0" text-anchor="middle" class="edge">1/1</text>
<rect x="861.0" y="233.5" width="38" height="18" rx="3" fill="#ffffff" opacity="0.82"/>
<text x="880.0" y="247.5" text-anchor="middle" class="edge">4/4</text>
<rect x="841.0" y="320.5" width="38" height="18" rx="3" fill="#ffffff" opacity="0.82"/>
<text x="860.0" y="334.5" text-anchor="middle" class="edge">2/2</text>
<rect x="870.5" y="418.5" width="38" height="18" rx="3" fill="#ffffff" opacity="0.82"/>
<text x="889.5" y="432.5" text-anchor="middle" class="edge">1/1</text>
<circle cx="70" cy="315" r="23" fill="#f4c95d" stroke="#111827" stroke-width="1.5"/>
<text x="70" y="321" text-anchor="middle" class="node">x1</text>
<circle cx="205" cy="105" r="23" fill="#dbeafe" stroke="#111827" stroke-width="1.5"/>
<text x="205" y="111" text-anchor="middle" class="node">x2</text>
<circle cx="210" cy="300" r="23" fill="#dbeafe" stroke="#111827" stroke-width="1.5"/>
<text x="210" y="306" text-anchor="middle" class="node">x3</text>
<circle cx="250" cy="530" r="23" fill="#dbeafe" stroke="#111827" stroke-width="1.5"/>
<text x="250" y="536" text-anchor="middle" class="node">x4</text>
<circle cx="390" cy="105" r="23" fill="#dbeafe" stroke="#111827" stroke-width="1.5"/>
<text x="390" y="111" text-anchor="middle" class="node">x5</text>
<circle cx="425" cy="300" r="23" fill="#dbeafe" stroke="#111827" stroke-width="1.5"/>
<text x="425" y="306" text-anchor="middle" class="node">x6</text>
<circle cx="430" cy="530" r="23" fill="#dbeafe" stroke="#111827" stroke-width="1.5"/>
<text x="430" y="536" text-anchor="middle" class="node">x7</text>
<circle cx="590" cy="105" r="23" fill="#dbeafe" stroke="#111827" stroke-width="1.5"/>
<text x="590" y="111" text-anchor="middle" class="node">x8</text>
<circle cx="625" cy="295" r="23" fill="#dbeafe" stroke="#111827" stroke-width="1.5"/>
<text x="625" y="301" text-anchor="middle" class="node">x9</text>
<circle cx="650" cy="530" r="23" fill="#dbeafe" stroke="#111827" stroke-width="1.5"/>
<text x="650" y="536" text-anchor="middle" class="node">x10</text>
<circle cx="790" cy="190" r="23" fill="#dbeafe" stroke="#111827" stroke-width="1.5"/>
<text x="790" y="196" text-anchor="middle" class="node">x11</text>
<circle cx="790" cy="370" r="23" fill="#dbeafe" stroke="#111827" stroke-width="1.5"/>
<text x="790" y="376" text-anchor="middle" class="node">x12</text>
<circle cx="805" cy="530" r="23" fill="#dbeafe" stroke="#111827" stroke-width="1.5"/>
<text x="805" y="536" text-anchor="middle" class="node">x13</text>
<circle cx="930" cy="315" r="23" fill="#8fd0a9" stroke="#111827" stroke-width="1.5"/>
<text x="930" y="321" text-anchor="middle" class="node">x14</text>
<line x1="735" y1="575" x2="800" y2="575" stroke="#c23030" stroke-width="3.2" stroke-dasharray="7 5" marker-end="url(#arrowRed)"/>
<text x="815" y="580" class="small">дуги мінімального розрізу</text>
</svg>