<svg xmlns="http://www.w3.org/2000/svg" width="920" height="620" viewBox="0 0 920 620">
<rect width="920" height="620" fill="#ffffff"/>
<style>text{font-family:Arial,sans-serif}.label{font-size:16px;font-weight:700;fill:#1f2933}.legend{font-size:14px;fill:#1f2933}</style>
<line x1="130" y1="130" x2="270" y2="80" stroke="#c23030" stroke-width="2.4" stroke-dasharray="7 5" opacity="0.9"/>
<line x1="130" y1="130" x2="410" y2="80" stroke="#c23030" stroke-width="2.4" stroke-dasharray="7 5" opacity="0.9"/>
<line x1="130" y1="130" x2="550" y2="80" stroke="#9aa5b1" stroke-width="1.4" opacity="0.42"/>
<line x1="130" y1="130" x2="690" y2="130" stroke="#9aa5b1" stroke-width="1.4" opacity="0.42"/>
<line x1="130" y1="130" x2="190" y2="290" stroke="#c23030" stroke-width="2.4" stroke-dasharray="7 5" opacity="0.9"/>
<line x1="130" y1="130" x2="330" y2="245" stroke="#c23030" stroke-width="2.4" stroke-dasharray="7 5" opacity="0.9"/>
<line x1="130" y1="130" x2="210" y2="470" stroke="#c23030" stroke-width="2.4" stroke-dasharray="7 5" opacity="0.9"/>
<line x1="130" y1="130" x2="350" y2="520" stroke="#c23030" stroke-width="2.4" stroke-dasharray="7 5" opacity="0.9"/>
<line x1="270" y1="80" x2="410" y2="80" stroke="#9aa5b1" stroke-width="1.4" opacity="0.42"/>
<line x1="270" y1="80" x2="550" y2="80" stroke="#c23030" stroke-width="2.4" stroke-dasharray="7 5" opacity="0.9"/>
<line x1="270" y1="80" x2="690" y2="130" stroke="#c23030" stroke-width="2.4" stroke-dasharray="7 5" opacity="0.9"/>
<line x1="270" y1="80" x2="190" y2="290" stroke="#9aa5b1" stroke-width="1.4" opacity="0.42"/>
<line x1="270" y1="80" x2="330" y2="245" stroke="#9aa5b1" stroke-width="1.4" opacity="0.42"/>
<line x1="270" y1="80" x2="470" y2="245" stroke="#9aa5b1" stroke-width="1.4" opacity="0.42"/>
<line x1="270" y1="80" x2="350" y2="520" stroke="#c23030" stroke-width="2.4" stroke-dasharray="7 5" opacity="0.9"/>
<line x1="410" y1="80" x2="550" y2="80" stroke="#c23030" stroke-width="2.4" stroke-dasharray="7 5" opacity="0.9"/>
<line x1="410" y1="80" x2="690" y2="130" stroke="#c23030" stroke-width="2.4" stroke-dasharray="7 5" opacity="0.9"/>
<line x1="410" y1="80" x2="330" y2="245" stroke="#9aa5b1" stroke-width="1.4" opacity="0.42"/>
<line x1="410" y1="80" x2="470" y2="245" stroke="#9aa5b1" stroke-width="1.4" opacity="0.42"/>
<line x1="410" y1="80" x2="610" y2="245" stroke="#c23030" stroke-width="2.4" stroke-dasharray="7 5" opacity="0.9"/>
<line x1="410" y1="80" x2="490" y2="520" stroke="#c23030" stroke-width="2.4" stroke-dasharray="7 5" opacity="0.9"/>
<line x1="550" y1="80" x2="690" y2="130" stroke="#9aa5b1" stroke-width="1.4" opacity="0.42"/>
<line x1="550" y1="80" x2="470" y2="245" stroke="#c23030" stroke-width="2.4" stroke-dasharray="7 5" opacity="0.9"/>
<line x1="550" y1="80" x2="610" y2="245" stroke="#c23030" stroke-width="2.4" stroke-dasharray="7 5" opacity="0.9"/>
<line x1="550" y1="80" x2="750" y2="290" stroke="#9aa5b1" stroke-width="1.4" opacity="0.42"/>
<line x1="550" y1="80" x2="630" y2="520" stroke="#c23030" stroke-width="2.4" stroke-dasharray="7 5" opacity="0.9"/>
<line x1="690" y1="130" x2="750" y2="290" stroke="#9aa5b1" stroke-width="1.4" opacity="0.42"/>
<line x1="690" y1="130" x2="770" y2="470" stroke="#9aa5b1" stroke-width="1.4" opacity="0.42"/>
<line x1="190" y1="290" x2="330" y2="245" stroke="#9aa5b1" stroke-width="1.4" opacity="0.42"/>
<line x1="190" y1="290" x2="470" y2="245" stroke="#9aa5b1" stroke-width="1.4" opacity="0.42"/>
<line x1="190" y1="290" x2="610" y2="245" stroke="#c23030" stroke-width="2.4" stroke-dasharray="7 5" opacity="0.9"/>
<line x1="190" y1="290" x2="750" y2="290" stroke="#c23030" stroke-width="2.4" stroke-dasharray="7 5" opacity="0.9"/>
<line x1="190" y1="290" x2="210" y2="470" stroke="#c23030" stroke-width="2.4" stroke-dasharray="7 5" opacity="0.9"/>
<line x1="330" y1="245" x2="470" y2="245" stroke="#9aa5b1" stroke-width="1.4" opacity="0.42"/>
<line x1="330" y1="245" x2="610" y2="245" stroke="#c23030" stroke-width="2.4" stroke-dasharray="7 5" opacity="0.9"/>
<line x1="330" y1="245" x2="750" y2="290" stroke="#c23030" stroke-width="2.4" stroke-dasharray="7 5" opacity="0.9"/>
<line x1="330" y1="245" x2="350" y2="520" stroke="#c23030" stroke-width="2.4" stroke-dasharray="7 5" opacity="0.9"/>
<line x1="470" y1="245" x2="610" y2="245" stroke="#c23030" stroke-width="2.4" stroke-dasharray="7 5" opacity="0.9"/>
<line x1="470" y1="245" x2="750" y2="290" stroke="#c23030" stroke-width="2.4" stroke-dasharray="7 5" opacity="0.9"/>
<line x1="470" y1="245" x2="490" y2="520" stroke="#c23030" stroke-width="2.4" stroke-dasharray="7 5" opacity="0.9"/>
<line x1="610" y1="245" x2="750" y2="290" stroke="#c23030" stroke-width="2.4" stroke-dasharray="7 5" opacity="0.9"/>
<line x1="610" y1="245" x2="630" y2="520" stroke="#9aa5b1" stroke-width="1.4" opacity="0.42"/>
<line x1="750" y1="290" x2="770" y2="470" stroke="#9aa5b1" stroke-width="1.4" opacity="0.42"/>
<line x1="210" y1="470" x2="350" y2="520" stroke="#9aa5b1" stroke-width="1.4" opacity="0.42"/>
<line x1="210" y1="470" x2="490" y2="520" stroke="#9aa5b1" stroke-width="1.4" opacity="0.42"/>
<line x1="210" y1="470" x2="630" y2="520" stroke="#9aa5b1" stroke-width="1.4" opacity="0.42"/>
<line x1="210" y1="470" x2="770" y2="470" stroke="#c23030" stroke-width="2.4" stroke-dasharray="7 5" opacity="0.9"/>
<line x1="350" y1="520" x2="490" y2="520" stroke="#9aa5b1" stroke-width="1.4" opacity="0.42"/>
<line x1="350" y1="520" x2="630" y2="520" stroke="#9aa5b1" stroke-width="1.4" opacity="0.42"/>
<line x1="350" y1="520" x2="770" y2="470" stroke="#c23030" stroke-width="2.4" stroke-dasharray="7 5" opacity="0.9"/>
<line x1="490" y1="520" x2="630" y2="520" stroke="#9aa5b1" stroke-width="1.4" opacity="0.42"/>
<line x1="490" y1="520" x2="770" y2="470" stroke="#c23030" stroke-width="2.4" stroke-dasharray="7 5" opacity="0.9"/>
<line x1="630" y1="520" x2="770" y2="470" stroke="#c23030" stroke-width="2.4" stroke-dasharray="7 5" opacity="0.9"/>
<circle cx="130" cy="130" r="24" fill="#4f86c6" stroke="#1f2933" stroke-width="1.5"/>
<text x="130" y="136" text-anchor="middle" class="label">x1</text>
<circle cx="270" cy="80" r="24" fill="#2f9d78" stroke="#1f2933" stroke-width="1.5"/>
<text x="270" y="86" text-anchor="middle" class="label">x2</text>
<circle cx="410" cy="80" r="24" fill="#2f9d78" stroke="#1f2933" stroke-width="1.5"/>
<text x="410" y="86" text-anchor="middle" class="label">x3</text>
<circle cx="550" cy="80" r="24" fill="#4f86c6" stroke="#1f2933" stroke-width="1.5"/>
<text x="550" y="86" text-anchor="middle" class="label">x4</text>
<circle cx="690" cy="130" r="24" fill="#4f86c6" stroke="#1f2933" stroke-width="1.5"/>
<text x="690" y="136" text-anchor="middle" class="label">x5</text>
<circle cx="190" cy="290" r="24" fill="#2f9d78" stroke="#1f2933" stroke-width="1.5"/>
<text x="190" y="296" text-anchor="middle" class="label">x6</text>
<circle cx="330" cy="245" r="24" fill="#2f9d78" stroke="#1f2933" stroke-width="1.5"/>
<text x="330" y="251" text-anchor="middle" class="label">x7</text>
<circle cx="470" cy="245" r="24" fill="#2f9d78" stroke="#1f2933" stroke-width="1.5"/>
<text x="470" y="251" text-anchor="middle" class="label">x8</text>
<circle cx="610" cy="245" r="24" fill="#d9822b" stroke="#1f2933" stroke-width="1.5"/>
<text x="610" y="251" text-anchor="middle" class="label">x9</text>
<circle cx="750" cy="290" r="24" fill="#4f86c6" stroke="#1f2933" stroke-width="1.5"/>
<text x="750" y="296" text-anchor="middle" class="label">x10</text>
<circle cx="210" cy="470" r="24" fill="#d9822b" stroke="#1f2933" stroke-width="1.5"/>
<text x="210" y="476" text-anchor="middle" class="label">x11</text>
<circle cx="350" cy="520" r="24" fill="#d9822b" stroke="#1f2933" stroke-width="1.5"/>
<text x="350" y="526" text-anchor="middle" class="label">x12</text>
<circle cx="490" cy="520" r="24" fill="#d9822b" stroke="#1f2933" stroke-width="1.5"/>
<text x="490" y="526" text-anchor="middle" class="label">x13</text>
<circle cx="630" cy="520" r="24" fill="#d9822b" stroke="#1f2933" stroke-width="1.5"/>
<text x="630" y="526" text-anchor="middle" class="label">x14</text>
<circle cx="770" cy="470" r="24" fill="#4f86c6" stroke="#1f2933" stroke-width="1.5"/>
<text x="770" y="476" text-anchor="middle" class="label">x15</text>
<rect x="35" y="559" width="24" height="16" rx="3" fill="#4f86c6"/>
<text x="67" y="572" class="legend">G1</text>
<rect x="215" y="559" width="24" height="16" rx="3" fill="#2f9d78"/>
<text x="247" y="572" class="legend">G2</text>
<rect x="395" y="559" width="24" height="16" rx="3" fill="#d9822b"/>
<text x="427" y="572" class="legend">G3</text>
<line x1="600" y1="570" x2="655" y2="570" stroke="#c23030" stroke-width="2.4" stroke-dasharray="7 5"/>
<text x="665" y="575" class="legend">ребро розрізу</text>
</svg>