<?xml version="1.0" encoding="UTF-8"?>
<svg xmlns="http://www.w3.org/2000/svg" width="612pt" height="792pt" viewBox="0 0 612 792">
<rect x="0" y="0" width="612" height="792" fill="white"/>
<path d="M 302.048 55.057 L 303.968 55.897 L 304.088 55.897 L 304.088 49.65 C 304.088 49.17 304.088 48.93 304.088 48.81 C 304.208 48.69 304.208 48.69 304.328 48.57 C 304.448 48.57 304.688 48.57 305.048 48.57 L 305.048 48.33 L 302.168 48.33 L 302.168 48.57 C 302.528 48.57 302.768 48.57 302.888 48.57 C 303.008 48.69 303.128 48.69 303.128 48.81 C 303.128 48.93 303.128 49.17 303.128 49.65 L 303.128 53.617 C 303.128 54.217 303.128 54.577 303.128 54.697 C 303.128 54.817 303.008 54.937 303.008 54.937 C 302.888 55.057 302.888 55.057 302.768 55.057 C 302.648 55.057 302.408 55.057 302.168 54.937 L 302.048 55.057 Z" fill="rgb(0,0,0)" stroke="none"/>
<path d="M 306.855 52.057 C 306.855 52.897 306.975 53.617 307.215 54.217 C 307.455 54.817 307.815 55.297 308.295 55.537 C 308.535 55.777 308.895 55.897 309.255 55.897 C 309.855 55.897 310.335 55.657 310.823 55.057 C 311.423 54.337 311.663 53.377 311.663 52.177 C 311.663 51.217 311.543 50.497 311.303 49.89 C 311.063 49.29 310.695 48.81 310.335 48.57 C 309.975 48.33 309.615 48.21 309.255 48.21 C 308.535 48.21 307.935 48.57 307.455 49.41 C 306.975 50.13 306.855 50.977 306.855 52.057 Z M 307.935 51.817 C 307.935 50.857 308.055 50.01 308.295 49.29 C 308.535 48.81 308.775 48.57 309.255 48.57 C 309.375 48.57 309.615 48.57 309.855 48.81 C 310.095 48.93 310.215 49.29 310.335 49.65 C 310.455 50.37 310.575 51.217 310.575 52.417 C 310.575 53.257 310.455 53.977 310.335 54.457 C 310.215 54.937 309.975 55.177 309.855 55.417 C 309.615 55.537 309.495 55.537 309.255 55.537 C 309.015 55.537 308.775 55.417 308.535 55.297 C 308.295 54.937 308.175 54.457 308.055 53.857 C 307.935 53.137 307.935 52.537 307.935 51.817 Z" fill="rgb(0,0,0)" stroke="none"/>
<path d="M 123.067 723.232 L 123.067 722.272 L 121.86 722.272 L 121.86 719.985 L 120.78 719.985 L 120.78 722.272 L 117.052 722.272 L 117.052 723.112 L 121.14 728.88 L 121.86 728.88 L 121.86 723.232 L 123.067 723.232 Z M 120.78 723.232 L 120.78 727.44 L 117.78 723.232 L 120.78 723.232 Z" fill="rgb(0,0,0)" stroke="none"/>
<path d="M 124.147 726.952 C 124.387 727.56 124.747 728.04 125.107 728.4 C 125.467 728.64 125.947 728.88 126.547 728.88 C 127.267 728.88 127.755 728.64 128.115 728.16 C 128.355 727.8 128.595 727.44 128.595 727.072 C 128.595 726.472 128.115 725.752 127.395 725.152 C 127.875 724.912 128.235 724.552 128.595 724.192 C 128.835 723.832 128.955 723.352 128.955 722.872 C 128.955 722.152 128.715 721.432 128.235 720.952 C 127.635 720.225 126.667 719.865 125.587 719.865 C 124.987 719.865 124.507 719.865 124.387 719.985 C 124.147 720.225 124.027 720.352 124.027 720.472 C 124.027 720.592 124.027 720.712 124.147 720.832 C 124.267 720.952 124.387 720.952 124.507 720.952 C 124.627 720.952 124.747 720.952 124.867 720.952 C 124.987 720.952 125.107 720.832 125.347 720.712 C 125.587 720.592 125.827 720.472 125.947 720.472 C 126.067 720.352 126.187 720.352 126.427 720.352 C 126.787 720.352 127.267 720.592 127.515 720.832 C 127.875 721.192 127.995 721.672 127.995 722.032 C 127.995 722.392 127.995 722.752 127.755 723.112 C 127.635 723.352 127.515 723.472 127.395 723.592 C 127.267 723.832 127.027 723.952 126.667 724.072 C 126.307 724.192 126.067 724.312 125.707 724.312 L 125.467 724.312 L 125.467 724.432 C 125.827 724.552 126.187 724.672 126.547 724.792 C 126.787 725.032 127.147 725.272 127.267 725.512 C 127.395 725.872 127.515 726.112 127.515 726.472 C 127.515 726.952 127.395 727.32 127.027 727.56 C 126.787 727.8 126.427 727.92 126.067 727.92 C 125.347 727.92 124.867 727.56 124.387 726.952 L 124.147 726.952 Z" fill="rgb(0,0,0)" stroke="none"/>
<path d="M 131.715 721.192 C 131.955 721.192 132.075 721.192 132.195 720.952 C 132.315 720.832 132.435 720.712 132.435 720.472 C 132.435 720.352 132.315 720.112 132.195 719.992 C 132.075 719.872 131.955 719.752 131.715 719.752 C 131.595 719.752 131.355 719.872 131.227 719.992 C 131.107 720.112 130.987 720.352 130.987 720.472 C 130.987 720.712 131.107 720.832 131.227 721.072 C 131.355 721.192 131.475 721.192 131.715 721.192 Z" fill="rgb(0,0,0)" stroke="none"/>
<path d="M 269.588 723.232 L 269.588 722.272 L 268.388 722.272 L 268.388 719.992 L 267.308 719.992 L 267.308 722.272 L 263.7 722.272 L 263.7 723.112 L 267.668 728.88 L 268.388 728.88 L 268.388 723.232 L 269.588 723.232 Z M 267.308 723.232 L 267.308 727.44 L 264.3 723.232 L 267.308 723.232 Z" fill="rgb(0,0,0)" stroke="none"/>
<path d="M 276.082 723.232 L 276.082 722.272 L 274.995 722.272 L 274.995 719.985 L 273.915 719.985 L 273.915 722.272 L 270.187 722.272 L 270.187 723.112 L 274.275 728.88 L 274.995 728.88 L 274.995 723.232 L 276.082 723.232 Z M 273.915 723.232 L 273.915 727.44 L 270.915 723.232 L 273.915 723.232 Z" fill="rgb(0,0,0)" stroke="none"/>
<path d="M 278.242 721.192 C 278.482 721.192 278.602 721.192 278.722 720.952 C 278.962 720.832 278.962 720.712 278.962 720.472 C 278.962 720.352 278.962 720.105 278.722 719.985 C 278.602 719.865 278.482 719.745 278.242 719.745 C 278.122 719.745 277.882 719.865 277.762 719.985 C 277.642 720.105 277.522 720.352 277.522 720.472 C 277.522 720.712 277.642 720.832 277.762 721.072 C 277.882 721.192 278.122 721.192 278.242 721.192 Z" fill="rgb(0,0,0)" stroke="none"/>
<path d="M 416.235 723.232 L 416.235 722.272 L 415.147 722.272 L 415.147 719.985 L 414.067 719.985 L 414.067 722.272 L 410.34 722.272 L 410.34 723.112 L 414.427 728.88 L 415.147 728.88 L 415.147 723.232 L 416.235 723.232 Z M 414.067 723.232 L 414.067 727.44 L 411.067 723.232 L 414.067 723.232 Z" fill="rgb(0,0,0)" stroke="none"/>
<path d="M 422.482 728.64 L 422.002 727.56 L 419.362 727.56 L 418.762 726.352 C 419.962 726.232 420.802 725.872 421.522 725.152 C 422.002 724.552 422.362 723.832 422.362 723.112 C 422.362 722.632 422.242 722.272 422.002 721.792 C 421.882 721.432 421.642 721.072 421.402 720.832 C 421.042 720.592 420.802 720.352 420.442 720.225 C 419.962 719.985 419.482 719.865 418.882 719.865 C 418.402 719.865 418.035 719.865 417.795 720.105 C 417.555 720.225 417.435 720.472 417.435 720.712 C 417.435 720.832 417.435 720.952 417.555 720.952 C 417.675 721.072 417.795 721.072 417.915 721.072 C 418.035 721.072 418.155 721.072 418.282 721.072 C 418.282 721.072 418.402 720.952 418.642 720.832 C 419.002 720.592 419.242 720.472 419.602 720.472 C 420.082 720.472 420.562 720.712 420.922 721.072 C 421.282 721.432 421.522 721.912 421.522 722.392 C 421.522 722.992 421.282 723.472 421.042 723.952 C 420.682 724.312 420.202 724.672 419.602 724.912 C 419.122 725.152 418.522 725.272 417.675 725.272 L 419.362 728.64 L 422.482 728.64 Z" fill="rgb(0,0,0)" stroke="none"/>
<path d="M 425.01 721.192 C 425.25 721.192 425.37 721.192 425.49 720.952 C 425.61 720.832 425.73 720.712 425.73 720.472 C 425.73 720.352 425.61 720.112 425.49 719.992 C 425.37 719.872 425.25 719.752 425.01 719.752 C 424.77 719.752 424.65 719.872 424.53 719.992 C 424.41 720.112 424.29 720.352 424.29 720.472 C 424.29 720.712 424.41 720.832 424.53 721.072 C 424.65 721.192 424.77 721.192 425.01 721.192 Z" fill="rgb(0,0,0)" stroke="none"/>
<path d="M 92.76 732.84 L 526.68 732.84 L 526.68 732.36 L 92.76 732.36 Z" fill="rgb(0,0,0)" fill-rule="evenodd" stroke="none"/>
<path d="M 526.68 732.84 L 527.16 732.84 L 527.16 732.36 L 526.68 732.36 Z M 92.76 732.48 L 93.24 732.48 L 93.24 595.68 L 92.76 595.68 Z M 239.52 732.48 L 240 732.48 L 240 595.68 L 239.52 595.68 Z M 386.04 732.48 L 386.52 732.48 L 386.52 595.68 L 386.04 595.68 Z" fill="rgb(0,0,0)" fill-rule="evenodd" stroke="none"/>
<path d="M 526.68 732.48 L 527.16 732.48 L 527.16 595.68 L 526.68 595.68 Z" fill="rgb(0,0,0)" stroke="none"/>
<path d="M 123.067 586.162 L 123.067 585.322 L 121.86 585.322 L 121.86 583.035 L 120.78 583.035 L 120.78 585.322 L 117.052 585.322 L 117.052 586.162 L 121.14 591.93 L 121.86 591.93 L 121.86 586.162 L 123.067 586.162 Z M 120.78 586.162 L 120.78 590.49 L 117.772 586.162 L 120.78 586.162 Z" fill="rgb(0,0,0)" stroke="none"/>
<path d="M 129.435 591.93 L 129.435 591.69 C 128.835 591.57 128.355 591.45 127.995 591.33 C 127.635 591.09 127.268 590.85 126.908 590.49 C 126.548 590.242 126.308 589.762 126.068 589.402 C 125.828 588.922 125.708 588.442 125.468 587.842 C 126.068 588.322 126.788 588.442 127.395 588.442 C 127.995 588.442 128.475 588.202 128.955 587.722 C 129.315 587.362 129.555 586.642 129.555 585.922 C 129.555 585.202 129.315 584.602 128.835 584.002 C 128.355 583.275 127.635 582.915 126.788 582.915 C 126.188 582.915 125.708 583.035 125.228 583.395 C 124.508 584.242 124.028 585.202 124.028 586.402 C 124.028 587.242 124.268 587.962 124.508 588.682 C 124.868 589.282 125.228 590.002 125.828 590.49 C 126.428 591.09 127.028 591.45 127.515 591.57 C 128.115 591.81 128.595 591.93 128.955 591.93 L 129.435 591.93 Z M 125.348 587.362 C 125.348 586.882 125.228 586.402 125.228 586.042 C 125.228 585.562 125.348 585.202 125.468 584.722 C 125.708 584.242 125.828 583.762 126.188 583.515 C 126.428 583.275 126.668 583.275 127.028 583.275 C 127.395 583.275 127.635 583.395 127.995 583.762 C 128.235 584.122 128.355 584.602 128.355 585.202 C 128.355 585.922 128.235 586.642 127.995 587.122 C 127.635 587.722 127.268 587.962 126.788 587.962 C 126.548 587.962 126.428 587.962 126.188 587.842 C 126.068 587.722 125.708 587.602 125.348 587.362 Z" fill="rgb(0,0,0)" stroke="none"/>
<path d="M 131.715 584.242 C 131.955 584.242 132.075 584.242 132.315 584.002 C 132.435 583.882 132.435 583.762 132.435 583.522 C 132.435 583.402 132.435 583.162 132.195 583.042 C 132.075 582.922 131.955 582.802 131.715 582.802 C 131.587 582.802 131.347 582.922 131.227 583.042 C 131.107 583.162 130.987 583.402 130.987 583.522 C 130.987 583.762 131.107 583.882 131.227 584.002 C 131.347 584.242 131.587 584.242 131.715 584.242 Z" fill="rgb(0,0,0)" stroke="none"/>
<path d="M 269.588 586.162 L 269.588 585.322 L 268.388 585.322 L 268.388 583.042 L 267.308 583.042 L 267.308 585.322 L 263.7 585.322 L 263.7 586.162 L 267.668 591.93 L 268.388 591.93 L 268.388 586.162 L 269.588 586.162 Z M 267.308 586.162 L 267.308 590.49 L 264.3 586.162 L 267.308 586.162 Z" fill="rgb(0,0,0)" stroke="none"/>
<path d="M 271.395 591.69 L 275.962 591.69 L 275.962 591.45 L 273.082 582.803 L 272.355 582.803 L 275.002 590.61 L 272.602 590.61 C 272.115 590.61 271.755 590.61 271.515 590.49 C 271.155 590.25 270.915 589.89 270.675 589.53 L 270.555 589.65 L 271.395 591.69 Z" fill="rgb(0,0,0)" stroke="none"/>
<path d="M 278.242 584.242 C 278.482 584.242 278.602 584.242 278.722 584.002 C 278.962 583.882 278.962 583.762 278.962 583.515 C 278.962 583.395 278.962 583.155 278.722 583.035 C 278.602 582.915 278.482 582.795 278.242 582.795 C 278.122 582.795 277.882 582.915 277.762 583.035 C 277.642 583.155 277.522 583.395 277.522 583.515 C 277.522 583.762 277.642 583.882 277.762 584.002 C 277.882 584.242 278.122 584.242 278.242 584.242 Z" fill="rgb(0,0,0)" stroke="none"/>
<path d="M 416.235 586.162 L 416.235 585.322 L 415.155 585.322 L 415.155 583.035 L 414.075 583.035 L 414.075 585.322 L 410.347 585.322 L 410.347 586.162 L 414.435 591.93 L 415.155 591.93 L 415.155 586.162 L 416.235 586.162 Z M 414.075 586.162 L 414.075 590.49 L 411.067 586.162 L 414.075 586.162 Z" fill="rgb(0,0,0)" stroke="none"/>
<path d="M 419.363 587.362 C 418.643 587.962 418.155 588.442 417.915 588.802 C 417.795 589.042 417.675 589.402 417.675 589.762 C 417.675 590.362 417.915 590.85 418.283 591.33 C 418.763 591.69 419.363 591.93 420.083 591.93 C 420.803 591.93 421.283 591.69 421.763 591.33 C 422.123 590.97 422.363 590.49 422.363 590.002 C 422.363 589.642 422.243 589.402 422.003 589.042 C 421.763 588.682 421.283 588.322 420.563 587.842 C 421.403 587.242 421.883 586.762 422.123 586.402 C 422.483 586.042 422.603 585.562 422.603 585.082 C 422.603 584.482 422.363 584.002 421.883 583.515 C 421.403 583.035 420.803 582.915 420.083 582.915 C 419.243 582.915 418.643 583.155 418.155 583.642 C 417.795 584.002 417.555 584.482 417.555 584.962 C 417.555 585.442 417.675 585.802 417.915 586.162 C 418.283 586.522 418.643 586.882 419.363 587.362 Z M 420.323 588.082 C 420.803 588.562 421.163 588.922 421.283 589.162 C 421.403 589.402 421.523 589.762 421.523 590.122 C 421.523 590.49 421.403 590.85 421.163 591.09 C 420.803 591.33 420.563 591.57 420.083 591.57 C 419.603 591.57 419.243 591.33 419.003 591.09 C 418.763 590.85 418.643 590.61 418.643 590.242 C 418.643 590.002 418.643 589.762 418.763 589.522 C 418.883 589.402 419.003 589.162 419.243 588.922 L 420.323 588.082 Z M 419.603 587.122 C 419.243 586.882 419.003 586.522 418.763 586.162 C 418.643 585.802 418.523 585.442 418.523 585.082 C 418.523 584.482 418.763 584.002 419.003 583.762 C 419.363 583.395 419.723 583.155 420.203 583.155 C 420.683 583.155 421.043 583.395 421.283 583.642 C 421.523 583.882 421.643 584.242 421.643 584.602 C 421.643 584.842 421.643 585.082 421.403 585.322 C 421.163 585.802 420.563 586.402 419.603 587.122 Z" fill="rgb(0,0,0)" stroke="none"/>
<path d="M 425.01 584.242 C 425.25 584.242 425.37 584.242 425.49 584.002 C 425.61 583.882 425.73 583.762 425.73 583.522 C 425.73 583.402 425.61 583.162 425.49 583.042 C 425.37 582.922 425.25 582.802 425.01 582.802 C 424.77 582.802 424.65 582.922 424.53 583.042 C 424.41 583.162 424.29 583.402 424.29 583.522 C 424.29 583.762 424.41 583.882 424.53 584.002 C 424.65 584.242 424.77 584.242 425.01 584.242 Z" fill="rgb(0,0,0)" stroke="none"/>
<path d="M 92.76 595.68 L 526.68 595.68 L 526.68 595.2 L 92.76 595.2 Z" fill="rgb(0,0,0)" fill-rule="evenodd" stroke="none"/>
<path d="M 526.68 595.68 L 527.16 595.68 L 527.16 595.2 L 526.68 595.2 Z M 92.76 595.32 L 93.24 595.32 L 93.24 458.4 L 92.76 458.4 Z M 239.52 595.32 L 240 595.32 L 240 458.4 L 239.52 458.4 Z M 386.04 595.32 L 386.52 595.32 L 386.52 458.4 L 386.04 458.4 Z" fill="rgb(0,0,0)" fill-rule="evenodd" stroke="none"/>
<path d="M 526.68 595.32 L 527.16 595.32 L 527.16 458.4 L 526.68 458.4 Z" fill="rgb(0,0,0)" stroke="none"/>
<path d="M 123.067 449.093 L 123.067 448.133 L 121.86 448.133 L 121.86 445.845 L 120.78 445.845 L 120.78 448.133 L 117.052 448.133 L 117.052 448.973 L 121.14 454.74 L 121.86 454.74 L 121.86 449.093 L 123.067 449.093 Z M 120.78 449.093 L 120.78 453.3 L 117.78 449.093 L 120.78 449.093 Z" fill="rgb(0,0,0)" stroke="none"/>
<path d="M 124.147 445.605 L 124.147 445.845 C 124.747 445.845 125.227 446.085 125.707 446.325 C 126.187 446.565 126.667 446.933 127.147 447.653 C 127.635 448.253 127.875 448.853 128.115 449.693 C 127.395 449.213 126.787 448.973 126.187 448.973 C 125.587 448.973 125.107 449.213 124.627 449.693 C 124.267 450.173 124.027 450.773 124.027 451.613 C 124.027 452.333 124.267 453.053 124.627 453.653 C 125.227 454.38 125.827 454.74 126.667 454.74 C 127.395 454.74 127.995 454.38 128.595 453.78 C 129.195 453.053 129.555 452.213 129.555 451.133 C 129.555 450.173 129.315 449.213 128.835 448.373 C 128.355 447.533 127.635 446.933 126.787 446.325 C 126.067 445.845 125.347 445.605 124.507 445.605 L 124.147 445.605 Z M 128.115 450.173 C 128.235 450.653 128.235 451.133 128.235 451.493 C 128.235 451.853 128.235 452.333 128.115 452.813 C 127.875 453.293 127.755 453.653 127.515 453.9 C 127.267 454.14 126.907 454.26 126.547 454.26 C 126.187 454.26 125.827 454.14 125.587 453.78 C 125.347 453.413 125.107 452.933 125.107 452.213 C 125.107 451.373 125.347 450.653 125.707 450.173 C 125.947 449.813 126.307 449.573 126.787 449.573 C 126.907 449.573 127.147 449.573 127.515 449.693 C 127.755 449.813 127.995 449.933 128.115 450.173 Z" fill="rgb(0,0,0)" stroke="none"/>
<path d="M 131.715 447.053 C 131.962 447.053 132.082 447.053 132.202 446.933 C 132.322 446.685 132.442 446.565 132.442 446.325 C 132.442 446.205 132.322 445.965 132.202 445.845 C 132.082 445.725 131.962 445.605 131.715 445.605 C 131.595 445.605 131.355 445.725 131.235 445.845 C 131.115 445.965 130.995 446.205 130.995 446.325 C 130.995 446.565 131.115 446.685 131.235 446.933 C 131.355 447.053 131.475 447.053 131.715 447.053 Z" fill="rgb(0,0,0)" stroke="none"/>
<path d="M 269.107 454.5 L 268.627 453.413 L 265.98 453.413 L 265.5 452.212 C 266.58 452.092 267.427 451.733 268.147 451.012 C 268.747 450.413 268.987 449.692 268.987 448.973 C 268.987 448.493 268.867 448.132 268.747 447.652 C 268.507 447.293 268.267 446.925 268.027 446.685 C 267.667 446.445 267.427 446.205 267.06 446.085 C 266.58 445.845 266.1 445.725 265.5 445.725 C 265.02 445.725 264.66 445.725 264.42 445.965 C 264.18 446.085 264.06 446.325 264.06 446.565 C 264.06 446.685 264.06 446.805 264.18 446.805 C 264.3 446.925 264.42 447.045 264.54 447.045 C 264.66 447.045 264.78 446.925 264.9 446.925 C 264.9 446.925 265.14 446.805 265.26 446.685 C 265.62 446.445 265.98 446.325 266.22 446.325 C 266.82 446.325 267.18 446.565 267.547 446.925 C 267.907 447.293 268.147 447.772 268.147 448.252 C 268.147 448.853 268.027 449.332 267.667 449.813 C 267.3 450.173 266.82 450.533 266.22 450.772 C 265.74 451.012 265.14 451.132 264.3 451.132 L 265.98 454.5 L 269.107 454.5 Z" fill="rgb(0,0,0)" stroke="none"/>
<path d="M 270.555 450.173 C 270.555 451.133 270.675 451.973 270.915 452.693 C 271.275 453.413 271.635 453.9 272.115 454.26 C 272.475 454.62 272.955 454.74 273.315 454.74 C 274.035 454.74 274.635 454.38 275.122 453.653 C 275.842 452.813 276.082 451.733 276.082 450.293 C 276.082 449.213 275.962 448.373 275.722 447.653 C 275.362 447.053 274.995 446.445 274.515 446.205 C 274.155 445.845 273.675 445.725 273.315 445.725 C 272.475 445.725 271.755 446.205 271.155 447.173 C 270.795 448.013 270.555 448.973 270.555 450.173 Z M 271.755 449.933 C 271.755 448.733 271.875 447.773 272.235 447.053 C 272.475 446.445 272.835 446.085 273.315 446.085 C 273.555 446.085 273.795 446.205 274.035 446.445 C 274.275 446.565 274.395 446.933 274.515 447.413 C 274.755 448.133 274.875 449.213 274.875 450.533 C 274.875 451.493 274.755 452.333 274.515 453.053 C 274.395 453.533 274.155 453.9 273.915 454.02 C 273.795 454.26 273.555 454.26 273.315 454.26 C 273.075 454.26 272.835 454.14 272.595 453.9 C 272.235 453.533 271.995 452.933 271.875 452.213 C 271.875 451.493 271.755 450.653 271.755 449.933 Z" fill="rgb(0,0,0)" stroke="none"/>
<path d="M 278.242 447.053 C 278.482 447.053 278.602 447.053 278.722 446.933 C 278.97 446.693 278.97 446.573 278.97 446.333 C 278.97 446.213 278.97 445.973 278.722 445.853 C 278.602 445.733 278.482 445.613 278.242 445.613 C 278.122 445.613 277.882 445.733 277.762 445.853 C 277.642 445.973 277.522 446.213 277.522 446.333 C 277.522 446.573 277.642 446.693 277.762 446.933 C 277.882 447.053 278.122 447.053 278.242 447.053 Z" fill="rgb(0,0,0)" stroke="none"/>
<path d="M 415.875 454.5 L 415.395 453.413 L 412.748 453.413 L 412.147 452.212 C 413.348 452.092 414.195 451.733 414.915 451.012 C 415.515 450.413 415.755 449.692 415.755 448.973 C 415.755 448.493 415.635 448.132 415.515 447.652 C 415.275 447.293 415.035 446.933 414.795 446.685 C 414.435 446.445 414.195 446.205 413.835 446.085 C 413.348 445.845 412.868 445.725 412.267 445.725 C 411.788 445.725 411.428 445.725 411.188 445.965 C 410.947 446.085 410.827 446.325 410.827 446.565 C 410.827 446.685 410.827 446.805 410.947 446.805 C 411.067 446.933 411.188 447.053 411.308 447.053 C 411.428 447.053 411.548 446.933 411.668 446.933 C 411.668 446.933 411.908 446.805 412.027 446.685 C 412.387 446.445 412.748 446.325 412.988 446.325 C 413.467 446.325 413.955 446.565 414.315 446.933 C 414.675 447.293 414.915 447.772 414.915 448.252 C 414.915 448.853 414.795 449.332 414.435 449.813 C 414.075 450.173 413.587 450.533 412.988 450.772 C 412.507 451.012 411.908 451.132 411.067 451.132 L 412.748 454.5 L 415.875 454.5 Z" fill="rgb(0,0,0)" stroke="none"/>
<path d="M 418.283 453.652 L 420.45 454.732 L 420.69 454.732 L 420.69 447.405 C 420.69 446.925 420.69 446.565 420.69 446.445 C 420.81 446.325 420.81 446.205 420.93 446.205 C 421.05 446.085 421.41 446.085 421.77 446.085 L 421.77 445.845 L 418.523 445.845 L 418.523 446.085 C 418.883 446.085 419.123 446.085 419.243 446.205 C 419.363 446.205 419.483 446.325 419.483 446.445 C 419.603 446.565 419.603 446.805 419.603 447.405 L 419.603 452.092 C 419.603 452.692 419.603 453.052 419.483 453.292 C 419.483 453.412 419.483 453.532 419.363 453.532 C 419.243 453.652 419.243 453.652 419.123 453.652 C 418.883 453.652 418.763 453.652 418.403 453.412 L 418.283 453.652 Z" fill="rgb(0,0,0)" stroke="none"/>
<path d="M 425.01 447.053 C 425.25 447.053 425.37 447.053 425.49 446.933 C 425.61 446.685 425.73 446.565 425.73 446.325 C 425.73 446.205 425.61 445.965 425.49 445.845 C 425.37 445.725 425.25 445.605 425.01 445.605 C 424.77 445.605 424.65 445.725 424.53 445.845 C 424.41 445.965 424.29 446.205 424.29 446.325 C 424.29 446.565 424.41 446.685 424.53 446.933 C 424.65 447.053 424.77 447.053 425.01 447.053 Z" fill="rgb(0,0,0)" stroke="none"/>
<path d="M 92.76 458.4 L 526.68 458.4 L 526.68 457.92 L 92.76 457.92 Z" fill="rgb(0,0,0)" fill-rule="evenodd" stroke="none"/>
<path d="M 526.68 458.4 L 527.16 458.4 L 527.16 457.92 L 526.68 457.92 Z M 92.76 458.04 L 93.24 458.04 L 93.24 317.4 L 92.76 317.4 Z M 239.52 458.04 L 240 458.04 L 240 317.4 L 239.52 317.4 Z M 386.04 458.04 L 386.52 458.04 L 386.52 317.4 L 386.04 317.4 Z" fill="rgb(0,0,0)" fill-rule="evenodd" stroke="none"/>
<path d="M 526.68 458.04 L 527.16 458.04 L 527.16 317.4 L 526.68 317.4 Z" fill="rgb(0,0,0)" stroke="none"/>
<path d="M 122.58 313.463 L 122.1 312.383 L 119.46 312.383 L 118.86 311.303 C 120.06 311.063 120.9 310.703 121.62 309.975 C 122.22 309.375 122.46 308.775 122.46 307.935 C 122.46 307.455 122.34 307.095 122.22 306.615 C 121.98 306.255 121.74 305.895 121.5 305.655 C 121.14 305.415 120.9 305.175 120.54 305.055 C 120.06 304.815 119.58 304.695 118.98 304.695 C 118.5 304.695 118.133 304.695 117.893 304.935 C 117.653 305.055 117.533 305.295 117.533 305.535 C 117.533 305.655 117.533 305.775 117.653 305.895 C 117.773 305.895 117.893 306.015 118.013 306.015 C 118.133 306.015 118.253 306.015 118.373 305.895 C 118.373 305.895 118.62 305.775 118.74 305.655 C 119.1 305.415 119.46 305.295 119.7 305.295 C 120.3 305.295 120.66 305.535 121.02 305.895 C 121.38 306.255 121.62 306.735 121.62 307.215 C 121.62 307.815 121.5 308.295 121.14 308.775 C 120.78 309.135 120.3 309.495 119.7 309.735 C 119.22 309.975 118.62 310.095 117.773 310.095 L 119.46 313.463 L 122.58 313.463 Z" fill="rgb(0,0,0)" stroke="none"/>
<path d="M 129.555 306.495 L 128.955 304.815 L 123.788 304.815 L 123.788 305.055 C 125.228 306.375 126.308 307.575 126.908 308.415 C 127.635 309.255 127.875 310.095 127.875 310.822 C 127.875 311.422 127.755 311.782 127.395 312.142 C 127.028 312.502 126.668 312.742 126.188 312.742 C 125.708 312.742 125.348 312.622 124.988 312.382 C 124.628 312.022 124.388 311.662 124.268 311.182 L 124.028 311.182 C 124.148 312.022 124.388 312.622 124.868 313.102 C 125.348 313.462 125.828 313.702 126.548 313.702 C 127.268 313.702 127.755 313.462 128.235 312.982 C 128.715 312.502 128.955 312.022 128.955 311.422 C 128.955 310.942 128.835 310.582 128.715 310.095 C 128.355 309.375 127.875 308.655 127.148 307.935 C 126.068 306.735 125.468 306.015 125.108 305.775 L 127.395 305.775 C 127.875 305.775 128.235 305.775 128.355 305.895 C 128.595 305.895 128.715 305.895 128.835 306.015 C 129.075 306.135 129.195 306.255 129.315 306.495 L 129.555 306.495 Z" fill="rgb(0,0,0)" stroke="none"/>
<path d="M 131.715 306.015 C 131.962 306.015 132.082 306.015 132.202 305.895 C 132.322 305.775 132.442 305.535 132.442 305.295 C 132.442 305.175 132.322 304.935 132.202 304.815 C 132.082 304.695 131.962 304.695 131.715 304.695 C 131.595 304.695 131.355 304.695 131.235 304.815 C 131.115 304.935 130.995 305.175 130.995 305.295 C 130.995 305.535 131.115 305.775 131.235 305.895 C 131.355 306.015 131.475 306.015 131.715 306.015 Z" fill="rgb(0,0,0)" stroke="none"/>
<path d="M 269.107 313.463 L 268.627 312.383 L 265.98 312.383 L 265.5 311.303 C 266.587 311.063 267.427 310.703 268.147 309.975 C 268.747 309.375 268.987 308.775 268.987 307.935 C 268.987 307.455 268.867 307.095 268.747 306.615 C 268.507 306.255 268.267 305.895 268.027 305.655 C 267.667 305.415 267.427 305.175 267.067 305.055 C 266.587 304.815 266.107 304.695 265.5 304.695 C 265.02 304.695 264.66 304.695 264.42 304.935 C 264.18 305.055 264.06 305.295 264.06 305.535 C 264.06 305.655 264.06 305.775 264.18 305.895 C 264.3 305.895 264.42 306.015 264.54 306.015 C 264.66 306.015 264.78 306.015 264.9 305.895 C 264.9 305.895 265.14 305.775 265.26 305.655 C 265.62 305.415 265.98 305.295 266.227 305.295 C 266.827 305.295 267.187 305.535 267.547 305.895 C 267.907 306.255 268.147 306.735 268.147 307.215 C 268.147 307.815 268.027 308.295 267.667 308.775 C 267.307 309.135 266.827 309.495 266.227 309.735 C 265.74 309.975 265.14 310.095 264.3 310.095 L 265.98 313.463 L 269.107 313.463 Z" fill="rgb(0,0,0)" stroke="none"/>
<path d="M 270.675 311.902 C 270.915 312.382 271.275 312.862 271.635 313.222 C 271.995 313.462 272.475 313.702 273.075 313.702 C 273.795 313.702 274.275 313.462 274.635 312.982 C 274.875 312.622 275.122 312.262 275.122 311.902 C 275.122 311.302 274.635 310.582 273.915 309.975 C 274.395 309.735 274.755 309.495 275.122 309.015 C 275.362 308.655 275.482 308.175 275.482 307.695 C 275.482 306.975 275.242 306.255 274.755 305.775 C 274.155 305.055 273.315 304.695 272.115 304.695 C 271.515 304.695 271.035 304.695 270.915 304.935 C 270.675 305.055 270.555 305.175 270.555 305.295 C 270.555 305.415 270.555 305.535 270.675 305.655 C 270.795 305.775 270.915 305.775 271.035 305.775 C 271.155 305.775 271.275 305.775 271.395 305.775 C 271.515 305.775 271.635 305.655 271.875 305.535 C 272.115 305.415 272.355 305.295 272.475 305.295 C 272.595 305.295 272.715 305.175 272.955 305.175 C 273.315 305.175 273.795 305.415 274.035 305.775 C 274.395 306.015 274.515 306.495 274.515 306.975 C 274.515 307.215 274.515 307.575 274.275 307.935 C 274.275 308.175 274.155 308.295 273.915 308.415 C 273.795 308.655 273.555 308.775 273.195 308.895 C 272.835 309.015 272.595 309.135 272.235 309.135 L 271.995 309.135 L 271.995 309.375 C 272.355 309.375 272.715 309.495 273.075 309.735 C 273.435 309.855 273.675 310.095 273.795 310.462 C 273.915 310.702 274.035 310.942 274.035 311.302 C 274.035 311.782 273.915 312.142 273.555 312.382 C 273.315 312.622 272.955 312.862 272.595 312.862 C 271.875 312.862 271.395 312.502 270.915 311.782 L 270.675 311.902 Z" fill="rgb(0,0,0)" stroke="none"/>
<path d="M 278.242 306.015 C 278.482 306.015 278.602 306.015 278.722 305.895 C 278.962 305.775 278.962 305.535 278.962 305.295 C 278.962 305.175 278.962 304.935 278.722 304.815 C 278.602 304.695 278.482 304.695 278.242 304.695 C 278.122 304.695 277.882 304.695 277.762 304.815 C 277.642 304.935 277.522 305.175 277.522 305.295 C 277.522 305.535 277.642 305.775 277.762 305.895 C 277.882 306.015 278.122 306.015 278.242 306.015 Z" fill="rgb(0,0,0)" stroke="none"/>
<path d="M 415.875 313.463 L 415.395 312.383 L 412.748 312.383 L 412.147 311.303 C 413.348 311.063 414.195 310.703 414.915 309.975 C 415.515 309.375 415.755 308.775 415.755 307.935 C 415.755 307.455 415.635 307.095 415.515 306.615 C 415.275 306.255 415.035 305.895 414.795 305.655 C 414.435 305.415 414.195 305.175 413.835 305.055 C 413.348 304.815 412.868 304.695 412.267 304.695 C 411.788 304.695 411.428 304.695 411.188 304.935 C 410.947 305.055 410.827 305.295 410.827 305.535 C 410.827 305.655 410.827 305.775 410.947 305.895 C 411.067 305.895 411.188 306.015 411.308 306.015 C 411.428 306.015 411.548 306.015 411.668 305.895 C 411.668 305.895 411.908 305.775 412.027 305.655 C 412.387 305.415 412.748 305.295 412.988 305.295 C 413.467 305.295 413.955 305.535 414.315 305.895 C 414.675 306.255 414.915 306.735 414.915 307.215 C 414.915 307.815 414.795 308.295 414.435 308.775 C 414.075 309.135 413.587 309.495 412.988 309.735 C 412.507 309.975 411.908 310.095 411.067 310.095 L 412.748 313.463 L 415.875 313.463 Z" fill="rgb(0,0,0)" stroke="none"/>
<path d="M 422.85 308.055 L 422.85 307.095 L 421.762 307.095 L 421.762 304.815 L 420.682 304.815 L 420.682 307.095 L 416.955 307.095 L 416.955 307.935 L 421.042 313.702 L 421.762 313.702 L 421.762 308.055 L 422.85 308.055 Z M 420.682 308.055 L 420.682 312.382 L 417.675 308.055 L 420.682 308.055 Z" fill="rgb(0,0,0)" stroke="none"/>
<path d="M 425.01 306.015 C 425.25 306.015 425.37 306.015 425.49 305.895 C 425.61 305.775 425.73 305.535 425.73 305.295 C 425.73 305.175 425.61 304.935 425.49 304.815 C 425.37 304.695 425.25 304.695 425.01 304.695 C 424.77 304.695 424.65 304.695 424.53 304.815 C 424.41 304.935 424.29 305.175 424.29 305.295 C 424.29 305.535 424.41 305.775 424.53 305.895 C 424.65 306.015 424.77 306.015 425.01 306.015 Z" fill="rgb(0,0,0)" stroke="none"/>
<path d="M 92.76 317.52 L 526.68 317.52 L 526.68 317.04 L 92.76 317.04 Z" fill="rgb(0,0,0)" fill-rule="evenodd" stroke="none"/>
<path d="M 526.68 317.52 L 527.16 317.52 L 527.16 317.04 L 526.68 317.04 Z" fill="rgb(0,0,0)" stroke="none"/>
<path d="M 92.76 317.04 L 93.24 317.04 L 93.24 179.88 L 92.76 179.88 Z" fill="rgb(0,0,0)" fill-rule="evenodd" stroke="none"/>
<path d="M 92.76 180.36 L 239.52 180.36 L 239.52 179.88 L 92.76 179.88 Z" fill="rgb(0,0,0)" fill-rule="evenodd" stroke="none"/>
<path d="M 239.52 317.04 L 240 317.04 L 240 179.88 L 239.52 179.88 Z" fill="rgb(0,0,0)" fill-rule="evenodd" stroke="none"/>
<path d="M 239.88 180.36 L 386.04 180.36 L 386.04 179.88 L 239.88 179.88 Z" fill="rgb(0,0,0)" stroke="none"/>
<path d="M 386.04 317.04 L 386.52 317.04 L 386.52 179.88 L 386.04 179.88 Z" fill="rgb(0,0,0)" fill-rule="evenodd" stroke="none"/>
<path d="M 386.4 180.36 L 526.68 180.36 L 526.68 179.88 L 386.4 179.88 Z" fill="rgb(0,0,0)" stroke="none"/>
<path d="M 526.68 317.04 L 527.16 317.04 L 527.16 179.88 L 526.68 179.88 Z" fill="rgb(0,0,0)" fill-rule="evenodd" stroke="none"/>
<path d="M 526.68 180.36 L 527.16 180.36 L 527.16 179.88 L 526.68 179.88 Z" fill="rgb(0,0,0)" stroke="none"/>
</svg>