<?xml version="1.0" encoding="UTF-8"?>
<svg xmlns="http://www.w3.org/2000/svg" width="612pt" height="792pt" viewBox="0 0 612 792">
<rect x="0" y="0" width="612" height="792" fill="white"/>
<path d="M 305.768 52.057 C 305.168 52.537 304.808 53.017 304.568 53.257 C 304.448 53.497 304.328 53.857 304.328 54.217 C 304.328 54.697 304.568 55.057 304.928 55.417 C 305.288 55.777 305.768 55.897 306.375 55.897 C 306.975 55.897 307.455 55.777 307.935 55.417 C 308.295 55.177 308.415 54.697 308.415 54.337 C 308.415 54.097 308.295 53.737 308.175 53.497 C 307.935 53.137 307.575 52.897 306.855 52.417 C 307.575 51.937 307.935 51.577 308.175 51.337 C 308.415 50.857 308.535 50.497 308.535 50.13 C 308.535 49.53 308.415 49.17 307.935 48.69 C 307.575 48.33 307.095 48.21 306.375 48.21 C 305.648 48.21 305.168 48.45 304.808 48.81 C 304.448 49.17 304.328 49.65 304.328 50.01 C 304.328 50.37 304.328 50.737 304.568 50.977 C 304.808 51.337 305.168 51.697 305.768 52.057 Z M 306.615 52.657 C 307.095 53.017 307.335 53.377 307.455 53.617 C 307.575 53.857 307.695 54.097 307.695 54.337 C 307.695 54.817 307.575 55.057 307.335 55.297 C 307.095 55.537 306.855 55.657 306.375 55.657 C 306.008 55.657 305.768 55.537 305.528 55.297 C 305.288 55.057 305.168 54.817 305.168 54.577 C 305.168 54.337 305.168 54.217 305.288 53.977 C 305.408 53.737 305.528 53.617 305.768 53.377 L 306.615 52.657 Z M 306.008 51.817 C 305.768 51.577 305.528 51.337 305.288 50.977 C 305.168 50.737 305.168 50.37 305.168 50.01 C 305.168 49.53 305.288 49.17 305.528 48.93 C 305.768 48.57 306.128 48.45 306.495 48.45 C 306.855 48.45 307.215 48.57 307.455 48.81 C 307.695 49.05 307.815 49.29 307.815 49.65 C 307.815 49.89 307.695 50.13 307.575 50.37 C 307.335 50.737 306.855 51.217 306.008 51.817 Z" fill="rgb(0,0,0)" stroke="none"/>
<path d="M 118.252 728.64 L 122.82 728.64 L 122.82 728.4 L 119.94 719.745 L 119.22 719.745 L 121.86 727.56 L 119.46 727.56 C 118.98 727.56 118.62 727.56 118.5 727.44 C 118.132 727.2 117.772 726.952 117.532 726.472 L 117.412 726.592 L 118.252 728.64 Z" fill="rgb(0,0,0)" stroke="none"/>
<path d="M 125.107 721.192 C 125.347 721.192 125.467 721.192 125.587 720.952 C 125.827 720.832 125.827 720.712 125.827 720.472 C 125.827 720.352 125.827 720.105 125.587 719.985 C 125.467 719.865 125.347 719.745 125.107 719.745 C 124.987 719.745 124.747 719.865 124.627 719.985 C 124.507 720.105 124.387 720.352 124.387 720.472 C 124.387 720.712 124.507 720.832 124.627 721.072 C 124.747 721.192 124.987 721.192 125.107 721.192 Z" fill="rgb(0,0,0)" stroke="none"/>
<path d="M 264.78 724.313 C 264.18 724.913 263.7 725.393 263.46 725.753 C 263.34 725.992 263.22 726.352 263.22 726.712 C 263.22 727.32 263.46 727.8 263.82 728.28 C 264.3 728.64 264.9 728.88 265.62 728.88 C 266.228 728.88 266.828 728.64 267.308 728.28 C 267.668 727.92 267.908 727.44 267.908 726.952 C 267.908 726.592 267.788 726.352 267.548 725.992 C 267.308 725.633 266.828 725.273 266.108 724.793 C 266.828 724.192 267.428 723.712 267.668 723.352 C 267.908 722.992 268.148 722.513 268.148 722.033 C 268.148 721.433 267.908 720.952 267.428 720.472 C 266.948 719.985 266.348 719.865 265.62 719.865 C 264.78 719.865 264.06 720.105 263.7 720.592 C 263.34 720.952 263.1 721.433 263.1 721.913 C 263.1 722.393 263.22 722.753 263.46 723.112 C 263.7 723.472 264.18 723.832 264.78 724.313 Z M 265.86 725.033 C 266.348 725.513 266.708 725.872 266.828 726.112 C 266.948 726.352 266.948 726.712 266.948 727.072 C 266.948 727.44 266.828 727.8 266.588 728.04 C 266.348 728.28 265.98 728.52 265.62 728.52 C 265.14 728.52 264.78 728.28 264.54 728.04 C 264.3 727.8 264.18 727.56 264.18 727.2 C 264.18 726.952 264.18 726.712 264.3 726.472 C 264.42 726.352 264.54 726.112 264.78 725.872 L 265.86 725.033 Z M 265.14 724.072 C 264.78 723.832 264.54 723.472 264.3 723.112 C 264.18 722.753 264.06 722.393 264.06 722.033 C 264.06 721.433 264.18 720.952 264.54 720.712 C 264.78 720.352 265.26 720.105 265.62 720.105 C 266.108 720.105 266.468 720.352 266.828 720.592 C 267.068 720.832 267.188 721.192 267.188 721.553 C 267.188 721.793 267.068 722.033 266.948 722.273 C 266.708 722.753 266.108 723.352 265.14 724.072 Z" fill="rgb(0,0,0)" stroke="none"/>
<path d="M 270.555 721.192 C 270.795 721.192 270.915 721.192 271.035 720.952 C 271.155 720.832 271.275 720.712 271.275 720.472 C 271.275 720.352 271.155 720.112 271.035 719.992 C 270.915 719.872 270.795 719.752 270.555 719.752 C 270.315 719.752 270.195 719.872 270.075 719.992 C 269.955 720.112 269.835 720.352 269.835 720.472 C 269.835 720.712 269.955 720.832 270.075 721.072 C 270.195 721.192 270.315 721.192 270.555 721.192 Z" fill="rgb(0,0,0)" stroke="none"/>
<path d="M 404.82 719.745 L 404.82 719.985 C 405.3 719.985 405.9 720.225 406.38 720.473 C 406.86 720.713 407.22 721.073 407.7 721.673 C 408.18 722.393 408.42 722.993 408.66 723.833 C 407.94 723.353 407.34 723.113 406.86 723.113 C 406.26 723.113 405.66 723.353 405.3 723.833 C 404.82 724.313 404.573 724.913 404.573 725.753 C 404.573 726.473 404.82 727.2 405.3 727.8 C 405.78 728.52 406.5 728.88 407.34 728.88 C 408.06 728.88 408.66 728.52 409.14 727.92 C 409.748 727.2 410.108 726.353 410.108 725.273 C 410.108 724.313 409.868 723.353 409.388 722.513 C 408.9 721.673 408.18 721.073 407.34 720.473 C 406.74 719.985 405.9 719.745 405.18 719.745 L 404.82 719.745 Z M 408.78 724.313 C 408.78 724.793 408.9 725.273 408.9 725.633 C 408.9 725.993 408.78 726.473 408.66 726.953 C 408.54 727.44 408.3 727.8 408.06 728.04 C 407.82 728.28 407.46 728.4 407.22 728.4 C 406.74 728.4 406.5 728.28 406.14 727.92 C 405.9 727.56 405.78 727.073 405.78 726.353 C 405.78 725.513 405.9 724.793 406.26 724.313 C 406.62 723.953 406.98 723.713 407.34 723.713 C 407.58 723.713 407.82 723.713 408.06 723.833 C 408.3 723.953 408.54 724.073 408.78 724.313 Z" fill="rgb(0,0,0)" stroke="none"/>
<path d="M 412.268 721.192 C 412.508 721.192 412.748 721.192 412.868 720.952 C 412.988 720.832 412.988 720.712 412.988 720.472 C 412.988 720.352 412.988 720.105 412.868 719.985 C 412.628 719.865 412.508 719.745 412.268 719.745 C 412.148 719.745 411.908 719.865 411.788 719.985 C 411.668 720.105 411.668 720.352 411.668 720.472 C 411.668 720.712 411.668 720.832 411.788 721.072 C 411.908 721.192 412.148 721.192 412.268 721.192 Z" fill="rgb(0,0,0)" stroke="none"/>
<path d="M 92.76 732.84 L 519.72 732.84 L 519.72 732.36 L 92.76 732.36 Z" fill="rgb(0,0,0)" fill-rule="evenodd" stroke="none"/>
<path d="M 519.72 732.84 L 520.2 732.84 L 520.2 732.36 L 519.72 732.36 Z M 92.76 732.36 L 93.24 732.36 L 93.24 644.64 L 92.76 644.64 Z M 238.32 732.36 L 238.8 732.36 L 238.8 644.64 L 238.32 644.64 Z M 379.92 732.36 L 380.4 732.36 L 380.4 644.64 L 379.92 644.64 Z" fill="rgb(0,0,0)" fill-rule="evenodd" stroke="none"/>
<path d="M 519.72 732.36 L 520.2 732.36 L 520.2 644.64 L 519.72 644.64 Z" fill="rgb(0,0,0)" stroke="none"/>
<path d="M 118.5 639.623 L 120.54 640.703 L 120.78 640.703 L 120.78 633.375 C 120.78 632.895 120.78 632.535 120.78 632.415 C 120.9 632.295 120.9 632.295 121.02 632.175 C 121.26 632.175 121.5 632.055 121.86 632.055 L 121.86 631.815 L 118.62 631.815 L 118.62 632.055 C 118.98 632.055 119.22 632.175 119.34 632.175 C 119.46 632.295 119.58 632.295 119.7 632.415 C 119.7 632.535 119.7 632.895 119.7 633.375 L 119.7 638.055 C 119.7 638.663 119.7 639.143 119.7 639.263 C 119.58 639.383 119.58 639.503 119.46 639.623 C 119.46 639.623 119.34 639.623 119.22 639.623 C 119.1 639.623 118.86 639.623 118.5 639.503 L 118.5 639.623 Z" fill="rgb(0,0,0)" stroke="none"/>
<path d="M 124.027 636.135 C 124.027 637.095 124.147 637.935 124.387 638.662 C 124.747 639.382 125.107 639.982 125.587 640.222 C 125.947 640.582 126.427 640.702 126.787 640.702 C 127.515 640.702 128.115 640.342 128.595 639.622 C 129.315 638.782 129.555 637.695 129.555 636.255 C 129.555 635.295 129.435 634.455 129.195 633.735 C 128.835 633.015 128.475 632.535 127.995 632.175 C 127.635 631.815 127.147 631.695 126.787 631.695 C 125.947 631.695 125.227 632.175 124.627 633.135 C 124.267 633.975 124.027 634.935 124.027 636.135 Z M 125.227 636.015 C 125.227 634.815 125.347 633.855 125.707 633.015 C 125.947 632.415 126.307 632.055 126.787 632.055 C 127.027 632.055 127.267 632.175 127.515 632.415 C 127.755 632.655 127.875 632.895 127.995 633.495 C 128.235 634.215 128.355 635.175 128.355 636.495 C 128.355 637.575 128.235 638.302 127.995 639.022 C 127.875 639.502 127.635 639.862 127.395 640.102 C 127.267 640.222 127.027 640.222 126.787 640.222 C 126.547 640.222 126.307 640.102 126.067 639.862 C 125.707 639.502 125.467 639.022 125.347 638.175 C 125.227 637.455 125.227 636.735 125.227 636.015 Z" fill="rgb(0,0,0)" stroke="none"/>
<path d="M 131.715 633.135 C 131.962 633.135 132.082 633.015 132.202 632.895 C 132.322 632.775 132.442 632.535 132.442 632.415 C 132.442 632.175 132.322 632.055 132.202 631.815 C 132.082 631.695 131.962 631.695 131.715 631.695 C 131.595 631.695 131.355 631.695 131.235 631.815 C 131.115 632.055 130.995 632.175 130.995 632.415 C 130.995 632.535 131.115 632.775 131.235 632.895 C 131.355 633.015 131.475 633.135 131.715 633.135 Z" fill="rgb(0,0,0)" stroke="none"/>
<path d="M 263.82 639.623 L 265.98 640.703 L 266.228 640.703 L 266.228 633.375 C 266.228 632.895 266.228 632.535 266.228 632.415 C 266.228 632.295 266.348 632.295 266.468 632.175 C 266.588 632.175 266.828 632.055 267.308 632.055 L 267.308 631.815 L 263.94 631.815 L 263.94 632.055 C 264.42 632.055 264.66 632.175 264.78 632.175 C 264.9 632.295 265.02 632.295 265.02 632.415 C 265.14 632.535 265.14 632.895 265.14 633.375 L 265.14 638.055 C 265.14 638.663 265.14 639.143 265.02 639.263 C 265.02 639.383 265.02 639.503 264.9 639.623 C 264.78 639.623 264.66 639.623 264.54 639.623 C 264.42 639.623 264.18 639.623 263.94 639.503 L 263.82 639.623 Z" fill="rgb(0,0,0)" stroke="none"/>
<path d="M 270.428 639.623 L 272.595 640.703 L 272.715 640.703 L 272.715 633.375 C 272.715 632.895 272.835 632.535 272.835 632.415 C 272.835 632.295 272.955 632.295 273.075 632.175 C 273.195 632.175 273.435 632.055 273.915 632.055 L 273.915 631.815 L 270.555 631.815 L 270.555 632.055 C 271.035 632.055 271.275 632.175 271.395 632.175 C 271.515 632.295 271.635 632.295 271.635 632.415 C 271.635 632.535 271.755 632.895 271.755 633.375 L 271.755 638.055 C 271.755 638.663 271.635 639.143 271.635 639.263 C 271.635 639.383 271.515 639.503 271.515 639.623 C 271.395 639.623 271.275 639.623 271.155 639.623 C 271.035 639.623 270.795 639.623 270.555 639.503 L 270.428 639.623 Z" fill="rgb(0,0,0)" stroke="none"/>
<path d="M 277.162 633.135 C 277.282 633.135 277.522 633.015 277.642 632.895 C 277.762 632.775 277.882 632.535 277.882 632.415 C 277.882 632.175 277.762 632.055 277.642 631.815 C 277.522 631.695 277.282 631.695 277.162 631.695 C 276.922 631.695 276.802 631.695 276.682 631.815 C 276.442 632.055 276.442 632.175 276.442 632.415 C 276.442 632.535 276.442 632.775 276.682 632.895 C 276.802 633.015 276.922 633.135 277.162 633.135 Z" fill="rgb(0,0,0)" stroke="none"/>
<path d="M 405.66 639.623 L 407.708 640.703 L 407.948 640.703 L 407.948 633.375 C 407.948 632.895 407.948 632.535 408.068 632.415 C 408.068 632.295 408.188 632.295 408.308 632.175 C 408.428 632.175 408.668 632.055 409.028 632.055 L 409.028 631.815 L 405.78 631.815 L 405.78 632.055 C 406.14 632.055 406.5 632.175 406.62 632.175 C 406.74 632.295 406.74 632.295 406.86 632.415 C 406.86 632.535 406.86 632.895 406.86 633.375 L 406.86 638.063 C 406.86 638.663 406.86 639.143 406.86 639.263 C 406.74 639.383 406.74 639.503 406.62 639.623 C 406.62 639.623 406.5 639.623 406.38 639.623 C 406.26 639.623 406.02 639.623 405.78 639.503 L 405.66 639.623 Z" fill="rgb(0,0,0)" stroke="none"/>
<path d="M 416.715 633.495 L 416.115 631.815 L 410.947 631.815 L 410.947 632.055 C 412.507 633.495 413.587 634.575 414.195 635.415 C 414.795 636.255 415.035 637.095 415.035 637.815 C 415.035 638.423 414.915 638.783 414.555 639.143 C 414.195 639.503 413.835 639.743 413.347 639.743 C 412.867 639.743 412.507 639.623 412.147 639.383 C 411.907 639.143 411.667 638.783 411.427 638.303 L 411.187 638.303 C 411.307 639.023 411.547 639.623 412.027 640.103 C 412.507 640.463 412.987 640.703 413.707 640.703 C 414.435 640.703 415.035 640.463 415.515 639.983 C 415.875 639.623 416.115 639.023 416.115 638.423 C 416.115 637.935 416.115 637.575 415.875 637.095 C 415.515 636.375 415.035 635.655 414.315 634.935 C 413.227 633.735 412.627 633.015 412.267 632.775 L 414.555 632.775 C 415.035 632.775 415.395 632.775 415.515 632.895 C 415.755 632.895 415.875 633.015 416.115 633.015 C 416.235 633.135 416.355 633.375 416.475 633.495 L 416.715 633.495 Z" fill="rgb(0,0,0)" stroke="none"/>
<path d="M 418.883 633.135 C 419.123 633.135 419.243 633.015 419.483 632.895 C 419.603 632.775 419.603 632.535 419.603 632.415 C 419.603 632.175 419.603 632.055 419.363 631.815 C 419.243 631.695 419.123 631.695 418.883 631.695 C 418.763 631.695 418.523 631.695 418.403 631.815 C 418.283 632.055 418.155 632.175 418.155 632.415 C 418.155 632.535 418.283 632.775 418.403 632.895 C 418.523 633.015 418.763 633.135 418.883 633.135 Z" fill="rgb(0,0,0)" stroke="none"/>
<path d="M 92.76 644.76 L 519.72 644.76 L 519.72 644.28 L 92.76 644.28 Z" fill="rgb(0,0,0)" fill-rule="evenodd" stroke="none"/>
<path d="M 519.72 644.76 L 520.2 644.76 L 520.2 644.28 L 519.72 644.28 Z M 92.76 644.28 L 93.24 644.28 L 93.24 556.56 L 92.76 556.56 Z M 238.32 644.28 L 238.8 644.28 L 238.8 556.56 L 238.32 556.56 Z M 379.92 644.28 L 380.4 644.28 L 380.4 556.56 L 379.92 556.56 Z" fill="rgb(0,0,0)" fill-rule="evenodd" stroke="none"/>
<path d="M 519.72 644.28 L 520.2 644.28 L 520.2 556.56 L 519.72 556.56 Z" fill="rgb(0,0,0)" stroke="none"/>
<path d="M 118.5 551.565 L 120.54 552.525 L 120.78 552.525 L 120.78 545.198 C 120.78 544.718 120.78 544.478 120.78 544.358 C 120.9 544.238 120.9 544.118 121.02 543.998 C 121.26 543.998 121.5 543.998 121.86 543.878 L 121.86 543.758 L 118.62 543.758 L 118.62 543.878 C 118.98 543.998 119.22 543.998 119.34 543.998 C 119.46 544.118 119.58 544.238 119.7 544.238 C 119.7 544.358 119.7 544.718 119.7 545.198 L 119.7 549.885 C 119.7 550.605 119.7 550.965 119.7 551.085 C 119.58 551.205 119.58 551.325 119.46 551.445 C 119.46 551.445 119.34 551.565 119.22 551.565 C 119.1 551.565 118.86 551.445 118.5 551.325 L 118.5 551.565 Z" fill="rgb(0,0,0)" stroke="none"/>
<path d="M 124.147 550.725 C 124.387 551.325 124.747 551.805 125.107 552.045 C 125.467 552.405 125.947 552.525 126.547 552.525 C 127.267 552.525 127.755 552.285 128.115 551.925 C 128.355 551.565 128.595 551.205 128.595 550.845 C 128.595 550.125 128.115 549.525 127.395 548.797 C 127.875 548.677 128.235 548.317 128.595 547.957 C 128.835 547.597 128.955 547.117 128.955 546.517 C 128.955 545.797 128.715 545.197 128.235 544.597 C 127.635 543.877 126.667 543.517 125.587 543.517 C 124.987 543.517 124.507 543.637 124.387 543.757 C 124.147 543.877 124.027 544.117 124.027 544.237 C 124.027 544.357 124.027 544.477 124.147 544.597 C 124.267 544.597 124.387 544.717 124.507 544.717 C 124.627 544.717 124.747 544.717 124.867 544.597 C 124.987 544.597 125.107 544.597 125.347 544.357 C 125.587 544.237 125.827 544.237 125.947 544.117 C 126.067 544.117 126.187 544.117 126.427 544.117 C 126.787 544.117 127.267 544.237 127.515 544.597 C 127.875 544.957 127.995 545.317 127.995 545.797 C 127.995 546.157 127.995 546.517 127.755 546.757 C 127.635 546.997 127.515 547.237 127.395 547.357 C 127.267 547.477 127.027 547.597 126.667 547.837 C 126.307 547.957 126.067 547.957 125.707 547.957 L 125.467 547.957 L 125.467 548.197 C 125.827 548.197 126.187 548.317 126.547 548.557 C 126.787 548.797 127.147 549.037 127.267 549.277 C 127.395 549.525 127.515 549.885 127.515 550.245 C 127.515 550.605 127.395 550.965 127.027 551.325 C 126.787 551.565 126.427 551.685 126.067 551.685 C 125.347 551.685 124.867 551.325 124.387 550.605 L 124.147 550.725 Z" fill="rgb(0,0,0)" stroke="none"/>
<path d="M 131.715 544.957 C 131.955 544.957 132.075 544.837 132.195 544.717 C 132.315 544.597 132.435 544.477 132.435 544.23 C 132.435 543.99 132.315 543.87 132.195 543.75 C 132.075 543.63 131.955 543.51 131.715 543.51 C 131.595 543.51 131.355 543.63 131.235 543.75 C 131.115 543.87 130.995 543.99 130.995 544.23 C 130.995 544.477 131.115 544.597 131.235 544.717 C 131.355 544.837 131.475 544.957 131.715 544.957 Z" fill="rgb(0,0,0)" stroke="none"/>
<path d="M 263.82 551.565 L 265.98 552.525 L 266.228 552.525 L 266.228 545.198 C 266.228 544.718 266.228 544.478 266.228 544.358 C 266.228 544.238 266.348 544.118 266.468 543.998 C 266.588 543.998 266.828 543.998 267.308 543.878 L 267.308 543.758 L 263.94 543.758 L 263.94 543.878 C 264.42 543.998 264.66 543.998 264.78 543.998 C 264.9 544.118 265.02 544.238 265.02 544.238 C 265.14 544.358 265.14 544.718 265.14 545.198 L 265.14 549.885 C 265.14 550.605 265.14 550.965 265.02 551.085 C 265.02 551.205 265.02 551.325 264.9 551.445 C 264.78 551.445 264.66 551.565 264.54 551.565 C 264.42 551.565 264.18 551.445 263.94 551.325 L 263.82 551.565 Z" fill="rgb(0,0,0)" stroke="none"/>
<path d="M 274.995 546.878 L 274.995 546.038 L 273.795 546.038 L 273.795 543.758 L 272.835 543.758 L 272.835 546.038 L 269.108 546.038 L 269.108 546.758 L 273.075 552.525 L 273.795 552.525 L 273.795 546.878 L 274.995 546.878 Z M 272.835 546.878 L 272.835 551.205 L 269.708 546.878 L 272.835 546.878 Z" fill="rgb(0,0,0)" stroke="none"/>
<path d="M 277.162 544.957 C 277.282 544.957 277.522 544.837 277.642 544.717 C 277.762 544.597 277.882 544.477 277.882 544.237 C 277.882 543.997 277.762 543.877 277.642 543.757 C 277.522 543.637 277.282 543.517 277.162 543.517 C 276.922 543.517 276.802 543.637 276.682 543.757 C 276.442 543.877 276.442 543.997 276.442 544.237 C 276.442 544.477 276.442 544.597 276.682 544.717 C 276.802 544.837 276.922 544.957 277.162 544.957 Z" fill="rgb(0,0,0)" stroke="none"/>
<path d="M 405.66 551.565 L 407.7 552.525 L 407.94 552.525 L 407.94 545.198 C 407.94 544.718 407.94 544.478 408.06 544.358 C 408.06 544.238 408.18 544.118 408.3 543.998 C 408.42 543.998 408.66 543.998 409.02 543.878 L 409.02 543.758 L 405.78 543.758 L 405.78 543.878 C 406.14 543.998 406.5 543.998 406.62 543.998 C 406.74 544.118 406.74 544.238 406.86 544.238 C 406.86 544.358 406.86 544.718 406.86 545.198 L 406.86 549.885 C 406.86 550.605 406.86 550.965 406.86 551.085 C 406.74 551.205 406.74 551.325 406.62 551.445 C 406.62 551.445 406.5 551.565 406.38 551.565 C 406.26 551.565 406.02 551.445 405.78 551.325 L 405.66 551.565 Z" fill="rgb(0,0,0)" stroke="none"/>
<path d="M 416.355 552.405 L 415.875 551.325 L 413.228 551.325 L 412.748 550.125 C 413.835 550.005 414.675 549.525 415.395 548.918 C 415.995 548.318 416.235 547.598 416.235 546.758 C 416.235 546.398 416.115 545.918 415.995 545.558 C 415.755 545.198 415.515 544.838 415.275 544.598 C 414.915 544.238 414.675 544.118 414.315 543.878 C 413.835 543.638 413.348 543.518 412.748 543.518 C 412.268 543.518 411.908 543.638 411.668 543.758 C 411.428 543.998 411.308 544.238 411.308 544.358 C 411.308 544.478 411.308 544.598 411.428 544.718 C 411.548 544.838 411.668 544.838 411.788 544.838 C 411.908 544.838 412.028 544.838 412.148 544.838 C 412.148 544.718 412.388 544.718 412.508 544.598 C 412.868 544.358 413.228 544.238 413.468 544.238 C 414.075 544.238 414.435 544.358 414.795 544.718 C 415.155 545.198 415.395 545.558 415.395 546.158 C 415.395 546.638 415.275 547.118 414.915 547.598 C 414.555 548.078 414.075 548.438 413.468 548.678 C 412.988 548.918 412.388 548.918 411.548 549.038 L 413.228 552.405 L 416.355 552.405 Z" fill="rgb(0,0,0)" stroke="none"/>
<path d="M 418.883 544.957 C 419.123 544.957 419.243 544.837 419.483 544.717 C 419.603 544.597 419.603 544.477 419.603 544.237 C 419.603 543.997 419.603 543.877 419.363 543.757 C 419.243 543.637 419.123 543.517 418.883 543.517 C 418.763 543.517 418.523 543.637 418.403 543.757 C 418.283 543.877 418.155 543.997 418.155 544.237 C 418.155 544.477 418.283 544.597 418.403 544.717 C 418.523 544.837 418.763 544.957 418.883 544.957 Z" fill="rgb(0,0,0)" stroke="none"/>
<path d="M 92.76 556.56 L 519.72 556.56 L 519.72 556.08 L 92.76 556.08 Z" fill="rgb(0,0,0)" fill-rule="evenodd" stroke="none"/>
<path d="M 519.72 556.56 L 520.2 556.56 L 520.2 556.08 L 519.72 556.08 Z M 92.76 556.08 L 93.24 556.08 L 93.24 468.48 L 92.76 468.48 Z M 238.32 556.08 L 238.8 556.08 L 238.8 468.48 L 238.32 468.48 Z M 379.92 556.08 L 380.4 556.08 L 380.4 468.48 L 379.92 468.48 Z" fill="rgb(0,0,0)" fill-rule="evenodd" stroke="none"/>
<path d="M 519.72 556.08 L 520.2 556.08 L 520.2 468.48 L 519.72 468.48 Z" fill="rgb(0,0,0)" stroke="none"/>
<path d="M 118.5 460.628 L 120.54 461.708 L 120.78 461.708 L 120.78 454.38 C 120.78 453.9 120.78 453.54 120.78 453.42 C 120.9 453.3 120.9 453.3 121.02 453.18 C 121.26 453.18 121.5 453.06 121.86 453.06 L 121.86 452.82 L 118.62 452.82 L 118.62 453.06 C 118.98 453.06 119.22 453.18 119.34 453.18 C 119.46 453.3 119.58 453.3 119.7 453.42 C 119.7 453.54 119.7 453.9 119.7 454.38 L 119.7 459.06 C 119.7 459.668 119.7 460.148 119.7 460.268 C 119.58 460.388 119.58 460.508 119.46 460.628 C 119.46 460.628 119.34 460.628 119.22 460.628 C 119.1 460.628 118.86 460.628 118.5 460.508 L 118.5 460.628 Z" fill="rgb(0,0,0)" stroke="none"/>
<path d="M 129.435 461.707 L 129.435 461.467 C 128.835 461.467 128.355 461.347 127.995 461.107 C 127.635 460.987 127.275 460.747 126.915 460.387 C 126.555 460.027 126.315 459.667 126.075 459.187 C 125.828 458.827 125.708 458.227 125.468 457.747 C 126.075 458.107 126.795 458.347 127.395 458.347 C 127.995 458.347 128.475 458.107 128.955 457.627 C 129.315 457.147 129.555 456.547 129.555 455.82 C 129.555 455.1 129.315 454.38 128.835 453.78 C 128.355 453.06 127.635 452.7 126.795 452.7 C 126.195 452.7 125.708 452.94 125.228 453.3 C 124.508 454.02 124.028 454.98 124.028 456.307 C 124.028 457.027 124.268 457.747 124.508 458.467 C 124.868 459.187 125.228 459.787 125.828 460.387 C 126.435 460.867 127.035 461.227 127.515 461.467 C 128.115 461.587 128.595 461.707 128.955 461.707 L 129.435 461.707 Z M 125.348 457.267 C 125.348 456.667 125.228 456.187 125.228 455.82 C 125.228 455.46 125.348 454.98 125.468 454.5 C 125.708 454.02 125.828 453.66 126.195 453.3 C 126.435 453.18 126.675 453.06 127.035 453.06 C 127.395 453.06 127.635 453.18 127.995 453.54 C 128.235 453.9 128.355 454.38 128.355 455.1 C 128.355 455.82 128.235 456.427 127.995 457.027 C 127.635 457.507 127.275 457.747 126.795 457.747 C 126.555 457.747 126.435 457.747 126.195 457.627 C 126.075 457.627 125.708 457.507 125.348 457.267 Z" fill="rgb(0,0,0)" stroke="none"/>
<path d="M 131.715 454.14 C 131.962 454.14 132.082 454.02 132.202 453.9 C 132.322 453.78 132.442 453.532 132.442 453.412 C 132.442 453.172 132.322 453.052 132.202 452.932 C 132.082 452.692 131.962 452.692 131.715 452.692 C 131.595 452.692 131.355 452.692 131.235 452.932 C 131.115 453.052 130.995 453.172 130.995 453.412 C 130.995 453.532 131.115 453.78 131.235 453.9 C 131.355 454.02 131.475 454.14 131.715 454.14 Z" fill="rgb(0,0,0)" stroke="none"/>
<path d="M 263.82 460.628 L 265.98 461.708 L 266.228 461.708 L 266.228 454.38 C 266.228 453.9 266.228 453.54 266.228 453.42 C 266.228 453.3 266.348 453.3 266.468 453.18 C 266.588 453.18 266.828 453.06 267.308 453.06 L 267.308 452.82 L 263.94 452.82 L 263.94 453.06 C 264.42 453.06 264.66 453.18 264.78 453.18 C 264.9 453.3 265.02 453.3 265.02 453.42 C 265.14 453.54 265.14 453.9 265.14 454.38 L 265.14 459.06 C 265.14 459.668 265.14 460.148 265.02 460.268 C 265.02 460.388 265.02 460.508 264.9 460.628 C 264.78 460.628 264.66 460.628 264.54 460.628 C 264.42 460.628 264.18 460.628 263.94 460.508 L 263.82 460.628 Z" fill="rgb(0,0,0)" stroke="none"/>
<path d="M 270.188 461.588 L 274.875 461.588 L 274.875 461.228 L 271.995 452.693 L 271.275 452.693 L 273.915 460.5 L 271.515 460.5 C 271.035 460.5 270.675 460.38 270.428 460.26 C 270.067 460.14 269.827 459.78 269.587 459.42 L 269.348 459.42 L 270.188 461.588 Z" fill="rgb(0,0,0)" stroke="none"/>
<path d="M 277.162 454.14 C 277.282 454.14 277.522 454.02 277.642 453.9 C 277.762 453.78 277.882 453.54 277.882 453.42 C 277.882 453.18 277.762 453.06 277.642 452.82 C 277.522 452.7 277.282 452.7 277.162 452.7 C 276.922 452.7 276.802 452.7 276.682 452.82 C 276.442 453.06 276.442 453.18 276.442 453.42 C 276.442 453.54 276.442 453.78 276.682 453.9 C 276.802 454.02 276.922 454.14 277.162 454.14 Z" fill="rgb(0,0,0)" stroke="none"/>
<path d="M 405.66 460.628 L 407.708 461.708 L 407.948 461.708 L 407.948 454.38 C 407.948 453.9 407.948 453.54 408.068 453.42 C 408.068 453.3 408.188 453.3 408.308 453.18 C 408.428 453.18 408.668 453.06 409.028 453.06 L 409.028 452.82 L 405.78 452.82 L 405.78 453.06 C 406.14 453.06 406.5 453.18 406.62 453.18 C 406.74 453.3 406.74 453.3 406.86 453.42 C 406.86 453.54 406.86 453.9 406.86 454.38 L 406.86 459.068 C 406.86 459.668 406.86 460.148 406.86 460.268 C 406.74 460.388 406.74 460.508 406.62 460.628 C 406.62 460.628 406.5 460.628 406.38 460.628 C 406.26 460.628 406.02 460.628 405.78 460.508 L 405.66 460.628 Z" fill="rgb(0,0,0)" stroke="none"/>
<path d="M 413.227 457.26 C 412.507 457.74 412.027 458.22 411.907 458.58 C 411.667 458.94 411.547 459.3 411.547 459.66 C 411.547 460.14 411.787 460.747 412.267 461.107 C 412.627 461.467 413.227 461.707 413.955 461.707 C 414.675 461.707 415.275 461.467 415.635 461.107 C 416.115 460.747 416.235 460.26 416.235 459.78 C 416.235 459.54 416.235 459.18 415.995 458.82 C 415.755 458.46 415.275 458.1 414.555 457.62 C 415.275 457.02 415.755 456.66 415.995 456.3 C 416.355 455.82 416.475 455.34 416.475 454.86 C 416.475 454.26 416.235 453.78 415.755 453.292 C 415.275 452.932 414.675 452.692 413.955 452.692 C 413.107 452.692 412.507 452.932 412.027 453.412 C 411.667 453.9 411.427 454.38 411.427 454.86 C 411.427 455.22 411.547 455.58 411.907 455.94 C 412.147 456.3 412.507 456.78 413.227 457.26 Z M 414.195 457.86 C 414.675 458.34 415.035 458.7 415.155 458.94 C 415.275 459.3 415.395 459.54 415.395 459.9 C 415.395 460.38 415.275 460.747 415.035 460.987 C 414.795 461.227 414.435 461.347 413.955 461.347 C 413.587 461.347 413.227 461.227 412.867 460.987 C 412.627 460.747 412.507 460.38 412.507 460.02 C 412.507 459.9 412.507 459.66 412.627 459.42 C 412.747 459.18 412.987 458.94 413.107 458.82 L 414.195 457.86 Z M 413.467 457.02 C 413.107 456.66 412.867 456.3 412.747 456.06 C 412.507 455.7 412.507 455.22 412.507 454.86 C 412.507 454.26 412.627 453.9 412.867 453.532 C 413.227 453.172 413.587 453.052 414.075 453.052 C 414.555 453.052 414.915 453.172 415.155 453.412 C 415.395 453.652 415.635 454.02 415.635 454.38 C 415.635 454.74 415.515 454.98 415.395 455.22 C 415.035 455.7 414.435 456.3 413.467 457.02 Z" fill="rgb(0,0,0)" stroke="none"/>
<path d="M 418.883 454.14 C 419.123 454.14 419.243 454.02 419.483 453.9 C 419.603 453.78 419.603 453.54 419.603 453.42 C 419.603 453.18 419.603 453.06 419.363 452.82 C 419.243 452.7 419.123 452.7 418.883 452.7 C 418.763 452.7 418.523 452.7 418.403 452.82 C 418.283 453.06 418.155 453.18 418.155 453.42 C 418.155 453.54 418.283 453.78 418.403 453.9 C 418.523 454.02 418.763 454.14 418.883 454.14 Z" fill="rgb(0,0,0)" stroke="none"/>
<path d="M 92.76 468.48 L 519.72 468.48 L 519.72 468 L 92.76 468 Z" fill="rgb(0,0,0)" fill-rule="evenodd" stroke="none"/>
<path d="M 519.72 468.48 L 520.2 468.48 L 520.2 468 L 519.72 468 Z M 92.76 468.12 L 93.24 468.12 L 93.24 371.76 L 92.76 371.76 Z M 238.32 468.12 L 238.8 468.12 L 238.8 371.76 L 238.32 371.76 Z M 379.92 468.12 L 380.4 468.12 L 380.4 371.76 L 379.92 371.76 Z" fill="rgb(0,0,0)" fill-rule="evenodd" stroke="none"/>
<path d="M 519.72 468.12 L 520.2 468.12 L 520.2 371.76 L 519.72 371.76 Z" fill="rgb(0,0,0)" stroke="none"/>
<path d="M 118.5 366.922 L 120.54 367.882 L 120.78 367.882 L 120.78 360.555 C 120.78 360.075 120.78 359.835 120.78 359.715 C 120.9 359.595 120.9 359.475 121.02 359.355 C 121.26 359.355 121.5 359.355 121.86 359.355 L 121.86 359.115 L 118.62 359.115 L 118.62 359.355 C 118.98 359.355 119.22 359.355 119.34 359.355 C 119.46 359.475 119.58 359.595 119.7 359.595 C 119.7 359.715 119.7 360.075 119.7 360.555 L 119.7 365.242 C 119.7 365.962 119.7 366.322 119.7 366.442 C 119.58 366.682 119.58 366.682 119.46 366.802 C 119.46 366.802 119.34 366.922 119.22 366.922 C 119.1 366.922 118.86 366.802 118.5 366.682 L 118.5 366.922 Z" fill="rgb(0,0,0)" stroke="none"/>
<path d="M 124.147 358.875 L 124.147 359.115 C 124.747 359.115 125.227 359.235 125.707 359.475 C 126.187 359.715 126.667 360.195 127.147 360.795 C 127.635 361.395 127.875 362.115 128.115 362.835 C 127.395 362.475 126.787 362.235 126.187 362.235 C 125.587 362.235 125.107 362.475 124.627 362.955 C 124.267 363.435 124.027 364.035 124.027 364.755 C 124.027 365.603 124.267 366.202 124.627 366.803 C 125.227 367.522 125.827 367.882 126.667 367.882 C 127.395 367.882 127.995 367.642 128.595 367.043 C 129.195 366.322 129.555 365.363 129.555 364.275 C 129.555 363.315 129.315 362.475 128.835 361.635 C 128.355 360.795 127.635 360.075 126.787 359.595 C 126.067 359.115 125.347 358.875 124.507 358.875 L 124.147 358.875 Z M 128.115 363.315 C 128.235 363.915 128.235 364.395 128.235 364.635 C 128.235 365.123 128.235 365.483 128.115 365.962 C 127.875 366.442 127.755 366.803 127.515 367.163 C 127.267 367.402 126.907 367.522 126.547 367.522 C 126.187 367.522 125.827 367.283 125.587 367.043 C 125.347 366.683 125.107 366.202 125.107 365.483 C 125.107 364.515 125.347 363.915 125.707 363.315 C 125.947 362.955 126.307 362.835 126.787 362.835 C 126.907 362.835 127.147 362.835 127.515 362.955 C 127.755 363.075 127.995 363.195 128.115 363.315 Z" fill="rgb(0,0,0)" stroke="none"/>
<path d="M 131.715 360.315 C 131.955 360.315 132.075 360.195 132.195 360.075 C 132.315 359.955 132.435 359.835 132.435 359.587 C 132.435 359.347 132.315 359.227 132.195 359.107 C 132.075 358.987 131.955 358.867 131.715 358.867 C 131.595 358.867 131.355 358.987 131.235 359.107 C 131.115 359.227 130.995 359.347 130.995 359.587 C 130.995 359.835 131.115 359.955 131.235 360.075 C 131.355 360.195 131.475 360.315 131.715 360.315 Z" fill="rgb(0,0,0)" stroke="none"/>
<path d="M 269.468 360.675 L 268.868 359.115 L 263.7 359.115 L 263.7 359.355 C 265.26 360.675 266.348 361.755 266.948 362.715 C 267.548 363.555 267.788 364.275 267.788 365.003 C 267.788 365.603 267.668 366.083 267.308 366.443 C 266.948 366.803 266.588 366.923 266.108 366.923 C 265.62 366.923 265.26 366.803 264.9 366.563 C 264.66 366.323 264.42 365.963 264.18 365.483 L 263.94 365.483 C 264.06 366.203 264.3 366.803 264.78 367.283 C 265.26 367.763 265.74 367.883 266.468 367.883 C 267.188 367.883 267.788 367.643 268.268 367.283 C 268.628 366.803 268.868 366.203 268.868 365.603 C 268.868 365.243 268.868 364.755 268.628 364.275 C 268.268 363.675 267.788 362.955 267.068 362.115 C 265.98 360.915 265.38 360.315 265.02 360.075 L 267.308 360.075 C 267.788 360.075 268.148 360.075 268.268 360.075 C 268.508 360.075 268.628 360.195 268.868 360.315 C 268.988 360.435 269.108 360.555 269.228 360.675 L 269.468 360.675 Z" fill="rgb(0,0,0)" stroke="none"/>
<path d="M 270.555 363.315 C 270.555 364.275 270.675 365.242 270.915 365.962 C 271.275 366.562 271.635 367.162 272.115 367.522 C 272.475 367.762 272.955 367.882 273.315 367.882 C 274.035 367.882 274.635 367.522 275.122 366.922 C 275.842 366.082 276.082 364.882 276.082 363.435 C 276.082 362.475 275.962 361.635 275.722 360.915 C 275.362 360.195 274.995 359.715 274.515 359.355 C 274.155 359.115 273.675 358.875 273.315 358.875 C 272.475 358.875 271.755 359.355 271.155 360.315 C 270.795 361.155 270.555 362.235 270.555 363.315 Z M 271.755 363.195 C 271.755 361.995 271.875 361.035 272.235 360.315 C 272.475 359.595 272.835 359.355 273.315 359.355 C 273.555 359.355 273.795 359.355 274.035 359.595 C 274.275 359.835 274.395 360.195 274.515 360.675 C 274.755 361.395 274.875 362.475 274.875 363.795 C 274.875 364.755 274.755 365.602 274.515 366.202 C 274.395 366.682 274.155 367.042 273.915 367.282 C 273.795 367.402 273.555 367.522 273.315 367.522 C 273.075 367.522 272.835 367.402 272.595 367.162 C 272.235 366.802 271.995 366.202 271.875 365.482 C 271.875 364.635 271.755 363.915 271.755 363.195 Z" fill="rgb(0,0,0)" stroke="none"/>
<path d="M 278.242 360.315 C 278.482 360.315 278.602 360.195 278.722 360.075 C 278.962 359.955 278.962 359.835 278.962 359.595 C 278.962 359.355 278.962 359.235 278.722 359.115 C 278.602 358.995 278.482 358.875 278.242 358.875 C 278.122 358.875 277.882 358.995 277.762 359.115 C 277.642 359.235 277.522 359.355 277.522 359.595 C 277.522 359.835 277.642 359.955 277.762 360.075 C 277.882 360.195 278.122 360.315 278.242 360.315 Z" fill="rgb(0,0,0)" stroke="none"/>
<path d="M 409.627 360.675 L 409.02 359.115 L 403.972 359.115 L 403.972 359.355 C 405.42 360.675 406.5 361.755 407.1 362.715 C 407.7 363.555 408.06 364.275 408.06 365.003 C 408.06 365.603 407.82 366.083 407.46 366.443 C 407.22 366.803 406.74 366.923 406.26 366.923 C 405.9 366.923 405.54 366.803 405.18 366.563 C 404.82 366.323 404.572 365.963 404.452 365.483 L 404.212 365.483 C 404.212 366.203 404.572 366.803 404.94 367.283 C 405.42 367.763 406.02 367.883 406.62 367.883 C 407.34 367.883 407.94 367.643 408.42 367.283 C 408.9 366.803 409.14 366.203 409.14 365.603 C 409.14 365.243 409.02 364.755 408.78 364.275 C 408.54 363.675 407.94 362.955 407.22 362.115 C 406.26 360.915 405.54 360.315 405.3 360.075 L 407.58 360.075 C 408.06 360.075 408.3 360.075 408.54 360.075 C 408.66 360.075 408.9 360.195 409.02 360.315 C 409.14 360.435 409.267 360.555 409.387 360.675 L 409.627 360.675 Z" fill="rgb(0,0,0)" stroke="none"/>
<path d="M 411.787 366.922 L 413.835 367.882 L 414.075 367.882 L 414.075 360.555 C 414.075 360.075 414.075 359.835 414.195 359.715 C 414.195 359.595 414.315 359.475 414.435 359.355 C 414.555 359.355 414.795 359.355 415.155 359.355 L 415.155 359.115 L 411.907 359.115 L 411.907 359.355 C 412.387 359.355 412.627 359.355 412.747 359.355 C 412.867 359.475 412.867 359.595 412.987 359.595 C 412.987 359.715 412.987 360.075 412.987 360.555 L 412.987 365.242 C 412.987 365.962 412.987 366.322 412.987 366.442 C 412.987 366.682 412.867 366.682 412.747 366.802 C 412.747 366.802 412.627 366.922 412.507 366.922 C 412.387 366.922 412.147 366.802 411.907 366.682 L 411.787 366.922 Z" fill="rgb(0,0,0)" stroke="none"/>
<path d="M 418.523 360.315 C 418.643 360.315 418.883 360.195 419.003 360.075 C 419.123 359.955 419.123 359.835 419.123 359.595 C 419.123 359.355 419.123 359.235 419.003 359.115 C 418.883 358.995 418.643 358.875 418.523 358.875 C 418.283 358.875 418.163 358.995 417.923 359.115 C 417.795 359.235 417.795 359.355 417.795 359.595 C 417.795 359.835 417.795 359.955 417.923 360.075 C 418.043 360.195 418.283 360.315 418.523 360.315 Z" fill="rgb(0,0,0)" stroke="none"/>
<path d="M 92.76 371.76 L 526.68 371.76 L 526.68 371.28 L 92.76 371.28 Z" fill="rgb(0,0,0)" fill-rule="evenodd" stroke="none"/>
<path d="M 526.68 371.76 L 527.16 371.76 L 527.16 371.28 L 526.68 371.28 Z M 92.76 371.28 L 93.24 371.28 L 93.24 283.56 L 92.76 283.56 Z M 239.28 371.28 L 239.76 371.28 L 239.76 283.56 L 239.28 283.56 Z M 379.68 371.28 L 380.16 371.28 L 380.16 283.56 L 379.68 283.56 Z" fill="rgb(0,0,0)" fill-rule="evenodd" stroke="none"/>
<path d="M 526.68 371.28 L 527.16 371.28 L 527.16 283.56 L 526.68 283.56 Z" fill="rgb(0,0,0)" stroke="none"/>
<path d="M 122.947 272.617 L 122.34 270.937 L 117.172 270.937 L 117.172 271.177 C 118.74 272.497 119.7 273.697 120.42 274.537 C 121.02 275.377 121.26 276.225 121.26 276.945 C 121.26 277.425 121.14 277.905 120.78 278.265 C 120.42 278.625 120.06 278.745 119.58 278.745 C 119.1 278.745 118.74 278.625 118.372 278.385 C 118.132 278.145 117.892 277.785 117.652 277.305 L 117.412 277.305 C 117.532 278.145 117.772 278.745 118.252 279.105 C 118.74 279.585 119.22 279.825 119.94 279.825 C 120.66 279.825 121.26 279.585 121.62 279.105 C 122.1 278.625 122.34 278.145 122.34 277.545 C 122.34 277.065 122.34 276.585 122.1 276.225 C 121.74 275.497 121.26 274.777 120.54 273.937 C 119.46 272.857 118.86 272.137 118.5 271.897 L 120.78 271.897 C 121.26 271.897 121.62 271.897 121.74 271.897 C 121.98 272.017 122.1 272.017 122.34 272.137 C 122.46 272.257 122.58 272.377 122.7 272.617 L 122.947 272.617 Z" fill="rgb(0,0,0)" stroke="none"/>
<path d="M 129.555 272.617 L 128.955 270.937 L 123.788 270.937 L 123.788 271.177 C 125.228 272.497 126.315 273.697 126.915 274.537 C 127.635 275.377 127.875 276.225 127.875 276.945 C 127.875 277.425 127.755 277.905 127.395 278.265 C 127.035 278.625 126.675 278.745 126.195 278.745 C 125.708 278.745 125.348 278.625 124.988 278.385 C 124.628 278.145 124.388 277.785 124.268 277.305 L 124.028 277.305 C 124.148 278.145 124.388 278.745 124.868 279.105 C 125.348 279.585 125.828 279.825 126.555 279.825 C 127.155 279.825 127.755 279.585 128.235 279.105 C 128.715 278.625 128.955 278.145 128.955 277.545 C 128.955 277.065 128.835 276.585 128.715 276.225 C 128.355 275.497 127.875 274.777 127.155 273.937 C 126.075 272.857 125.468 272.137 125.108 271.897 L 127.395 271.897 C 127.875 271.897 128.235 271.897 128.355 271.897 C 128.595 272.017 128.715 272.017 128.835 272.137 C 129.075 272.257 129.195 272.377 129.315 272.617 L 129.555 272.617 Z" fill="rgb(0,0,0)" stroke="none"/>
<path d="M 131.715 272.137 C 131.962 272.137 132.082 272.137 132.202 271.897 C 132.322 271.777 132.442 271.657 132.442 271.417 C 132.442 271.297 132.322 271.057 132.202 270.937 C 132.082 270.817 131.962 270.697 131.715 270.697 C 131.595 270.697 131.355 270.817 131.235 270.937 C 131.115 271.057 130.995 271.297 130.995 271.417 C 130.995 271.657 131.115 271.777 131.235 272.017 C 131.355 272.137 131.475 272.137 131.715 272.137 Z" fill="rgb(0,0,0)" stroke="none"/>
<path d="M 269.468 272.617 L 268.868 270.937 L 263.7 270.937 L 263.7 271.177 C 265.26 272.497 266.348 273.697 266.948 274.537 C 267.548 275.377 267.788 276.225 267.788 276.945 C 267.788 277.425 267.668 277.905 267.308 278.265 C 266.948 278.625 266.588 278.745 266.108 278.745 C 265.62 278.745 265.26 278.625 264.9 278.385 C 264.66 278.145 264.42 277.785 264.18 277.305 L 263.94 277.305 C 264.06 278.145 264.3 278.745 264.78 279.105 C 265.26 279.585 265.74 279.825 266.468 279.825 C 267.188 279.825 267.788 279.585 268.268 279.105 C 268.628 278.625 268.868 278.145 268.868 277.545 C 268.868 277.065 268.868 276.585 268.628 276.225 C 268.268 275.497 267.788 274.777 267.068 273.937 C 265.98 272.857 265.38 272.137 265.02 271.897 L 267.308 271.897 C 267.788 271.897 268.148 271.897 268.268 271.897 C 268.508 272.017 268.628 272.017 268.868 272.137 C 268.988 272.257 269.108 272.377 269.228 272.617 L 269.468 272.617 Z" fill="rgb(0,0,0)" stroke="none"/>
<path d="M 270.675 277.905 C 270.915 278.505 271.275 278.985 271.635 279.345 C 271.995 279.585 272.475 279.825 273.075 279.825 C 273.795 279.825 274.275 279.585 274.635 279.105 C 274.875 278.745 275.122 278.385 275.122 278.025 C 275.122 277.425 274.635 276.705 273.915 276.105 C 274.395 275.857 274.755 275.497 275.122 275.137 C 275.362 274.777 275.482 274.297 275.482 273.817 C 275.482 273.097 275.242 272.377 274.755 271.897 C 274.155 271.177 273.315 270.817 272.115 270.817 C 271.515 270.817 271.035 270.817 270.915 270.937 C 270.675 271.177 270.555 271.297 270.555 271.417 C 270.555 271.537 270.555 271.657 270.675 271.777 C 270.795 271.897 270.915 271.897 271.035 271.897 C 271.155 271.897 271.275 271.897 271.395 271.897 C 271.515 271.897 271.635 271.777 271.875 271.657 C 272.115 271.537 272.355 271.417 272.475 271.417 C 272.595 271.297 272.715 271.297 272.955 271.297 C 273.315 271.297 273.795 271.537 274.035 271.777 C 274.395 272.137 274.515 272.617 274.515 272.977 C 274.515 273.337 274.515 273.697 274.275 274.057 C 274.275 274.297 274.155 274.417 273.915 274.537 C 273.795 274.777 273.555 274.897 273.195 275.017 C 272.835 275.137 272.595 275.257 272.235 275.257 L 271.995 275.257 L 271.995 275.377 C 272.355 275.497 272.715 275.617 273.075 275.737 C 273.435 275.977 273.675 276.225 273.795 276.465 C 273.915 276.825 274.035 277.065 274.035 277.425 C 274.035 277.905 273.915 278.265 273.555 278.505 C 273.315 278.745 272.955 278.865 272.595 278.865 C 271.875 278.865 271.395 278.505 270.915 277.905 L 270.675 277.905 Z" fill="rgb(0,0,0)" stroke="none"/>
<path d="M 278.242 272.137 C 278.482 272.137 278.602 272.137 278.722 271.897 C 278.962 271.777 278.962 271.657 278.962 271.417 C 278.962 271.297 278.962 271.05 278.722 270.93 C 278.602 270.81 278.482 270.69 278.242 270.69 C 278.122 270.69 277.882 270.81 277.762 270.93 C 277.642 271.05 277.522 271.297 277.522 271.417 C 277.522 271.657 277.642 271.777 277.762 272.017 C 277.882 272.137 278.122 272.137 278.242 272.137 Z" fill="rgb(0,0,0)" stroke="none"/>
<path d="M 409.627 272.617 L 409.027 270.937 L 403.86 270.937 L 403.86 271.177 C 405.42 272.497 406.507 273.697 407.107 274.537 C 407.707 275.377 408.067 276.217 408.067 276.945 C 408.067 277.425 407.827 277.905 407.467 278.265 C 407.227 278.625 406.747 278.745 406.267 278.745 C 405.9 278.745 405.54 278.625 405.18 278.385 C 404.82 278.145 404.58 277.785 404.34 277.305 L 404.1 277.305 C 404.22 278.145 404.58 278.745 404.94 279.105 C 405.42 279.585 406.02 279.825 406.627 279.825 C 407.347 279.825 407.947 279.585 408.427 279.105 C 408.907 278.625 409.147 278.145 409.147 277.545 C 409.147 277.065 409.027 276.585 408.787 276.217 C 408.427 275.497 407.947 274.777 407.227 273.937 C 406.147 272.857 405.54 272.137 405.3 271.897 L 407.587 271.897 C 407.947 271.897 408.307 271.897 408.547 271.897 C 408.667 272.017 408.907 272.017 409.027 272.137 C 409.147 272.257 409.267 272.377 409.387 272.617 L 409.627 272.617 Z" fill="rgb(0,0,0)" stroke="none"/>
<path d="M 416.355 274.178 L 416.355 273.218 L 415.155 273.218 L 415.155 270.938 L 414.075 270.938 L 414.075 273.218 L 410.468 273.218 L 410.468 274.058 L 414.435 279.825 L 415.155 279.825 L 415.155 274.178 L 416.355 274.178 Z M 414.075 274.178 L 414.075 278.385 L 411.068 274.178 L 414.075 274.178 Z" fill="rgb(0,0,0)" stroke="none"/>
<path d="M 418.523 272.137 C 418.643 272.137 418.883 272.137 419.003 271.897 C 419.123 271.777 419.123 271.657 419.123 271.417 C 419.123 271.297 419.123 271.057 419.003 270.937 C 418.883 270.817 418.643 270.697 418.523 270.697 C 418.283 270.697 418.155 270.817 417.915 270.937 C 417.795 271.057 417.795 271.297 417.795 271.417 C 417.795 271.657 417.795 271.777 417.915 272.017 C 418.155 272.137 418.283 272.137 418.523 272.137 Z" fill="rgb(0,0,0)" stroke="none"/>
<path d="M 92.76 283.56 L 526.8 283.56 L 526.8 283.08 L 92.76 283.08 Z" fill="rgb(0,0,0)" fill-rule="evenodd" stroke="none"/>
<path d="M 526.68 283.56 L 527.16 283.56 L 527.16 283.08 L 526.68 283.08 Z M 92.76 283.08 L 93.24 283.08 L 93.24 195.36 L 92.76 195.36 Z M 239.28 283.08 L 239.76 283.08 L 239.76 195.36 L 239.28 195.36 Z M 379.68 283.08 L 380.16 283.08 L 380.16 195.36 L 379.68 195.36 Z" fill="rgb(0,0,0)" fill-rule="evenodd" stroke="none"/>
<path d="M 526.68 283.08 L 527.16 283.08 L 527.16 195.36 L 526.68 195.36 Z" fill="rgb(0,0,0)" stroke="none"/>
<path d="M 122.947 184.44 L 122.34 182.76 L 117.172 182.76 L 117.172 183 C 118.74 184.44 119.7 185.52 120.42 186.36 C 121.02 187.207 121.26 188.047 121.26 188.767 C 121.26 189.367 121.14 189.727 120.78 190.087 C 120.42 190.447 120.06 190.687 119.58 190.687 C 119.1 190.687 118.74 190.567 118.372 190.327 C 118.132 190.087 117.892 189.727 117.652 189.247 L 117.412 189.247 C 117.532 189.967 117.772 190.567 118.252 191.047 C 118.74 191.407 119.22 191.647 119.94 191.647 C 120.66 191.647 121.26 191.407 121.62 190.927 C 122.1 190.567 122.34 189.967 122.34 189.367 C 122.34 188.887 122.34 188.527 122.1 188.047 C 121.74 187.327 121.26 186.6 120.54 185.88 C 119.46 184.68 118.86 183.96 118.5 183.72 L 120.78 183.72 C 121.26 183.72 121.62 183.72 121.74 183.84 C 121.98 183.84 122.1 183.96 122.34 183.96 C 122.46 184.08 122.58 184.2 122.7 184.44 L 122.947 184.44 Z" fill="rgb(0,0,0)" stroke="none"/>
<path d="M 129.195 191.408 L 128.715 190.328 L 126.067 190.328 L 125.467 189.248 C 126.667 189.008 127.515 188.648 128.235 187.928 C 128.715 187.328 129.075 186.72 129.075 185.88 C 129.075 185.4 128.955 185.04 128.835 184.68 C 128.595 184.2 128.355 183.96 128.115 183.6 C 127.755 183.36 127.515 183.12 127.147 183 C 126.667 182.76 126.187 182.64 125.587 182.64 C 125.107 182.64 124.747 182.76 124.507 182.88 C 124.267 183.12 124.147 183.24 124.147 183.48 C 124.147 183.6 124.147 183.72 124.267 183.84 C 124.387 183.84 124.507 183.96 124.627 183.96 C 124.747 183.96 124.867 183.96 124.987 183.84 C 124.987 183.84 125.107 183.72 125.347 183.6 C 125.707 183.36 125.947 183.24 126.307 183.24 C 126.787 183.24 127.267 183.48 127.635 183.84 C 127.995 184.2 128.235 184.68 128.235 185.28 C 128.235 185.76 128.115 186.24 127.755 186.72 C 127.395 187.208 126.907 187.568 126.307 187.808 C 125.827 187.928 125.227 188.048 124.387 188.048 L 126.067 191.408 L 129.195 191.408 Z" fill="rgb(0,0,0)" stroke="none"/>
<path d="M 131.715 184.08 C 131.962 184.08 132.082 183.96 132.202 183.84 C 132.322 183.72 132.442 183.48 132.442 183.36 C 132.442 183.12 132.322 183 132.202 182.76 C 132.082 182.64 131.962 182.64 131.715 182.64 C 131.595 182.64 131.355 182.64 131.235 182.76 C 131.115 183 130.995 183.12 130.995 183.36 C 130.995 183.48 131.115 183.72 131.235 183.84 C 131.355 183.96 131.475 184.08 131.715 184.08 Z" fill="rgb(0,0,0)" stroke="none"/>
<path d="M 269.468 184.44 L 268.868 182.76 L 263.7 182.76 L 263.7 183 C 265.26 184.44 266.348 185.52 266.948 186.36 C 267.548 187.207 267.788 188.047 267.788 188.767 C 267.788 189.367 267.668 189.727 267.308 190.087 C 266.948 190.447 266.588 190.687 266.108 190.687 C 265.62 190.687 265.26 190.567 264.9 190.327 C 264.66 190.087 264.42 189.727 264.18 189.247 L 263.94 189.247 C 264.06 189.967 264.3 190.567 264.78 191.047 C 265.26 191.407 265.74 191.647 266.468 191.647 C 267.188 191.647 267.788 191.407 268.268 190.927 C 268.628 190.567 268.868 189.967 268.868 189.367 C 268.868 188.887 268.868 188.527 268.628 188.047 C 268.268 187.327 267.788 186.6 267.068 185.88 C 265.98 184.68 265.38 183.96 265.02 183.72 L 267.308 183.72 C 267.788 183.72 268.148 183.72 268.268 183.84 C 268.508 183.84 268.628 183.96 268.868 183.96 C 268.988 184.08 269.108 184.2 269.228 184.44 L 269.468 184.44 Z" fill="rgb(0,0,0)" stroke="none"/>
<path d="M 275.963 191.648 L 275.963 191.408 C 275.363 191.408 274.875 191.288 274.515 191.048 C 274.155 190.928 273.795 190.688 273.435 190.328 C 273.075 189.968 272.835 189.608 272.595 189.128 C 272.355 188.768 272.235 188.168 271.995 187.688 C 272.595 188.048 273.315 188.288 273.915 188.288 C 274.515 188.288 274.995 188.048 275.483 187.568 C 275.843 187.08 276.083 186.48 276.083 185.64 C 276.083 184.92 275.843 184.32 275.483 183.72 C 274.875 183 274.155 182.64 273.315 182.64 C 272.715 182.64 272.235 182.88 271.755 183.24 C 271.035 183.96 270.555 184.92 270.555 186.24 C 270.555 186.96 270.795 187.688 271.035 188.408 C 271.395 189.128 271.875 189.728 272.355 190.208 C 272.955 190.808 273.555 191.168 274.035 191.408 C 274.635 191.528 275.123 191.648 275.483 191.648 L 275.963 191.648 Z M 271.875 187.208 C 271.875 186.6 271.755 186.12 271.755 185.76 C 271.755 185.4 271.875 184.92 271.995 184.44 C 272.235 183.96 272.355 183.6 272.715 183.24 C 272.955 183.12 273.195 183 273.555 183 C 273.915 183 274.155 183.12 274.515 183.48 C 274.755 183.84 274.995 184.32 274.995 185.04 C 274.995 185.76 274.755 186.36 274.515 186.96 C 274.275 187.448 273.795 187.688 273.315 187.688 C 273.075 187.688 272.955 187.688 272.715 187.568 C 272.595 187.568 272.235 187.448 271.875 187.208 Z" fill="rgb(0,0,0)" stroke="none"/>
<path d="M 278.242 184.08 C 278.482 184.08 278.602 183.96 278.722 183.833 C 278.962 183.713 278.962 183.473 278.962 183.353 C 278.962 183.113 278.962 182.993 278.722 182.753 C 278.602 182.633 278.482 182.633 278.242 182.633 C 278.122 182.633 277.882 182.633 277.762 182.753 C 277.642 182.993 277.515 183.113 277.515 183.353 C 277.515 183.473 277.642 183.713 277.762 183.833 C 277.882 183.96 278.122 184.08 278.242 184.08 Z" fill="rgb(0,0,0)" stroke="none"/>
<path d="M 409.627 184.44 L 409.02 182.76 L 403.972 182.76 L 403.972 183 C 405.42 184.44 406.5 185.52 407.1 186.36 C 407.7 187.207 408.06 188.047 408.06 188.767 C 408.06 189.367 407.82 189.727 407.46 190.087 C 407.22 190.447 406.74 190.687 406.26 190.687 C 405.9 190.687 405.54 190.567 405.18 190.327 C 404.82 190.087 404.572 189.727 404.452 189.247 L 404.212 189.247 C 404.212 189.967 404.572 190.567 404.94 191.047 C 405.42 191.407 406.02 191.647 406.62 191.647 C 407.34 191.647 407.94 191.407 408.42 190.927 C 408.9 190.567 409.14 189.967 409.14 189.367 C 409.14 188.887 409.02 188.527 408.78 188.047 C 408.54 187.327 407.94 186.6 407.22 185.88 C 406.26 184.68 405.54 183.96 405.3 183.72 L 407.58 183.72 C 408.06 183.72 408.3 183.72 408.54 183.84 C 408.66 183.84 408.9 183.96 409.02 183.96 C 409.14 184.08 409.267 184.2 409.387 184.44 L 409.627 184.44 Z" fill="rgb(0,0,0)" stroke="none"/>
<path d="M 411.547 191.408 L 416.235 191.408 L 416.235 191.168 L 413.347 182.64 L 412.627 182.64 L 415.155 190.448 L 412.747 190.448 C 412.267 190.448 412.027 190.328 411.787 190.208 C 411.427 190.088 411.067 189.728 410.947 189.368 L 410.707 189.368 L 411.547 191.408 Z" fill="rgb(0,0,0)" stroke="none"/>
<path d="M 418.523 184.08 C 418.643 184.08 418.883 183.96 419.003 183.84 C 419.123 183.72 419.123 183.48 419.123 183.36 C 419.123 183.12 419.123 183 419.003 182.76 C 418.883 182.64 418.643 182.64 418.523 182.64 C 418.283 182.64 418.155 182.64 417.915 182.76 C 417.795 183 417.795 183.12 417.795 183.36 C 417.795 183.48 417.795 183.72 417.915 183.84 C 418.155 183.96 418.283 184.08 418.523 184.08 Z" fill="rgb(0,0,0)" stroke="none"/>
<path d="M 92.76 195.48 L 526.8 195.48 L 526.8 195 L 92.76 195 Z" fill="rgb(0,0,0)" fill-rule="evenodd" stroke="none"/>
<path d="M 526.68 195.48 L 527.16 195.48 L 527.16 195 L 526.68 195 Z" fill="rgb(0,0,0)" stroke="none"/>
<path d="M 92.76 195 L 93.24 195 L 93.24 106.8 L 92.76 106.8 Z" fill="rgb(0,0,0)" fill-rule="evenodd" stroke="none"/>
<path d="M 92.76 107.28 L 239.28 107.28 L 239.28 106.8 L 92.76 106.8 Z" fill="rgb(0,0,0)" fill-rule="evenodd" stroke="none"/>
<path d="M 239.28 195 L 239.76 195 L 239.76 106.8 L 239.28 106.8 Z" fill="rgb(0,0,0)" fill-rule="evenodd" stroke="none"/>
<path d="M 239.76 107.28 L 379.8 107.28 L 379.8 106.8 L 239.76 106.8 Z" fill="rgb(0,0,0)" stroke="none"/>
<path d="M 379.68 195 L 380.16 195 L 380.16 106.8 L 379.68 106.8 Z" fill="rgb(0,0,0)" fill-rule="evenodd" stroke="none"/>
<path d="M 380.16 107.28 L 526.8 107.28 L 526.8 106.8 L 380.16 106.8 Z" fill="rgb(0,0,0)" stroke="none"/>
<path d="M 526.68 195 L 527.16 195 L 527.16 106.8 L 526.68 106.8 Z" fill="rgb(0,0,0)" fill-rule="evenodd" stroke="none"/>
<path d="M 526.68 107.28 L 527.16 107.28 L 527.16 106.8 L 526.68 106.8 Z" fill="rgb(0,0,0)" stroke="none"/>
</svg>