<?xml version="1.0" encoding="UTF-8"?>
<svg xmlns="http://www.w3.org/2000/svg" width="612pt" height="792pt" viewBox="0 0 612 792">
<rect x="0" y="0" width="612" height="792" fill="white"/>
<path d="M 304.207 48.21 L 304.207 48.33 C 304.687 48.33 305.167 48.45 305.527 48.69 C 305.887 48.93 306.375 49.29 306.735 49.77 C 307.095 50.37 307.335 50.978 307.575 51.578 C 306.975 51.218 306.375 51.098 306.007 51.098 C 305.407 51.098 304.927 51.218 304.567 51.698 C 304.207 52.058 304.087 52.538 304.087 53.258 C 304.087 53.978 304.207 54.458 304.567 55.058 C 305.047 55.658 305.647 55.898 306.375 55.898 C 306.975 55.898 307.575 55.658 307.935 55.178 C 308.535 54.578 308.775 53.738 308.775 52.898 C 308.775 52.058 308.535 51.218 308.175 50.498 C 307.695 49.77 307.215 49.17 306.495 48.69 C 305.887 48.33 305.167 48.21 304.447 48.21 L 304.207 48.21 Z M 307.575 52.058 C 307.695 52.538 307.695 52.898 307.695 53.138 C 307.695 53.498 307.695 53.858 307.575 54.338 C 307.455 54.698 307.215 55.058 306.975 55.298 C 306.735 55.538 306.495 55.538 306.247 55.538 C 305.887 55.538 305.647 55.418 305.407 55.178 C 305.167 54.818 305.047 54.458 305.047 53.858 C 305.047 53.018 305.167 52.418 305.527 52.058 C 305.767 51.698 306.007 51.578 306.375 51.578 C 306.615 51.578 306.735 51.578 306.975 51.698 C 307.215 51.698 307.455 51.818 307.575 52.058 Z" fill="rgb(0,0,0)" stroke="none"/>
<path d="M 122.1 723.232 L 121.62 721.792 L 117.173 721.792 L 117.173 722.032 C 118.5 723.112 119.34 724.192 119.94 724.912 C 120.42 725.632 120.66 726.352 120.66 726.952 C 120.66 727.44 120.54 727.8 120.3 728.16 C 119.94 728.4 119.58 728.52 119.22 728.52 C 118.86 728.52 118.5 728.52 118.253 728.28 C 117.893 728.04 117.653 727.68 117.533 727.32 L 117.413 727.32 C 117.413 728.04 117.653 728.52 118.013 728.88 C 118.5 729.24 118.98 729.48 119.46 729.48 C 120.06 729.48 120.66 729.24 121.02 728.88 C 121.38 728.4 121.62 728.04 121.62 727.44 C 121.62 727.072 121.5 726.712 121.38 726.352 C 121.14 725.752 120.66 725.032 120.06 724.432 C 119.1 723.472 118.5 722.872 118.373 722.632 L 120.3 722.632 C 120.66 722.632 120.9 722.632 121.14 722.632 C 121.26 722.632 121.38 722.752 121.5 722.872 C 121.62 722.872 121.74 723.112 121.86 723.232 L 122.1 723.232 Z" fill="rgb(0,0,0)" stroke="none"/>
<path d="M 124.748 725.512 C 124.148 725.992 123.788 726.472 123.548 726.712 C 123.428 726.952 123.308 727.32 123.308 727.68 C 123.308 728.16 123.548 728.52 123.908 728.88 C 124.268 729.24 124.748 729.48 125.348 729.48 C 125.948 729.48 126.428 729.24 126.788 728.88 C 127.148 728.64 127.395 728.28 127.395 727.8 C 127.395 727.56 127.268 727.2 127.148 726.952 C 126.908 726.712 126.428 726.352 125.828 725.872 C 126.548 725.392 126.908 725.032 127.148 724.792 C 127.395 724.312 127.515 723.952 127.515 723.592 C 127.515 722.992 127.395 722.632 126.908 722.152 C 126.548 721.792 126.068 721.672 125.348 721.672 C 124.628 721.672 124.148 721.912 123.668 722.272 C 123.428 722.632 123.188 723.112 123.188 723.472 C 123.188 723.832 123.308 724.192 123.548 724.432 C 123.788 724.792 124.148 725.152 124.748 725.512 Z M 125.588 726.112 C 126.068 726.592 126.308 726.832 126.428 727.072 C 126.548 727.32 126.668 727.56 126.668 727.92 C 126.668 728.28 126.548 728.52 126.308 728.76 C 126.068 729 125.828 729.12 125.348 729.12 C 124.988 729.12 124.748 729 124.508 728.76 C 124.268 728.52 124.148 728.28 124.148 728.04 C 124.148 727.8 124.148 727.68 124.268 727.44 C 124.388 727.2 124.508 727.072 124.748 726.832 L 125.588 726.112 Z M 124.988 725.392 C 124.628 725.032 124.508 724.792 124.268 724.552 C 124.148 724.192 124.148 723.832 124.148 723.472 C 124.148 722.992 124.268 722.632 124.508 722.392 C 124.748 722.152 125.108 721.912 125.468 721.912 C 125.828 721.912 126.188 722.032 126.428 722.272 C 126.668 722.512 126.788 722.752 126.788 723.112 C 126.788 723.352 126.668 723.592 126.548 723.832 C 126.308 724.192 125.828 724.672 124.988 725.392 Z" fill="rgb(0,0,0)" stroke="none"/>
<path d="M 129.675 722.873 C 129.795 722.873 129.915 722.753 130.035 722.633 C 130.155 722.513 130.275 722.393 130.275 722.273 C 130.275 722.033 130.155 721.913 130.035 721.793 C 129.915 721.673 129.795 721.673 129.675 721.673 C 129.435 721.673 129.315 721.673 129.195 721.793 C 129.075 721.913 128.955 722.033 128.955 722.273 C 128.955 722.393 129.075 722.513 129.195 722.633 C 129.315 722.753 129.435 722.873 129.675 722.873 Z" fill="rgb(0,0,0)" stroke="none"/>
<path d="M 268.628 723.232 L 268.148 721.792 L 263.7 721.792 L 263.7 722.032 C 265.02 723.112 265.86 724.192 266.468 724.912 C 266.948 725.632 267.188 726.352 267.188 726.952 C 267.188 727.44 267.068 727.8 266.828 728.16 C 266.468 728.4 266.108 728.52 265.74 728.52 C 265.38 728.52 265.02 728.52 264.78 728.28 C 264.42 728.04 264.18 727.68 264.06 727.32 L 263.94 727.32 C 263.94 728.04 264.18 728.52 264.66 728.88 C 265.02 729.24 265.5 729.48 265.98 729.48 C 266.588 729.48 267.188 729.24 267.548 728.88 C 267.908 728.4 268.148 728.04 268.148 727.44 C 268.148 727.072 268.028 726.712 267.908 726.352 C 267.668 725.752 267.188 725.032 266.588 724.432 C 265.62 723.472 265.14 722.872 264.9 722.632 L 266.828 722.632 C 267.188 722.632 267.428 722.632 267.668 722.632 C 267.788 722.632 267.908 722.752 268.028 722.872 C 268.148 722.872 268.268 723.112 268.388 723.232 L 268.628 723.232 Z" fill="rgb(0,0,0)" stroke="none"/>
<path d="M 269.707 721.673 L 269.707 721.793 C 270.187 721.793 270.555 721.913 271.035 722.153 C 271.395 722.393 271.875 722.753 272.235 723.353 C 272.595 723.833 272.835 724.433 273.075 725.033 C 272.475 724.673 271.875 724.553 271.395 724.553 C 270.915 724.553 270.427 724.673 270.067 725.153 C 269.707 725.513 269.587 726.113 269.587 726.713 C 269.587 727.44 269.707 727.92 270.067 728.52 C 270.555 729.12 271.155 729.48 271.875 729.48 C 272.475 729.48 272.955 729.12 273.435 728.64 C 274.035 728.04 274.275 727.2 274.275 726.353 C 274.275 725.513 274.035 724.673 273.675 723.953 C 273.195 723.233 272.715 722.633 271.995 722.273 C 271.395 721.793 270.675 721.673 269.947 721.673 L 269.707 721.673 Z M 273.075 725.513 C 273.195 725.993 273.195 726.353 273.195 726.593 C 273.195 726.953 273.195 727.32 273.075 727.8 C 272.955 728.16 272.715 728.52 272.475 728.76 C 272.235 729 271.995 729.12 271.755 729.12 C 271.395 729.12 271.155 728.88 270.915 728.64 C 270.675 728.28 270.555 727.92 270.555 727.32 C 270.555 726.473 270.675 725.873 271.035 725.513 C 271.275 725.153 271.515 725.033 271.875 725.033 C 272.115 725.033 272.235 725.033 272.475 725.153 C 272.715 725.153 272.955 725.273 273.075 725.513 Z" fill="rgb(0,0,0)" stroke="none"/>
<path d="M 276.202 722.873 C 276.322 722.873 276.442 722.753 276.562 722.633 C 276.682 722.513 276.802 722.393 276.802 722.273 C 276.802 722.033 276.682 721.913 276.562 721.793 C 276.442 721.673 276.322 721.673 276.202 721.673 C 275.962 721.673 275.842 721.673 275.722 721.793 C 275.602 721.913 275.602 722.033 275.602 722.273 C 275.602 722.393 275.602 722.513 275.722 722.633 C 275.842 722.753 275.962 722.873 276.202 722.873 Z" fill="rgb(0,0,0)" stroke="none"/>
<path d="M 404.453 727.8 C 404.693 728.4 404.94 728.76 405.3 729 C 405.54 729.24 406.02 729.48 406.5 729.48 C 407.1 729.48 407.46 729.24 407.82 728.88 C 408.06 728.52 408.18 728.28 408.18 727.92 C 408.18 727.32 407.82 726.833 407.22 726.233 C 407.58 725.993 407.94 725.753 408.18 725.393 C 408.42 725.153 408.54 724.673 408.54 724.313 C 408.54 723.593 408.42 722.993 407.94 722.633 C 407.46 721.913 406.62 721.673 405.66 721.673 C 405.18 721.673 404.82 721.673 404.573 721.793 C 404.453 721.913 404.333 722.153 404.333 722.273 C 404.333 722.393 404.333 722.393 404.453 722.513 C 404.573 722.633 404.693 722.633 404.82 722.633 C 404.82 722.633 404.94 722.633 405.06 722.633 C 405.06 722.633 405.3 722.513 405.42 722.393 C 405.66 722.273 405.9 722.273 405.9 722.153 C 406.02 722.153 406.26 722.153 406.38 722.153 C 406.74 722.153 407.1 722.273 407.34 722.513 C 407.58 722.873 407.7 723.233 407.7 723.593 C 407.7 723.833 407.7 724.193 407.58 724.433 C 407.46 724.673 407.34 724.793 407.22 724.913 C 407.1 725.033 406.86 725.153 406.62 725.273 C 406.38 725.393 406.02 725.513 405.78 725.513 L 405.54 725.513 L 405.54 725.633 C 405.9 725.753 406.14 725.753 406.5 725.993 C 406.74 726.113 406.98 726.353 407.1 726.593 C 407.22 726.833 407.34 727.073 407.34 727.44 C 407.34 727.8 407.22 728.04 406.98 728.28 C 406.74 728.52 406.38 728.64 406.02 728.64 C 405.54 728.64 405.06 728.4 404.573 727.8 L 404.453 727.8 Z" fill="rgb(0,0,0)" stroke="none"/>
<path d="M 409.867 725.512 C 409.867 726.352 410.107 727.072 410.347 727.68 C 410.587 728.28 410.947 728.76 411.307 729.12 C 411.667 729.24 412.027 729.48 412.387 729.48 C 412.987 729.48 413.467 729.12 413.955 728.52 C 414.435 727.8 414.795 726.832 414.795 725.632 C 414.795 724.672 414.675 723.952 414.435 723.352 C 414.195 722.752 413.835 722.392 413.467 722.032 C 412.987 721.792 412.627 721.672 412.267 721.672 C 411.547 721.672 410.947 722.032 410.467 722.872 C 410.107 723.592 409.867 724.432 409.867 725.512 Z M 410.947 725.392 C 410.947 724.312 411.187 723.472 411.427 722.872 C 411.547 722.272 411.907 722.032 412.267 722.032 C 412.507 722.032 412.747 722.032 412.987 722.272 C 413.107 722.392 413.347 722.752 413.467 723.112 C 413.587 723.832 413.707 724.672 413.707 725.872 C 413.707 726.712 413.587 727.44 413.467 727.92 C 413.227 728.4 413.107 728.64 412.867 728.88 C 412.747 729 412.627 729 412.387 729 C 412.147 729 411.907 729 411.667 728.76 C 411.427 728.4 411.187 727.92 411.187 727.32 C 411.067 726.592 410.947 725.992 410.947 725.392 Z" fill="rgb(0,0,0)" stroke="none"/>
<path d="M 416.595 722.873 C 416.715 722.873 416.955 722.753 416.955 722.633 C 417.075 722.513 417.195 722.393 417.195 722.273 C 417.195 722.033 417.075 721.913 416.955 721.793 C 416.835 721.673 416.715 721.673 416.595 721.673 C 416.355 721.673 416.235 721.673 416.115 721.793 C 415.995 721.913 415.995 722.033 415.995 722.273 C 415.995 722.393 415.995 722.513 416.115 722.633 C 416.235 722.753 416.355 722.873 416.595 722.873 Z" fill="rgb(0,0,0)" stroke="none"/>
<path d="M 92.76 732.84 L 526.8 732.84 L 526.8 732.36 L 92.76 732.36 Z" fill="rgb(0,0,0)" fill-rule="evenodd" stroke="none"/>
<path d="M 526.68 732.84 L 527.16 732.84 L 527.16 732.36 L 526.68 732.36 Z M 92.76 732.36 L 93.24 732.36 L 93.24 646.68 L 92.76 646.68 Z M 239.52 732.36 L 240 732.36 L 240 646.68 L 239.52 646.68 Z M 379.68 732.36 L 380.16 732.36 L 380.16 646.68 L 379.68 646.68 Z" fill="rgb(0,0,0)" fill-rule="evenodd" stroke="none"/>
<path d="M 526.68 732.36 L 527.16 732.36 L 527.16 646.68 L 526.68 646.68 Z" fill="rgb(0,0,0)" stroke="none"/>
<path d="M 113.445 641.902 C 113.685 642.502 113.925 642.862 114.292 643.102 C 114.652 643.342 115.012 643.582 115.492 643.582 C 116.092 643.582 116.572 643.342 116.932 642.982 C 117.172 642.622 117.292 642.382 117.292 642.022 C 117.292 641.422 116.932 640.942 116.212 640.342 C 116.692 640.102 117.052 639.862 117.292 639.622 C 117.532 639.262 117.652 638.782 117.652 638.422 C 117.652 637.695 117.412 637.215 117.052 636.735 C 116.452 636.135 115.732 635.775 114.652 635.775 C 114.172 635.775 113.805 635.775 113.685 636.015 C 113.445 636.135 113.325 636.255 113.325 636.375 C 113.325 636.495 113.445 636.615 113.445 636.615 C 113.565 636.735 113.685 636.735 113.805 636.735 C 113.925 636.735 113.925 636.735 114.052 636.735 C 114.172 636.735 114.292 636.615 114.532 636.495 C 114.772 636.375 114.892 636.375 115.012 636.255 C 115.132 636.255 115.252 636.255 115.372 636.255 C 115.732 636.255 116.092 636.375 116.332 636.735 C 116.692 636.975 116.812 637.335 116.812 637.695 C 116.812 638.055 116.692 638.302 116.572 638.542 C 116.452 638.782 116.452 638.902 116.332 639.022 C 116.092 639.142 115.972 639.262 115.612 639.382 C 115.372 639.502 115.132 639.622 114.772 639.622 L 114.652 639.622 L 114.652 639.742 C 114.892 639.862 115.252 639.982 115.492 640.102 C 115.732 640.222 115.972 640.462 116.092 640.702 C 116.212 640.942 116.332 641.182 116.332 641.542 C 116.332 641.902 116.212 642.262 115.972 642.382 C 115.732 642.622 115.492 642.742 115.132 642.742 C 114.532 642.742 114.052 642.502 113.685 641.902 L 113.445 641.902 Z" fill="rgb(0,0,0)" stroke="none"/>
<path d="M 119.94 642.623 L 121.74 643.583 L 121.86 643.583 L 121.86 637.215 C 121.86 636.855 121.86 636.495 121.98 636.495 C 121.98 636.375 122.1 636.255 122.1 636.255 C 122.22 636.135 122.46 636.135 122.82 636.135 L 122.82 635.895 L 120.06 635.895 L 120.06 636.135 C 120.42 636.135 120.54 636.135 120.66 636.255 C 120.78 636.255 120.9 636.375 120.9 636.375 C 120.9 636.495 121.02 636.735 121.02 637.215 L 121.02 641.303 C 121.02 641.783 120.9 642.143 120.9 642.263 C 120.9 642.383 120.9 642.503 120.78 642.623 C 120.66 642.623 120.66 642.623 120.54 642.623 C 120.42 642.623 120.18 642.623 119.94 642.503 L 119.94 642.623 Z" fill="rgb(0,0,0)" stroke="none"/>
<path d="M 125.587 636.975 C 125.827 636.975 125.947 636.855 126.067 636.735 C 126.187 636.615 126.187 636.495 126.187 636.375 C 126.187 636.135 126.187 636.015 126.067 635.895 C 125.947 635.775 125.827 635.775 125.587 635.775 C 125.467 635.775 125.347 635.775 125.227 635.895 C 125.107 636.015 124.987 636.135 124.987 636.375 C 124.987 636.495 125.107 636.735 125.227 636.855 C 125.347 636.855 125.467 636.975 125.587 636.975 Z" fill="rgb(0,0,0)" stroke="none"/>
<path d="M 260.452 641.902 C 260.692 642.502 260.932 642.862 261.292 643.102 C 261.66 643.342 262.02 643.582 262.5 643.582 C 263.1 643.582 263.58 643.342 263.94 642.982 C 264.18 642.622 264.3 642.382 264.3 642.022 C 264.3 641.422 263.94 640.942 263.22 640.342 C 263.7 640.102 264.06 639.862 264.3 639.622 C 264.54 639.262 264.66 638.782 264.66 638.422 C 264.66 637.695 264.42 637.215 263.94 636.735 C 263.46 636.135 262.74 635.775 261.66 635.775 C 261.172 635.775 260.812 635.775 260.572 636.015 C 260.452 636.135 260.332 636.255 260.332 636.375 C 260.332 636.495 260.452 636.615 260.452 636.615 C 260.572 636.735 260.692 636.735 260.812 636.735 C 260.932 636.735 260.932 636.735 261.052 636.735 C 261.172 636.735 261.292 636.615 261.532 636.495 C 261.78 636.375 261.9 636.375 262.02 636.255 C 262.14 636.255 262.26 636.255 262.38 636.255 C 262.74 636.255 263.1 636.375 263.34 636.735 C 263.7 636.975 263.82 637.335 263.82 637.695 C 263.82 638.055 263.7 638.302 263.58 638.542 C 263.46 638.782 263.46 638.902 263.34 639.022 C 263.1 639.142 262.86 639.262 262.62 639.382 C 262.38 639.502 262.14 639.622 261.78 639.622 L 261.66 639.622 L 261.66 639.742 C 261.9 639.862 262.26 639.982 262.5 640.102 C 262.74 640.222 262.98 640.462 263.1 640.702 C 263.22 640.942 263.34 641.182 263.34 641.542 C 263.34 641.902 263.22 642.262 262.98 642.382 C 262.74 642.622 262.5 642.742 262.14 642.742 C 261.532 642.742 261.052 642.502 260.692 641.902 L 260.452 641.902 Z" fill="rgb(0,0,0)" stroke="none"/>
<path d="M 270.795 637.335 L 270.187 635.895 L 265.74 635.895 L 265.74 636.135 C 267.067 637.335 268.027 638.302 268.507 639.022 C 269.107 639.742 269.347 640.462 269.347 641.062 C 269.347 641.542 269.227 641.902 268.867 642.262 C 268.627 642.502 268.267 642.742 267.907 642.742 C 267.547 642.742 267.187 642.622 266.827 642.382 C 266.587 642.142 266.347 641.902 266.227 641.422 L 265.98 641.422 C 266.107 642.142 266.347 642.622 266.707 642.982 C 267.067 643.342 267.547 643.582 268.147 643.582 C 268.747 643.582 269.227 643.342 269.707 642.982 C 270.067 642.622 270.307 642.142 270.307 641.542 C 270.307 641.182 270.187 640.822 270.067 640.462 C 269.707 639.862 269.347 639.262 268.747 638.542 C 267.787 637.575 267.187 636.975 266.947 636.735 L 268.987 636.735 C 269.347 636.735 269.587 636.735 269.707 636.735 C 269.947 636.855 270.067 636.855 270.187 636.975 C 270.307 637.095 270.427 637.215 270.555 637.335 L 270.795 637.335 Z" fill="rgb(0,0,0)" stroke="none"/>
<path d="M 272.595 636.975 C 272.835 636.975 272.955 636.855 273.075 636.735 C 273.195 636.615 273.195 636.495 273.195 636.375 C 273.195 636.135 273.195 636.015 273.075 635.895 C 272.955 635.775 272.835 635.775 272.595 635.775 C 272.475 635.775 272.355 635.775 272.235 635.895 C 272.115 636.015 271.995 636.135 271.995 636.375 C 271.995 636.495 272.115 636.735 272.235 636.855 C 272.355 636.855 272.475 636.975 272.595 636.975 Z" fill="rgb(0,0,0)" stroke="none"/>
<path d="M 400.732 641.902 C 400.972 642.502 401.212 642.862 401.572 643.102 C 401.932 643.342 402.292 643.582 402.772 643.582 C 403.372 643.582 403.852 643.342 404.212 642.982 C 404.452 642.622 404.572 642.382 404.572 642.022 C 404.572 641.422 404.212 640.942 403.492 640.342 C 403.972 640.102 404.332 639.862 404.572 639.622 C 404.82 639.262 404.94 638.782 404.94 638.422 C 404.94 637.695 404.692 637.215 404.332 636.735 C 403.732 636.135 403.012 635.775 401.932 635.775 C 401.452 635.775 401.092 635.775 400.972 636.015 C 400.732 636.135 400.612 636.255 400.612 636.375 C 400.612 636.495 400.732 636.615 400.732 636.615 C 400.852 636.735 400.972 636.735 401.092 636.735 C 401.212 636.735 401.332 636.735 401.332 636.735 C 401.452 636.735 401.572 636.615 401.812 636.495 C 402.052 636.375 402.172 636.375 402.292 636.255 C 402.412 636.255 402.532 636.255 402.652 636.255 C 403.012 636.255 403.372 636.375 403.612 636.735 C 403.972 636.975 404.092 637.335 404.092 637.695 C 404.092 638.055 403.972 638.302 403.852 638.542 C 403.852 638.782 403.732 638.902 403.612 639.022 C 403.372 639.142 403.252 639.262 402.892 639.382 C 402.652 639.502 402.412 639.622 402.052 639.622 L 401.932 639.622 L 401.932 639.742 C 402.172 639.862 402.532 639.982 402.772 640.102 C 403.012 640.222 403.252 640.462 403.372 640.702 C 403.492 640.942 403.612 641.182 403.612 641.542 C 403.612 641.902 403.492 642.262 403.252 642.382 C 403.012 642.622 402.772 642.742 402.412 642.742 C 401.812 642.742 401.332 642.502 400.972 641.902 L 400.732 641.902 Z" fill="rgb(0,0,0)" stroke="none"/>
<path d="M 406.38 641.902 C 406.62 642.502 406.86 642.862 407.22 643.102 C 407.58 643.342 407.94 643.582 408.42 643.582 C 409.02 643.582 409.508 643.342 409.868 642.982 C 410.108 642.622 410.228 642.382 410.228 642.022 C 410.228 641.422 409.868 640.942 409.14 640.342 C 409.628 640.102 409.988 639.862 410.228 639.622 C 410.468 639.262 410.588 638.782 410.588 638.422 C 410.588 637.695 410.348 637.215 409.988 636.735 C 409.388 636.135 408.66 635.775 407.58 635.775 C 407.1 635.775 406.74 635.775 406.62 636.015 C 406.38 636.135 406.26 636.255 406.26 636.375 C 406.26 636.495 406.38 636.615 406.38 636.615 C 406.5 636.735 406.62 636.735 406.74 636.735 C 406.86 636.735 406.98 636.735 406.98 636.735 C 407.1 636.735 407.22 636.615 407.46 636.495 C 407.7 636.375 407.82 636.375 407.94 636.255 C 408.06 636.255 408.18 636.255 408.3 636.255 C 408.66 636.255 409.02 636.375 409.268 636.735 C 409.628 636.975 409.748 637.335 409.748 637.695 C 409.748 638.055 409.628 638.302 409.508 638.542 C 409.508 638.782 409.388 638.902 409.268 639.022 C 409.02 639.142 408.9 639.262 408.54 639.382 C 408.3 639.502 408.06 639.622 407.7 639.622 L 407.58 639.622 L 407.58 639.742 C 407.82 639.862 408.18 639.982 408.42 640.102 C 408.78 640.222 408.9 640.462 409.02 640.702 C 409.14 640.942 409.268 641.182 409.268 641.542 C 409.268 641.902 409.14 642.262 408.9 642.382 C 408.66 642.622 408.42 642.742 408.06 642.742 C 407.46 642.742 406.98 642.502 406.62 641.902 L 406.38 641.902 Z" fill="rgb(0,0,0)" stroke="none"/>
<path d="M 412.867 636.975 C 413.107 636.975 413.227 636.855 413.347 636.735 C 413.467 636.615 413.467 636.495 413.467 636.375 C 413.467 636.135 413.467 636.015 413.347 635.895 C 413.227 635.775 413.107 635.775 412.867 635.775 C 412.747 635.775 412.627 635.775 412.507 635.895 C 412.387 636.015 412.267 636.135 412.267 636.375 C 412.267 636.495 412.387 636.735 412.507 636.855 C 412.627 636.855 412.747 636.975 412.867 636.975 Z" fill="rgb(0,0,0)" stroke="none"/>
<path d="M 92.76 646.68 L 526.8 646.68 L 526.8 646.2 L 92.76 646.2 Z" fill="rgb(0,0,0)" fill-rule="evenodd" stroke="none"/>
<path d="M 526.68 646.68 L 527.16 646.68 L 527.16 646.2 L 526.68 646.2 Z M 92.76 646.32 L 93.24 646.32 L 93.24 509.16 L 92.76 509.16 Z M 239.52 646.32 L 240 646.32 L 240 509.16 L 239.52 509.16 Z M 379.68 646.32 L 380.16 646.32 L 380.16 509.16 L 379.68 509.16 Z" fill="rgb(0,0,0)" fill-rule="evenodd" stroke="none"/>
<path d="M 526.68 646.32 L 527.16 646.32 L 527.16 509.16 L 526.68 509.16 Z" fill="rgb(0,0,0)" stroke="none"/>
<path d="M 117.533 504.112 C 117.653 504.592 118.013 504.952 118.253 505.312 C 118.62 505.552 118.98 505.672 119.46 505.672 C 120.06 505.672 120.54 505.432 120.9 505.072 C 121.14 504.832 121.26 504.472 121.26 504.112 C 121.26 503.632 120.9 503.032 120.18 502.432 C 120.66 502.312 121.02 502.072 121.26 501.712 C 121.5 501.345 121.62 500.985 121.62 500.505 C 121.62 499.905 121.38 499.305 121.02 498.825 C 120.42 498.225 119.7 497.865 118.62 497.865 C 118.133 497.865 117.773 497.985 117.653 498.105 C 117.413 498.225 117.413 498.345 117.413 498.465 C 117.413 498.585 117.413 498.705 117.533 498.825 C 117.533 498.825 117.653 498.945 117.773 498.945 C 117.893 498.945 118.013 498.945 118.133 498.825 C 118.133 498.825 118.253 498.825 118.5 498.705 C 118.74 498.585 118.86 498.465 118.98 498.465 C 119.1 498.465 119.22 498.345 119.46 498.345 C 119.82 498.345 120.06 498.585 120.42 498.825 C 120.66 499.065 120.78 499.425 120.78 499.905 C 120.78 500.145 120.78 500.385 120.66 500.745 C 120.54 500.865 120.42 501.105 120.3 501.225 C 120.18 501.345 119.94 501.465 119.7 501.592 C 119.34 501.712 119.1 501.712 118.86 501.712 L 118.62 501.712 L 118.62 501.952 C 118.86 501.952 119.22 502.072 119.46 502.192 C 119.82 502.432 120.06 502.672 120.18 502.912 C 120.3 503.152 120.3 503.392 120.3 503.632 C 120.3 503.992 120.18 504.352 119.94 504.592 C 119.7 504.832 119.46 504.952 119.1 504.952 C 118.5 504.952 118.013 504.592 117.653 503.992 L 117.533 504.112 Z" fill="rgb(0,0,0)" stroke="none"/>
<path d="M 127.875 500.745 L 127.875 500.025 L 126.787 500.025 L 126.787 498.105 L 125.948 498.105 L 125.948 500.025 L 122.7 500.025 L 122.7 500.745 L 126.188 505.673 L 126.787 505.673 L 126.787 500.745 L 127.875 500.745 Z M 125.948 500.745 L 125.948 504.473 L 123.308 500.745 L 125.948 500.745 Z" fill="rgb(0,0,0)" stroke="none"/>
<path d="M 129.675 499.065 C 129.795 499.065 129.915 499.065 130.035 498.945 C 130.155 498.825 130.275 498.705 130.275 498.465 C 130.275 498.345 130.155 498.225 130.035 498.105 C 129.915 497.985 129.795 497.865 129.675 497.865 C 129.435 497.865 129.315 497.985 129.195 498.105 C 129.075 498.225 128.955 498.345 128.955 498.465 C 128.955 498.705 129.075 498.825 129.195 498.945 C 129.315 499.065 129.435 499.065 129.675 499.065 Z" fill="rgb(0,0,0)" stroke="none"/>
<path d="M 264.06 504.112 C 264.18 504.592 264.54 504.952 264.78 505.312 C 265.147 505.552 265.507 505.672 265.987 505.672 C 266.587 505.672 267.067 505.432 267.427 505.072 C 267.667 504.832 267.787 504.472 267.787 504.112 C 267.787 503.632 267.427 503.032 266.707 502.432 C 267.187 502.312 267.547 502.072 267.787 501.712 C 268.027 501.345 268.147 500.985 268.147 500.505 C 268.147 499.905 267.907 499.305 267.547 498.825 C 266.947 498.225 266.227 497.865 265.147 497.865 C 264.66 497.865 264.3 497.985 264.18 498.105 C 263.94 498.225 263.94 498.345 263.94 498.465 C 263.94 498.585 263.94 498.705 264.06 498.825 C 264.06 498.825 264.18 498.945 264.3 498.945 C 264.42 498.945 264.54 498.945 264.66 498.825 C 264.66 498.825 264.78 498.825 265.027 498.705 C 265.267 498.585 265.387 498.465 265.507 498.465 C 265.627 498.465 265.747 498.345 265.987 498.345 C 266.347 498.345 266.587 498.585 266.947 498.825 C 267.187 499.065 267.307 499.425 267.307 499.905 C 267.307 500.145 267.307 500.385 267.187 500.745 C 267.067 500.865 266.947 501.105 266.827 501.225 C 266.707 501.345 266.467 501.465 266.227 501.592 C 265.867 501.712 265.627 501.712 265.387 501.712 L 265.147 501.712 L 265.147 501.952 C 265.387 501.952 265.747 502.072 265.987 502.192 C 266.347 502.432 266.587 502.672 266.707 502.912 C 266.827 503.152 266.827 503.392 266.827 503.632 C 266.827 503.992 266.707 504.352 266.467 504.592 C 266.227 504.832 265.987 504.952 265.627 504.952 C 265.027 504.952 264.54 504.592 264.18 503.992 L 264.06 504.112 Z" fill="rgb(0,0,0)" stroke="none"/>
<path d="M 274.035 505.553 L 273.555 504.593 L 271.275 504.593 L 270.795 503.633 C 271.755 503.393 272.595 503.033 273.195 502.553 C 273.675 501.953 273.915 501.465 273.915 500.745 C 273.915 500.385 273.795 500.025 273.675 499.665 C 273.435 499.305 273.315 499.065 273.075 498.825 C 272.835 498.585 272.475 498.345 272.235 498.225 C 271.755 497.985 271.395 497.865 270.915 497.865 C 270.428 497.865 270.188 497.985 269.948 498.105 C 269.708 498.345 269.588 498.465 269.588 498.705 C 269.588 498.705 269.708 498.825 269.708 498.945 C 269.828 498.945 269.948 499.065 270.068 499.065 C 270.188 499.065 270.308 499.065 270.308 498.945 C 270.428 498.945 270.555 498.945 270.675 498.825 C 270.915 498.585 271.275 498.465 271.515 498.465 C 271.995 498.465 272.355 498.585 272.715 498.945 C 272.955 499.305 273.195 499.665 273.195 500.145 C 273.195 500.625 272.955 500.985 272.715 501.465 C 272.475 501.833 271.995 502.073 271.515 502.313 C 271.155 502.553 270.555 502.553 269.828 502.673 L 271.275 505.553 L 274.035 505.553 Z" fill="rgb(0,0,0)" stroke="none"/>
<path d="M 276.202 499.065 C 276.322 499.065 276.442 499.065 276.562 498.945 C 276.682 498.825 276.802 498.705 276.802 498.465 C 276.802 498.345 276.682 498.225 276.562 498.105 C 276.442 497.985 276.322 497.865 276.202 497.865 C 275.962 497.865 275.842 497.985 275.722 498.105 C 275.602 498.225 275.602 498.345 275.602 498.465 C 275.602 498.705 275.602 498.825 275.722 498.945 C 275.842 499.065 275.962 499.065 276.202 499.065 Z" fill="rgb(0,0,0)" stroke="none"/>
<path d="M 404.453 504.112 C 404.693 504.592 404.94 504.952 405.3 505.312 C 405.54 505.552 406.02 505.672 406.5 505.672 C 407.1 505.672 407.46 505.432 407.82 505.072 C 408.06 504.832 408.18 504.472 408.18 504.112 C 408.18 503.632 407.82 503.032 407.22 502.432 C 407.58 502.312 407.94 502.072 408.18 501.712 C 408.42 501.345 408.54 500.985 408.54 500.505 C 408.54 499.905 408.42 499.305 407.94 498.825 C 407.46 498.225 406.62 497.865 405.66 497.865 C 405.18 497.865 404.82 497.985 404.573 498.105 C 404.453 498.225 404.333 498.345 404.333 498.465 C 404.333 498.585 404.333 498.705 404.453 498.825 C 404.573 498.825 404.693 498.945 404.82 498.945 C 404.82 498.945 404.94 498.945 405.06 498.825 C 405.06 498.825 405.3 498.825 405.42 498.705 C 405.66 498.585 405.9 498.465 405.9 498.465 C 406.02 498.465 406.26 498.345 406.38 498.345 C 406.74 498.345 407.1 498.585 407.34 498.825 C 407.58 499.065 407.7 499.425 407.7 499.905 C 407.7 500.145 407.7 500.385 407.58 500.745 C 407.46 500.865 407.34 501.105 407.22 501.225 C 407.1 501.345 406.86 501.465 406.62 501.592 C 406.38 501.712 406.02 501.712 405.78 501.712 L 405.54 501.712 L 405.54 501.952 C 405.9 501.952 406.14 502.072 406.5 502.192 C 406.74 502.432 406.98 502.672 407.1 502.912 C 407.22 503.152 407.34 503.392 407.34 503.632 C 407.34 503.992 407.22 504.352 406.98 504.592 C 406.74 504.832 406.38 504.952 406.02 504.952 C 405.54 504.952 405.06 504.592 404.573 503.992 L 404.453 504.112 Z" fill="rgb(0,0,0)" stroke="none"/>
<path d="M 414.555 505.673 L 414.555 505.433 C 414.075 505.433 413.707 505.313 413.347 505.193 C 413.107 505.073 412.747 504.833 412.507 504.473 C 412.147 504.233 411.907 503.873 411.787 503.513 C 411.547 503.153 411.427 502.673 411.187 502.193 C 411.787 502.553 412.267 502.793 412.867 502.793 C 413.347 502.793 413.835 502.553 414.195 502.193 C 414.555 501.713 414.675 501.225 414.675 500.505 C 414.675 499.905 414.555 499.425 414.195 498.825 C 413.707 498.225 413.107 497.865 412.387 497.865 C 411.787 497.865 411.427 498.105 411.067 498.465 C 410.347 499.065 409.987 499.905 409.987 500.985 C 409.987 501.713 410.107 502.313 410.347 502.913 C 410.707 503.513 411.067 503.993 411.547 504.473 C 412.027 504.953 412.507 505.313 412.987 505.433 C 413.467 505.553 413.835 505.673 414.315 505.673 L 414.555 505.673 Z M 411.187 501.833 C 411.067 501.345 411.067 500.865 411.067 500.625 C 411.067 500.265 411.067 499.905 411.187 499.425 C 411.427 499.065 411.547 498.705 411.787 498.465 C 412.027 498.345 412.267 498.225 412.507 498.225 C 412.867 498.225 413.107 498.345 413.347 498.705 C 413.587 498.945 413.707 499.425 413.707 499.905 C 413.707 500.625 413.587 501.105 413.347 501.593 C 413.107 502.073 412.747 502.313 412.267 502.313 C 412.147 502.313 412.027 502.313 411.907 502.193 C 411.667 502.193 411.427 502.073 411.187 501.833 Z" fill="rgb(0,0,0)" stroke="none"/>
<path d="M 416.595 499.065 C 416.715 499.065 416.955 499.065 416.955 498.945 C 417.075 498.825 417.195 498.705 417.195 498.465 C 417.195 498.345 417.075 498.225 416.955 498.105 C 416.835 497.985 416.715 497.865 416.595 497.865 C 416.355 497.865 416.235 497.985 416.115 498.105 C 415.995 498.225 415.995 498.345 415.995 498.465 C 415.995 498.705 415.995 498.825 416.115 498.945 C 416.235 499.065 416.355 499.065 416.595 499.065 Z" fill="rgb(0,0,0)" stroke="none"/>
<path d="M 92.76 509.16 L 526.8 509.16 L 526.8 508.68 L 92.76 508.68 Z" fill="rgb(0,0,0)" fill-rule="evenodd" stroke="none"/>
<path d="M 526.68 509.16 L 527.16 509.16 L 527.16 508.68 L 526.68 508.68 Z M 92.76 508.68 L 93.24 508.68 L 93.24 371.28 L 92.76 371.28 Z M 239.52 508.68 L 240 508.68 L 240 371.28 L 239.52 371.28 Z M 379.68 508.68 L 380.16 508.68 L 380.16 371.28 L 379.68 371.28 Z" fill="rgb(0,0,0)" fill-rule="evenodd" stroke="none"/>
<path d="M 526.68 508.68 L 527.16 508.68 L 527.16 371.28 L 526.68 371.28 Z" fill="rgb(0,0,0)" stroke="none"/>
<path d="M 117.533 366.443 C 117.653 366.923 118.013 367.403 118.253 367.643 C 118.62 367.883 118.98 368.003 119.46 368.003 C 120.06 368.003 120.54 367.883 120.9 367.523 C 121.14 367.163 121.26 366.923 121.26 366.563 C 121.26 365.963 120.9 365.483 120.18 364.883 C 120.66 364.635 121.02 364.395 121.26 364.035 C 121.5 363.795 121.62 363.315 121.62 362.835 C 121.62 362.235 121.38 361.635 121.02 361.155 C 120.42 360.555 119.7 360.315 118.62 360.315 C 118.133 360.315 117.773 360.315 117.653 360.435 C 117.413 360.555 117.413 360.675 117.413 360.915 C 117.413 361.035 117.413 361.035 117.533 361.155 C 117.533 361.275 117.653 361.275 117.773 361.275 C 117.893 361.275 118.013 361.275 118.133 361.275 C 118.133 361.275 118.253 361.155 118.5 361.035 C 118.74 360.915 118.86 360.795 118.98 360.795 C 119.1 360.795 119.22 360.795 119.46 360.795 C 119.82 360.795 120.06 360.915 120.42 361.155 C 120.66 361.515 120.78 361.875 120.78 362.235 C 120.78 362.475 120.78 362.835 120.66 363.075 C 120.54 363.315 120.42 363.435 120.3 363.555 C 120.18 363.675 119.94 363.795 119.7 363.915 C 119.34 364.035 119.1 364.155 118.86 364.155 L 118.62 364.155 L 118.62 364.275 C 118.86 364.275 119.22 364.395 119.46 364.635 C 119.82 364.755 120.06 365.003 120.18 365.243 C 120.3 365.483 120.3 365.723 120.3 366.083 C 120.3 366.443 120.18 366.683 119.94 366.923 C 119.7 367.163 119.46 367.283 119.1 367.283 C 118.5 367.283 118.013 367.043 117.653 366.443 L 117.533 366.443 Z" fill="rgb(0,0,0)" stroke="none"/>
<path d="M 123.667 367.883 L 127.755 367.883 L 127.755 367.643 L 125.235 360.315 L 124.627 360.315 L 126.795 367.043 L 124.747 367.043 C 124.387 367.043 124.027 366.923 123.907 366.803 C 123.547 366.683 123.307 366.443 123.187 366.083 L 122.947 366.083 L 123.667 367.883 Z" fill="rgb(0,0,0)" stroke="none"/>
<path d="M 129.675 361.515 C 129.795 361.515 129.915 361.395 130.035 361.275 C 130.155 361.155 130.275 361.035 130.275 360.915 C 130.275 360.675 130.155 360.555 130.035 360.435 C 129.915 360.315 129.795 360.315 129.675 360.315 C 129.435 360.315 129.315 360.315 129.195 360.435 C 129.075 360.555 128.955 360.675 128.955 360.915 C 128.955 361.035 129.075 361.155 129.195 361.275 C 129.315 361.395 129.435 361.515 129.675 361.515 Z" fill="rgb(0,0,0)" stroke="none"/>
<path d="M 264.06 366.443 C 264.18 366.923 264.54 367.403 264.78 367.643 C 265.147 367.883 265.507 368.003 265.987 368.003 C 266.587 368.003 267.067 367.883 267.427 367.523 C 267.667 367.163 267.787 366.923 267.787 366.563 C 267.787 365.963 267.427 365.483 266.707 364.883 C 267.187 364.635 267.547 364.395 267.787 364.035 C 268.027 363.795 268.147 363.315 268.147 362.835 C 268.147 362.235 267.907 361.635 267.547 361.155 C 266.947 360.555 266.227 360.315 265.147 360.315 C 264.66 360.315 264.3 360.315 264.18 360.435 C 263.94 360.555 263.94 360.675 263.94 360.915 C 263.94 361.035 263.94 361.035 264.06 361.155 C 264.06 361.275 264.18 361.275 264.3 361.275 C 264.42 361.275 264.54 361.275 264.66 361.275 C 264.66 361.275 264.78 361.155 265.027 361.035 C 265.267 360.915 265.387 360.795 265.507 360.795 C 265.627 360.795 265.747 360.795 265.987 360.795 C 266.347 360.795 266.587 360.915 266.947 361.155 C 267.187 361.515 267.307 361.875 267.307 362.235 C 267.307 362.475 267.307 362.835 267.187 363.075 C 267.067 363.315 266.947 363.435 266.827 363.555 C 266.707 363.675 266.467 363.795 266.227 363.915 C 265.867 364.035 265.627 364.155 265.387 364.155 L 265.147 364.155 L 265.147 364.275 C 265.387 364.275 265.747 364.395 265.987 364.635 C 266.347 364.755 266.587 365.003 266.707 365.243 C 266.827 365.483 266.827 365.723 266.827 366.083 C 266.827 366.443 266.707 366.683 266.467 366.923 C 266.227 367.163 265.987 367.283 265.627 367.283 C 265.027 367.283 264.54 367.043 264.18 366.443 L 264.06 366.443 Z" fill="rgb(0,0,0)" stroke="none"/>
<path d="M 271.275 364.155 C 270.675 364.635 270.308 365.002 270.068 365.362 C 269.948 365.602 269.828 365.962 269.828 366.322 C 269.828 366.802 270.068 367.162 270.428 367.522 C 270.795 367.882 271.275 368.002 271.875 368.002 C 272.475 368.002 272.955 367.882 273.315 367.522 C 273.795 367.282 273.915 366.802 273.915 366.442 C 273.915 366.202 273.795 365.842 273.675 365.602 C 273.435 365.242 272.955 365.002 272.355 364.515 C 273.075 364.035 273.435 363.675 273.675 363.435 C 273.915 362.955 274.035 362.595 274.035 362.235 C 274.035 361.635 273.915 361.275 273.435 360.795 C 273.075 360.435 272.595 360.315 271.875 360.315 C 271.155 360.315 270.675 360.555 270.188 360.915 C 269.948 361.275 269.828 361.635 269.828 362.115 C 269.828 362.475 269.828 362.835 270.068 363.075 C 270.308 363.435 270.675 363.795 271.275 364.155 Z M 272.115 364.755 C 272.595 365.122 272.835 365.482 272.955 365.722 C 273.075 365.962 273.195 366.202 273.195 366.442 C 273.195 366.922 273.075 367.162 272.835 367.402 C 272.595 367.642 272.355 367.762 271.875 367.762 C 271.515 367.762 271.275 367.642 271.035 367.402 C 270.795 367.162 270.675 366.922 270.675 366.682 C 270.675 366.442 270.675 366.322 270.795 366.082 C 270.915 365.842 271.035 365.722 271.275 365.482 L 272.115 364.755 Z M 271.515 363.915 C 271.275 363.675 271.035 363.435 270.795 363.075 C 270.675 362.835 270.675 362.475 270.675 362.115 C 270.675 361.635 270.795 361.275 271.035 361.035 C 271.275 360.675 271.635 360.555 271.995 360.555 C 272.355 360.555 272.715 360.675 272.955 360.915 C 273.195 361.155 273.315 361.395 273.315 361.755 C 273.315 361.995 273.195 362.235 273.075 362.475 C 272.835 362.835 272.355 363.315 271.515 363.915 Z" fill="rgb(0,0,0)" stroke="none"/>
<path d="M 276.202 361.515 C 276.322 361.515 276.442 361.395 276.562 361.275 C 276.682 361.155 276.802 361.035 276.802 360.915 C 276.802 360.675 276.682 360.555 276.562 360.435 C 276.442 360.315 276.322 360.315 276.202 360.315 C 275.962 360.315 275.842 360.315 275.722 360.435 C 275.602 360.555 275.602 360.675 275.602 360.915 C 275.602 361.035 275.602 361.155 275.722 361.275 C 275.842 361.395 275.962 361.515 276.202 361.515 Z" fill="rgb(0,0,0)" stroke="none"/>
<path d="M 410.828 366.443 C 410.948 366.923 411.308 367.403 411.548 367.643 C 411.908 367.883 412.268 368.003 412.748 368.003 C 413.348 368.003 413.835 367.883 414.195 367.523 C 414.435 367.163 414.555 366.923 414.555 366.563 C 414.555 365.963 414.195 365.483 413.468 364.883 C 413.955 364.635 414.315 364.395 414.555 364.035 C 414.795 363.795 414.915 363.315 414.915 362.835 C 414.915 362.235 414.675 361.635 414.315 361.155 C 413.708 360.555 412.988 360.315 411.908 360.315 C 411.428 360.315 411.068 360.315 410.948 360.435 C 410.708 360.555 410.708 360.675 410.708 360.915 C 410.708 361.035 410.708 361.035 410.828 361.155 C 410.828 361.275 410.948 361.275 411.068 361.275 C 411.188 361.275 411.308 361.275 411.428 361.275 C 411.428 361.275 411.548 361.155 411.788 361.035 C 412.028 360.915 412.148 360.795 412.268 360.795 C 412.388 360.795 412.508 360.795 412.748 360.795 C 413.108 360.795 413.348 360.915 413.708 361.155 C 413.955 361.515 414.075 361.875 414.075 362.235 C 414.075 362.475 414.075 362.835 413.955 363.075 C 413.835 363.315 413.708 363.435 413.588 363.555 C 413.468 363.675 413.228 363.795 412.988 363.915 C 412.628 364.035 412.388 364.155 412.028 364.155 L 411.908 364.155 L 411.908 364.275 C 412.148 364.275 412.508 364.395 412.748 364.635 C 413.108 364.755 413.228 365.003 413.468 365.243 C 413.588 365.483 413.588 365.723 413.588 366.083 C 413.588 366.443 413.468 366.683 413.228 366.923 C 412.988 367.163 412.748 367.283 412.388 367.283 C 411.788 367.283 411.308 367.043 410.948 366.443 L 410.828 366.443 Z" fill="rgb(0,0,0)" stroke="none"/>
<path d="M 416.475 360.315 L 416.475 360.435 C 416.955 360.435 417.315 360.555 417.795 360.795 C 418.155 361.035 418.642 361.395 419.002 361.875 C 419.362 362.475 419.602 363.075 419.722 363.675 C 419.242 363.315 418.642 363.195 418.155 363.195 C 417.675 363.195 417.195 363.315 416.835 363.795 C 416.475 364.155 416.235 364.635 416.235 365.362 C 416.235 366.082 416.475 366.562 416.835 367.162 C 417.315 367.762 417.915 368.002 418.642 368.002 C 419.242 368.002 419.722 367.762 420.202 367.282 C 420.682 366.682 421.042 365.842 421.042 365.002 C 421.042 364.155 420.802 363.315 420.442 362.595 C 419.962 361.875 419.482 361.275 418.642 360.795 C 418.155 360.435 417.435 360.315 416.715 360.315 L 416.475 360.315 Z M 419.842 364.155 C 419.962 364.635 419.962 365.002 419.962 365.242 C 419.962 365.602 419.962 365.962 419.842 366.442 C 419.602 366.802 419.482 367.162 419.242 367.402 C 419.002 367.642 418.762 367.642 418.522 367.642 C 418.155 367.642 417.915 367.522 417.675 367.282 C 417.435 366.922 417.315 366.562 417.315 365.962 C 417.315 365.122 417.435 364.515 417.795 364.155 C 418.035 363.795 418.282 363.675 418.642 363.675 C 418.762 363.675 419.002 363.675 419.242 363.795 C 419.482 363.795 419.722 363.915 419.842 364.155 Z" fill="rgb(0,0,0)" stroke="none"/>
<path d="M 422.97 361.515 C 423.09 361.515 423.21 361.395 423.33 361.275 C 423.45 361.155 423.57 361.035 423.57 360.915 C 423.57 360.675 423.45 360.555 423.33 360.435 C 423.21 360.315 423.09 360.315 422.97 360.315 C 422.73 360.315 422.61 360.315 422.49 360.435 C 422.37 360.555 422.25 360.675 422.25 360.915 C 422.25 361.035 422.37 361.155 422.49 361.275 C 422.61 361.395 422.73 361.515 422.97 361.515 Z" fill="rgb(0,0,0)" stroke="none"/>
<path d="M 92.76 371.28 L 526.68 371.28 L 526.68 370.8 L 92.76 370.8 Z" fill="rgb(0,0,0)" fill-rule="evenodd" stroke="none"/>
<path d="M 526.68 371.28 L 527.16 371.28 L 527.16 370.8 L 526.68 370.8 Z M 92.76 370.92 L 93.24 370.92 L 93.24 228.36 L 92.76 228.36 Z M 239.52 370.92 L 240 370.92 L 240 228.36 L 239.52 228.36 Z M 386.04 370.92 L 386.52 370.92 L 386.52 228.36 L 386.04 228.36 Z" fill="rgb(0,0,0)" fill-rule="evenodd" stroke="none"/>
<path d="M 526.68 370.92 L 527.16 370.92 L 527.16 228.36 L 526.68 228.36 Z" fill="rgb(0,0,0)" stroke="none"/>
<path d="M 122.22 220.357 L 122.22 219.517 L 121.14 219.517 L 121.14 217.597 L 120.3 217.597 L 120.3 219.517 L 117.053 219.517 L 117.053 220.237 L 120.54 225.165 L 121.14 225.165 L 121.14 220.357 L 122.22 220.357 Z M 120.3 220.357 L 120.3 224.085 L 117.653 220.357 L 120.3 220.357 Z" fill="rgb(0,0,0)" stroke="none"/>
<path d="M 122.947 221.325 C 122.947 222.165 123.067 222.885 123.307 223.485 C 123.667 224.085 123.907 224.565 124.387 224.805 C 124.747 225.045 125.107 225.165 125.347 225.165 C 125.947 225.165 126.547 224.925 126.907 224.325 C 127.515 223.605 127.755 222.645 127.755 221.445 C 127.755 220.477 127.635 219.757 127.395 219.157 C 127.147 218.557 126.907 218.197 126.427 217.837 C 126.067 217.597 125.707 217.477 125.347 217.477 C 124.627 217.477 124.027 217.837 123.547 218.677 C 123.187 219.397 122.947 220.237 122.947 221.325 Z M 124.027 221.197 C 124.027 220.117 124.147 219.277 124.387 218.677 C 124.627 218.077 124.987 217.837 125.347 217.837 C 125.587 217.837 125.827 217.837 125.947 218.077 C 126.187 218.197 126.307 218.557 126.427 218.917 C 126.667 219.637 126.667 220.477 126.667 221.685 C 126.667 222.525 126.667 223.245 126.427 223.725 C 126.307 224.205 126.187 224.445 125.947 224.685 C 125.827 224.805 125.587 224.805 125.347 224.805 C 125.107 224.805 124.987 224.805 124.747 224.565 C 124.507 224.205 124.267 223.725 124.147 223.125 C 124.147 222.405 124.027 221.805 124.027 221.197 Z" fill="rgb(0,0,0)" stroke="none"/>
<path d="M 129.675 218.678 C 129.795 218.678 129.915 218.558 130.035 218.438 C 130.155 218.318 130.275 218.198 130.275 218.078 C 130.275 217.838 130.155 217.718 130.035 217.598 C 129.915 217.478 129.795 217.478 129.675 217.478 C 129.435 217.478 129.315 217.478 129.195 217.598 C 129.075 217.718 128.955 217.838 128.955 218.078 C 128.955 218.198 129.075 218.318 129.195 218.438 C 129.315 218.558 129.435 218.678 129.675 218.678 Z" fill="rgb(0,0,0)" stroke="none"/>
<path d="M 268.747 220.357 L 268.747 219.517 L 267.667 219.517 L 267.667 217.597 L 266.827 217.597 L 266.827 219.517 L 263.58 219.517 L 263.58 220.237 L 267.067 225.165 L 267.667 225.165 L 267.667 220.357 L 268.747 220.357 Z M 266.827 220.357 L 266.827 224.085 L 264.18 220.357 L 266.827 220.357 Z" fill="rgb(0,0,0)" stroke="none"/>
<path d="M 270.428 224.325 L 272.235 225.165 L 272.475 225.165 L 272.475 218.917 C 272.475 218.437 272.475 218.197 272.475 218.077 C 272.475 218.077 272.595 217.957 272.715 217.837 C 272.835 217.837 273.075 217.837 273.315 217.837 L 273.315 217.597 L 270.555 217.597 L 270.555 217.837 C 270.915 217.837 271.155 217.837 271.275 217.837 C 271.395 217.957 271.395 217.957 271.395 218.077 C 271.515 218.197 271.515 218.437 271.515 218.917 L 271.515 222.885 C 271.515 223.485 271.515 223.845 271.395 223.965 C 271.395 224.085 271.395 224.205 271.275 224.205 C 271.275 224.325 271.155 224.325 271.035 224.325 C 270.915 224.325 270.795 224.325 270.555 224.205 L 270.428 224.325 Z" fill="rgb(0,0,0)" stroke="none"/>
<path d="M 276.202 218.678 C 276.322 218.678 276.442 218.558 276.562 218.438 C 276.682 218.318 276.802 218.198 276.802 218.078 C 276.802 217.838 276.682 217.718 276.562 217.598 C 276.442 217.478 276.322 217.478 276.202 217.478 C 275.962 217.478 275.842 217.478 275.722 217.598 C 275.602 217.718 275.602 217.838 275.602 218.078 C 275.602 218.198 275.602 218.318 275.722 218.438 C 275.842 218.558 275.962 218.678 276.202 218.678 Z" fill="rgb(0,0,0)" stroke="none"/>
<path d="M 415.395 220.357 L 415.395 219.517 L 414.435 219.517 L 414.435 217.597 L 413.587 217.597 L 413.587 219.517 L 410.347 219.517 L 410.347 220.237 L 413.835 225.165 L 414.435 225.165 L 414.435 220.357 L 415.395 220.357 Z M 413.587 220.357 L 413.587 224.085 L 410.947 220.357 L 413.587 220.357 Z" fill="rgb(0,0,0)" stroke="none"/>
<path d="M 421.043 219.037 L 420.563 217.597 L 416.115 217.597 L 416.115 217.837 C 417.435 218.917 418.283 219.997 418.883 220.717 C 419.363 221.445 419.603 222.165 419.603 222.765 C 419.603 223.245 419.483 223.605 419.243 223.965 C 418.883 224.205 418.523 224.325 418.155 224.325 C 417.795 224.325 417.435 224.325 417.195 224.085 C 416.835 223.845 416.595 223.485 416.475 223.125 L 416.355 223.125 C 416.355 223.845 416.595 224.325 416.955 224.685 C 417.435 225.045 417.915 225.165 418.403 225.165 C 419.003 225.165 419.603 225.045 419.963 224.685 C 420.323 224.205 420.563 223.845 420.563 223.245 C 420.563 222.885 420.443 222.525 420.323 222.165 C 420.083 221.565 419.603 220.837 419.003 220.237 C 418.035 219.277 417.435 218.677 417.315 218.437 L 419.243 218.437 C 419.603 218.437 419.843 218.437 420.083 218.437 C 420.203 218.437 420.323 218.557 420.443 218.677 C 420.563 218.677 420.683 218.917 420.803 219.037 L 421.043 219.037 Z" fill="rgb(0,0,0)" stroke="none"/>
<path d="M 422.97 218.678 C 423.09 218.678 423.21 218.558 423.33 218.438 C 423.45 218.318 423.57 218.198 423.57 218.078 C 423.57 217.838 423.45 217.718 423.33 217.598 C 423.21 217.478 423.09 217.478 422.97 217.478 C 422.73 217.478 422.61 217.478 422.49 217.598 C 422.37 217.718 422.25 217.838 422.25 218.078 C 422.25 218.198 422.37 218.318 422.49 218.438 C 422.61 218.558 422.73 218.678 422.97 218.678 Z" fill="rgb(0,0,0)" stroke="none"/>
<path d="M 92.76 228.36 L 526.68 228.36 L 526.68 227.88 L 92.76 227.88 Z" fill="rgb(0,0,0)" fill-rule="evenodd" stroke="none"/>
<path d="M 526.68 228.36 L 527.16 228.36 L 527.16 227.88 L 526.68 227.88 Z" fill="rgb(0,0,0)" stroke="none"/>
<path d="M 92.76 228 L 93.24 228 L 93.24 85.08 L 92.76 85.08 Z" fill="rgb(0,0,0)" fill-rule="evenodd" stroke="none"/>
<path d="M 92.76 85.56 L 239.52 85.56 L 239.52 85.08 L 92.76 85.08 Z" fill="rgb(0,0,0)" fill-rule="evenodd" stroke="none"/>
<path d="M 239.52 228 L 240 228 L 240 85.08 L 239.52 85.08 Z" fill="rgb(0,0,0)" fill-rule="evenodd" stroke="none"/>
<path d="M 239.88 85.56 L 386.04 85.56 L 386.04 85.08 L 239.88 85.08 Z" fill="rgb(0,0,0)" stroke="none"/>
<path d="M 386.04 228 L 386.52 228 L 386.52 85.08 L 386.04 85.08 Z" fill="rgb(0,0,0)" fill-rule="evenodd" stroke="none"/>
<path d="M 386.4 85.56 L 526.68 85.56 L 526.68 85.08 L 386.4 85.08 Z" fill="rgb(0,0,0)" stroke="none"/>
<path d="M 526.68 228 L 527.16 228 L 527.16 85.08 L 526.68 85.08 Z" fill="rgb(0,0,0)" fill-rule="evenodd" stroke="none"/>
<path d="M 526.68 85.56 L 527.16 85.56 L 527.16 85.08 L 526.68 85.08 Z" fill="rgb(0,0,0)" stroke="none"/>
</svg>